<svg xmlns="http://www.w3.org/2000/svg" width="1301" height="2022" viewBox="0 0 1301 2022" version="1.1"><path d="M 505.079 315.750 C 505.036 316.438, 504.212 317.036, 503.250 317.079 C 501.857 317.142, 501.806 317.274, 503 317.726 C 503.825 318.038, 504.860 318.902, 505.300 319.647 C 505.740 320.391, 506.704 321, 507.443 321 C 508.182 321, 509.045 321.675, 509.362 322.500 C 509.678 323.325, 510.578 324, 511.362 324 C 512.145 324, 513.045 324.675, 513.362 325.500 C 513.678 326.325, 514.626 327, 515.469 327 C 516.311 327, 517 327.450, 517 328 C 517 328.550, 517.675 329, 518.500 329 C 519.325 329, 520 329.675, 520 330.500 C 520 331.325, 520.450 332, 521 332 C 521.550 332, 522 332.675, 522 333.500 C 522 334.325, 522.824 335, 523.831 335 C 524.838 335, 526.264 336.125, 527 337.500 C 527.736 338.875, 528.899 340, 529.585 340 C 530.271 340, 531.430 341.350, 532.160 343 C 532.891 344.650, 533.828 346, 534.244 346 C 534.660 346, 535 346.675, 535 347.500 C 535 348.333, 535.889 349, 537 349 C 538.100 349, 539 349.365, 539 349.811 C 539 350.258, 539.791 351.495, 540.757 352.561 C 541.724 353.628, 543.064 355.738, 543.736 357.250 C 544.407 358.762, 545.566 360, 546.310 360 C 547.053 360, 548.264 361.125, 549 362.500 C 549.736 363.875, 550.712 365, 551.169 365 C 551.626 365, 552 365.675, 552 366.500 C 552 367.325, 552.450 368, 553 368 C 553.550 368, 554 368.675, 554 369.500 C 554 370.325, 554.450 371, 555 371 C 555.550 371, 556 371.675, 556 372.500 C 556 373.325, 556.599 374, 557.331 374 C 558.063 374, 559.264 375.125, 560 376.500 C 560.736 377.875, 561.712 379, 562.169 379 C 562.626 379, 563 379.675, 563 380.500 C 563 381.325, 563.450 382, 564 382 C 564.550 382, 565 382.675, 565 383.500 C 565 384.325, 565.450 385, 566 385 C 566.550 385, 567 385.675, 567 386.500 C 567 387.325, 567.401 388, 567.892 388 C 568.382 388, 569.065 389.122, 569.409 390.494 C 569.753 391.866, 570.365 392.938, 570.768 392.876 C 572.822 392.560, 574 393.152, 574 394.500 C 574 395.325, 574.450 396, 575 396 C 575.550 396, 576 396.445, 576 396.989 C 576 397.917, 577.899 400.537, 580.750 403.540 C 581.438 404.265, 582 405.233, 582 405.692 C 582 406.822, 589.128 417.415, 590.170 417.833 C 590.627 418.017, 591 418.804, 591 419.583 C 591 420.363, 591.450 421, 592 421 C 592.550 421, 593 421.675, 593 422.500 C 593 423.325, 593.401 424, 593.892 424 C 594.382 424, 595.066 425.125, 595.411 426.500 C 595.816 428.114, 596.740 429, 598.019 429 C 599.113 429, 600 429.671, 600 430.500 C 600 431.325, 600.450 432, 601 432 C 601.550 432, 602 432.675, 602 433.500 C 602 434.325, 602.450 435, 603 435 C 603.550 435, 604 435.675, 604 436.500 C 604 437.325, 604.374 438, 604.831 438 C 605.288 438, 606.264 439.125, 607 440.500 C 607.736 441.875, 609.162 443, 610.169 443 C 613.190 443, 612.309 434.161, 608.972 431 C 608.682 430.725, 606.657 427.691, 604.472 424.259 C 602.288 420.826, 600.163 418.014, 599.750 418.009 C 599.337 418.004, 599 417.325, 599 416.500 C 599 415.675, 598.212 414.988, 597.250 414.974 C 596.213 414.959, 594.793 413.413, 593.766 411.180 C 592.812 409.107, 591.125 406.437, 590.016 405.247 C 588.907 404.057, 588 402.615, 588 402.042 C 588 401.469, 587.550 401, 587 401 C 586.450 401, 586 400.505, 586 399.900 C 586 399.295, 583.975 396.745, 581.500 394.235 C 579.025 391.724, 577 389.070, 577 388.335 C 577 387.601, 576.550 387, 576 387 C 575.450 387, 575 386.555, 575 386.011 C 575 384.727, 571.806 381, 570.706 381 C 569.422 381, 567.717 378.893, 565.508 374.578 C 564.412 372.437, 562.781 370.494, 561.882 370.259 C 560.983 370.024, 559.666 368.744, 558.955 367.416 C 558.244 366.087, 557.288 365, 556.831 365 C 556.374 365, 556 364.325, 556 363.500 C 556 362.675, 555.550 362, 555 362 C 554.450 362, 554 361.325, 554 360.500 C 554 359.675, 553.401 359, 552.669 359 C 551.937 359, 550.736 357.875, 550 356.500 C 549.264 355.125, 548.288 354, 547.831 354 C 547.374 354, 547 353.325, 547 352.500 C 547 351.667, 546.111 351, 545 351 C 543.889 351, 543 350.333, 543 349.500 C 543 348.675, 542.550 348, 542 348 C 541.450 348, 541 347.325, 541 346.500 C 541 345.675, 540.401 345, 539.669 345 C 538.937 345, 537.736 343.875, 537 342.500 C 536.264 341.125, 535.288 340, 534.831 340 C 534.374 340, 534 339.325, 534 338.500 C 534 337.667, 533.111 337, 532 337 C 530.900 337, 530 336.373, 530 335.607 C 530 334.841, 529.296 333.944, 528.437 333.614 C 527.577 333.284, 527.153 332.561, 527.496 332.007 C 527.838 331.453, 527.416 331, 526.559 331 C 525.702 331, 525 330.550, 525 330 C 525 329.450, 524.100 329, 523 329 C 521.889 329, 521 328.333, 521 327.500 C 521 326.667, 520.111 326, 519 326 C 517.889 326, 517 325.333, 517 324.500 C 517 323.675, 516.373 323, 515.607 323 C 514.841 323, 513.955 322.325, 513.638 321.500 C 513.322 320.675, 512.422 320, 511.638 320 C 510.855 320, 509.955 319.325, 509.638 318.500 C 509.322 317.675, 508.411 317, 507.615 317 C 506.818 317, 505.940 316.438, 505.662 315.750 C 505.259 314.750, 505.142 314.750, 505.079 315.750 M 764.015 315.750 C 764.007 316.438, 763.311 317, 762.469 317 C 761.626 317, 760.678 317.675, 760.362 318.500 C 760.045 319.325, 759.145 320, 758.362 320 C 757.578 320, 756.678 320.675, 756.362 321.500 C 756.045 322.325, 755.159 323, 754.393 323 C 753.627 323, 753 323.675, 753 324.500 C 753 325.333, 752.111 326, 751 326 C 749.889 326, 749 326.667, 749 327.500 C 749 328.325, 748.176 329, 747.169 329 C 746.162 329, 744.736 330.125, 744 331.500 C 743.264 332.875, 742.063 334, 741.331 334 C 740.599 334, 740 334.675, 740 335.500 C 740 336.333, 739.111 337, 738 337 C 736.889 337, 736 337.667, 736 338.500 C 736 339.325, 735.626 340, 735.169 340 C 734.712 340, 733.736 341.125, 733 342.500 C 732.264 343.875, 731.063 345, 730.331 345 C 729.599 345, 729 345.675, 729 346.500 C 729 347.325, 728.550 348, 728 348 C 727.450 348, 727 348.675, 727 349.500 C 727 350.333, 726.111 351, 725 351 C 723.889 351, 723 351.667, 723 352.500 C 723 353.325, 722.626 354, 722.169 354 C 721.712 354, 720.736 355.125, 720 356.500 C 719.264 357.875, 718.063 359, 717.331 359 C 716.599 359, 716 359.675, 716 360.500 C 716 361.325, 715.550 362, 715 362 C 714.450 362, 714 362.675, 714 363.500 C 714 364.325, 713.626 365, 713.169 365 C 712.712 365, 711.756 366.087, 711.045 367.416 C 710.334 368.744, 709.017 370.024, 708.118 370.259 C 707.219 370.494, 705.588 372.437, 704.492 374.578 C 702.283 378.893, 700.578 381, 699.294 381 C 698.194 381, 695 384.727, 695 386.011 C 695 386.555, 694.550 387, 694 387 C 693.450 387, 693 387.625, 693 388.388 C 693 389.152, 690.975 391.830, 688.500 394.341 C 686.025 396.851, 684 399.377, 684 399.953 C 684 400.529, 683.550 401, 683 401 C 682.450 401, 682 401.469, 682 402.042 C 682 402.615, 681.093 404.057, 679.984 405.247 C 678.875 406.437, 677.188 409.107, 676.234 411.180 C 675.207 413.413, 673.787 414.959, 672.750 414.974 C 671.788 414.988, 671 415.637, 671 416.417 C 671 417.196, 670.605 417.983, 670.122 418.167 C 669.638 418.350, 666.713 422.433, 663.622 427.241 C 659.521 433.616, 658 436.931, 658 439.491 C 658 442.225, 658.404 443, 659.831 443 C 660.838 443, 662.264 441.875, 663 440.500 C 663.736 439.125, 664.712 438, 665.169 438 C 665.626 438, 666 437.325, 666 436.500 C 666 435.675, 666.450 435, 667 435 C 667.550 435, 668 434.325, 668 433.500 C 668 432.675, 668.548 432, 669.218 432 C 670.765 432, 675 427.125, 675 425.344 C 675 424.605, 675.450 424, 676 424 C 676.550 424, 677 423.325, 677 422.500 C 677 421.675, 677.450 421, 678 421 C 678.550 421, 679 420.363, 679 419.583 C 679 418.804, 679.373 418.017, 679.830 417.833 C 680.827 417.433, 688 406.846, 688 405.775 C 688 405.052, 690.129 402.221, 692.750 399.460 C 693.438 398.735, 694 397.661, 694 397.071 C 694 396.482, 694.450 396, 695 396 C 695.550 396, 696 395.518, 696 394.929 C 696 393.544, 698.544 391, 699.929 391 C 700.518 391, 701 390.325, 701 389.500 C 701 388.675, 701.450 388, 702 388 C 702.550 388, 703 387.325, 703 386.500 C 703 385.675, 703.450 385, 704 385 C 704.550 385, 705 384.325, 705 383.500 C 705 382.675, 705.450 382, 706 382 C 706.550 382, 707 381.325, 707 380.500 C 707 379.675, 707.344 379, 707.764 379 C 708.184 379, 709.640 377.200, 711 375 C 712.360 372.800, 714.041 371, 714.736 371 C 715.431 371, 716 370.325, 716 369.500 C 716 368.675, 716.450 368, 717 368 C 717.550 368, 718 367.325, 718 366.500 C 718 365.675, 718.374 365, 718.831 365 C 719.288 365, 720.264 363.875, 721 362.500 C 721.736 361.125, 722.947 360, 723.690 360 C 724.434 360, 725.593 358.762, 726.264 357.250 C 726.936 355.738, 728.276 353.628, 729.243 352.561 C 730.209 351.495, 731 350.258, 731 349.811 C 731 349.365, 731.900 349, 733 349 C 734.111 349, 735 348.333, 735 347.500 C 735 346.675, 735.340 346, 735.756 346 C 736.172 346, 737.109 344.650, 737.840 343 C 738.570 341.350, 739.729 340, 740.415 340 C 741.101 340, 742.264 338.875, 743 337.500 C 743.736 336.125, 745.162 335, 746.169 335 C 747.176 335, 748 334.325, 748 333.500 C 748 332.675, 748.450 332, 749 332 C 749.550 332, 750 331.325, 750 330.500 C 750 329.675, 750.675 329, 751.500 329 C 752.325 329, 753 328.550, 753 328 C 753 327.450, 753.689 327, 754.531 327 C 755.374 327, 756.322 326.325, 756.638 325.500 C 756.955 324.675, 757.855 324, 758.638 324 C 759.422 324, 760.322 323.325, 760.638 322.500 C 760.955 321.675, 761.855 321, 762.638 321 C 763.422 321, 764.322 320.325, 764.638 319.500 C 764.955 318.675, 765.953 317.964, 766.857 317.921 C 768.226 317.855, 768.250 317.747, 767 317.271 C 766.175 316.957, 765.169 316.205, 764.765 315.600 C 764.257 314.839, 764.026 314.885, 764.015 315.750" stroke="none" fill="#0e0f0e" fill-rule="evenodd"/></svg>