<svg xmlns="http://www.w3.org/2000/svg" width="1301" height="2022" viewBox="0 0 1301 2022" version="1.1"><path d="M 594.200 1462.200 C 593.540 1462.860, 593 1464.650, 593 1466.177 C 593 1467.705, 594.065 1471.783, 595.366 1475.240 C 596.667 1478.698, 599.107 1484.220, 600.788 1487.513 C 602.468 1490.806, 607.816 1499.646, 612.672 1507.158 C 617.527 1514.670, 627.163 1529.295, 634.084 1539.658 C 641.005 1550.021, 649.525 1563.450, 653.017 1569.500 C 656.510 1575.550, 662.151 1586.350, 665.553 1593.500 C 668.955 1600.650, 673.126 1610.325, 674.822 1615 C 676.517 1619.675, 679.070 1627.550, 680.495 1632.500 C 681.919 1637.450, 684.167 1646.900, 685.489 1653.500 C 686.811 1660.100, 688.366 1670.675, 688.943 1677 C 689.521 1683.325, 689.995 1693.940, 689.997 1700.589 C 689.998 1707.239, 689.315 1719.833, 688.477 1728.578 C 687.639 1737.322, 685.847 1749.942, 684.495 1756.621 C 683.142 1763.300, 680.484 1773.880, 678.588 1780.133 C 676.692 1786.385, 673.323 1795.946, 671.102 1801.380 C 668.881 1806.814, 664.560 1815.589, 661.500 1820.880 C 658.440 1826.171, 654.098 1833.106, 651.852 1836.291 C 649.605 1839.476, 644.332 1845.742, 640.133 1850.216 C 635.935 1854.690, 628.915 1861.015, 624.533 1864.272 C 620.151 1867.529, 613.472 1871.752, 609.690 1873.656 C 605.908 1875.561, 599.247 1878.434, 594.888 1880.041 C 590.529 1881.648, 582.608 1883.706, 577.286 1884.613 C 570.005 1885.854, 564.127 1886.127, 553.554 1885.714 C 543.618 1885.326, 537.355 1884.548, 532.179 1883.059 C 528.152 1881.901, 521.685 1879.356, 517.807 1877.403 C 513.929 1875.450, 508.493 1871.748, 505.726 1869.176 C 502.960 1866.604, 499.215 1862.199, 497.405 1859.387 C 495.594 1856.574, 493.173 1851.481, 492.023 1848.068 C 490.572 1843.761, 489.892 1839.056, 489.800 1832.682 C 489.711 1826.502, 490.243 1821.547, 491.427 1817.526 C 492.395 1814.240, 494.319 1809.523, 495.702 1807.044 C 497.086 1804.566, 499.047 1801.484, 500.060 1800.196 C 501.073 1798.908, 503.837 1796.317, 506.201 1794.437 C 508.565 1792.557, 513.425 1790.018, 517 1788.795 C 521.776 1787.161, 525.887 1786.562, 532.500 1786.536 C 539.020 1786.510, 542.944 1787.036, 546.739 1788.444 C 549.620 1789.513, 554.120 1792.004, 556.739 1793.981 C 560.130 1796.541, 562.507 1799.550, 565 1804.437 C 568.233 1810.774, 568.476 1811.879, 568.191 1818.899 C 568.021 1823.080, 567.796 1829.236, 567.691 1832.580 C 567.526 1837.830, 567.874 1839.149, 570.239 1842.249 C 571.801 1844.295, 574.538 1846.352, 576.608 1847.035 C 578.604 1847.694, 582.182 1848.014, 584.560 1847.746 C 586.937 1847.478, 590.944 1846.051, 593.464 1844.574 C 595.989 1843.095, 599.244 1840.007, 600.716 1837.695 C 602.185 1835.388, 603.975 1831.264, 604.694 1828.532 C 605.412 1825.800, 606 1821.168, 606 1818.240 C 606 1815.312, 605.312 1809.447, 604.472 1805.208 C 603.578 1800.699, 601.108 1793.738, 598.520 1788.434 C 595.629 1782.510, 592.233 1777.429, 588.720 1773.774 C 585.764 1770.697, 580.490 1766.334, 577.001 1764.079 C 573.512 1761.824, 567.022 1758.789, 562.578 1757.335 C 555.482 1755.013, 552.920 1754.697, 541.500 1754.734 C 531.499 1754.766, 526.655 1755.268, 520.500 1756.909 C 516.100 1758.082, 508.900 1760.825, 504.500 1763.005 C 499.836 1765.315, 493.678 1769.516, 489.732 1773.079 C 486.010 1776.441, 480.967 1781.990, 478.526 1785.412 C 476.084 1788.833, 472.664 1795.185, 470.925 1799.527 C 469.187 1803.869, 467.107 1811.040, 466.304 1815.461 C 465.327 1820.839, 465.032 1826.665, 465.414 1833.061 C 465.728 1838.320, 466.862 1846.049, 467.933 1850.237 C 469.004 1854.425, 471.293 1861.246, 473.021 1865.395 C 474.748 1869.545, 477.844 1875.541, 479.900 1878.720 C 481.955 1881.899, 486.275 1887.347, 489.498 1890.828 C 492.722 1894.308, 498.131 1899.133, 501.518 1901.550 C 504.906 1903.968, 511.016 1907.531, 515.097 1909.469 C 519.178 1911.407, 526.831 1914.087, 532.104 1915.425 C 537.377 1916.762, 545.923 1918.162, 551.096 1918.536 C 556.604 1918.934, 564.643 1918.734, 570.500 1918.052 C 576 1917.413, 584.643 1915.780, 589.708 1914.425 C 594.772 1913.069, 602.572 1910.395, 607.041 1908.482 C 611.511 1906.569, 618.088 1903.316, 621.657 1901.252 C 625.226 1899.188, 628.901 1897.050, 629.824 1896.500 C 630.747 1895.950, 634.964 1892.928, 639.195 1889.784 C 643.426 1886.641, 650.442 1880.534, 654.785 1876.214 C 659.129 1871.894, 665.182 1865.016, 668.237 1860.929 C 671.291 1856.843, 676.077 1849.488, 678.871 1844.585 C 681.665 1839.681, 685.384 1832.256, 687.135 1828.085 C 688.886 1823.913, 691.401 1817.350, 692.723 1813.500 C 694.046 1809.650, 696.229 1802, 697.573 1796.500 C 698.917 1791, 700.893 1781.325, 701.964 1775 C 703.035 1768.675, 704.481 1758.550, 705.177 1752.500 C 705.938 1745.878, 706.452 1728.564, 706.468 1709 C 706.490 1682.234, 706.168 1674.383, 704.640 1664.500 C 703.620 1657.900, 701.021 1645.429, 698.863 1636.787 C 696.706 1628.145, 693.411 1616.895, 691.541 1611.787 C 689.671 1606.679, 686.940 1599.575, 685.471 1596 C 684.003 1592.425, 680.547 1585, 677.792 1579.500 C 675.037 1574, 670.960 1566.350, 668.732 1562.500 C 666.504 1558.650, 660.719 1549.614, 655.877 1542.421 C 651.035 1535.227, 642.774 1523.752, 637.519 1516.921 C 632.265 1510.089, 624.920 1500.225, 621.198 1495 C 617.476 1489.775, 613.180 1482.350, 611.652 1478.500 C 610.124 1474.650, 607.323 1469.138, 605.427 1466.250 C 602.425 1461.679, 601.554 1461, 598.690 1461 C 596.880 1461, 594.860 1461.540, 594.200 1462.200" stroke="none" fill="#080404" fill-rule="evenodd"/></svg>