<svg xmlns="http://www.w3.org/2000/svg" width="1301" height="2022" viewBox="0 0 1301 2022" version="1.1"><path d="M 596.038 552.250 C 582.666 565.587, 569.972 578.864, 567.828 581.754 C 565.685 584.644, 561.656 588.806, 558.876 591.004 C 556.095 593.202, 552.791 595, 551.533 595 C 550.274 595, 548.665 594.302, 547.957 593.449 C 546.861 592.128, 547.474 591.050, 552.083 586.199 C 557.313 580.694, 557.271 580.716, 550.870 586.850 C 544.860 592.610, 544.038 593.091, 542.031 592.017 C 540.339 591.111, 539.156 591.107, 537 592 C 534.851 592.890, 533.663 592.890, 532 592 C 530.329 591.106, 529.137 591.115, 526.908 592.038 C 524.592 592.997, 523.679 592.978, 522.433 591.945 C 521.157 590.886, 520.216 590.882, 517.335 591.924 C 514.764 592.853, 513.502 592.902, 512.701 592.101 C 512.095 591.495, 510.775 591, 509.767 591 C 508.758 591, 506.358 592.575, 504.433 594.500 C 502.508 596.425, 500.358 598, 499.654 598 C 498.950 598, 497.081 596.650, 495.500 595 C 493.919 593.350, 491.669 592, 490.500 592 C 489.331 592, 487.055 593.377, 485.442 595.060 C 482.770 597.850, 482.112 598.066, 478 597.500 C 473.888 596.934, 473.230 597.150, 470.558 599.940 C 468.945 601.623, 466.837 603, 465.872 603 C 464.907 603, 463.840 602.550, 463.500 602 C 463.160 601.450, 462.393 601, 461.796 601 C 461.199 601, 456.010 605.612, 450.266 611.250 C 444.522 616.888, 438.914 622.762, 437.805 624.304 C 435.865 627, 435.856 627.183, 437.572 629.079 C 439.301 630.990, 439.243 631.167, 435.678 634.818 C 433.655 636.889, 432 639.134, 432 639.806 C 432 640.478, 432.558 641.921, 433.241 643.014 C 434.228 644.595, 434.228 645.405, 433.241 646.986 C 432.558 648.079, 432 649.522, 432 650.194 C 432 650.866, 433.641 653.096, 435.646 655.149 C 438.929 658.512, 439.188 659.162, 438.256 661.691 C 437.687 663.236, 437.190 667.420, 437.152 670.988 C 437.090 676.708, 437.398 677.806, 439.755 680.266 L 442.428 683.056 442.464 709.042 L 442.500 735.029 430.341 747.159 L 418.181 759.289 414.077 758.247 L 409.973 757.206 402.062 765.739 C 395.744 772.554, 393.784 774.114, 392.326 773.486 C 391.322 773.053, 389.639 772.534, 388.587 772.331 C 387.211 772.066, 382.096 776.511, 370.337 788.192 C 360.923 797.544, 354 805.207, 354 806.276 C 354 807.297, 354.460 808.990, 355.021 810.039 C 355.855 811.598, 355.385 812.675, 352.458 815.915 C 349.206 819.514, 348.959 820.191, 349.793 823.213 C 350.299 825.045, 350.340 827.551, 349.885 828.782 C 349.430 830.013, 349.453 832.028, 349.937 833.260 C 350.420 834.492, 352.882 837.506, 355.408 839.958 C 357.934 842.410, 360 845.148, 360 846.042 C 360 846.935, 359.687 847.980, 359.304 848.362 C 358.922 848.745, 358.527 849.614, 358.427 850.294 C 358.328 850.973, 360.909 854.223, 364.164 857.515 C 369.901 863.317, 370.064 863.628, 369.487 867.700 C 368.918 871.719, 369.132 872.161, 374.446 877.941 C 377.501 881.264, 380 884.347, 380 884.791 C 380 885.236, 379.504 886.096, 378.899 886.701 C 378.269 887.331, 378.072 889.054, 378.440 890.726 C 378.801 892.370, 381.447 895.985, 384.488 898.989 C 388.445 902.896, 389.683 904.753, 389.105 905.914 C 388.670 906.786, 388.401 910.650, 388.506 914.500 C 388.612 918.350, 388.852 921.950, 389.039 922.500 C 389.227 923.050, 389.030 924.981, 388.602 926.791 C 388.112 928.861, 388.235 930.578, 388.933 931.419 C 389.703 932.347, 389.737 933.560, 389.046 935.378 C 388.498 936.820, 387.446 938, 386.708 938 C 385.971 938, 379.395 944.338, 372.097 952.085 C 360.998 963.864, 358.921 966.550, 359.409 968.492 C 359.729 969.769, 360.238 971.456, 360.539 972.241 C 360.890 973.155, 355.500 979.186, 345.543 989.021 C 333.371 1001.046, 330 1004.942, 330 1006.988 C 330 1008.424, 330.541 1010.141, 331.201 1010.801 C 332.137 1011.737, 331.583 1012.843, 328.701 1015.794 C 326.666 1017.879, 325 1020.488, 325 1021.592 C 325 1022.696, 325.528 1024.128, 326.173 1024.773 C 327.070 1025.670, 327.070 1026.551, 326.173 1028.520 C 325.528 1029.936, 325 1031.522, 325 1032.044 C 325 1032.567, 326.573 1034.735, 328.495 1036.863 C 331.705 1040.416, 331.901 1040.985, 330.903 1043.849 C 329.988 1046.472, 330.143 1047.484, 331.877 1050.233 C 333.011 1052.030, 344.552 1063.798, 357.525 1076.384 C 375.114 1093.449, 380.937 1099.678, 380.427 1100.884 C 380.051 1101.773, 379.527 1103.495, 379.262 1104.710 C 378.900 1106.380, 380.176 1108.381, 384.484 1112.898 C 389.402 1118.054, 390.103 1119.263, 389.580 1121.688 C 389.246 1123.235, 389.396 1125.956, 389.913 1127.737 C 390.538 1129.890, 390.504 1131.188, 389.812 1131.616 C 389.217 1131.984, 389.001 1133.971, 389.308 1136.257 C 389.774 1139.732, 389.469 1140.599, 386.982 1142.878 C 385.409 1144.320, 383.900 1146.730, 383.630 1148.234 C 383.359 1149.737, 383.557 1151.226, 384.069 1151.543 C 384.581 1151.859, 385 1152.779, 385 1153.587 C 385 1154.395, 382.489 1157.394, 379.419 1160.251 C 374.898 1164.458, 373.922 1165.925, 374.278 1167.972 C 374.519 1169.363, 375.041 1171.253, 375.436 1172.173 C 375.895 1173.242, 375.467 1174.505, 374.249 1175.673 C 373.201 1176.678, 369.400 1180.065, 365.802 1183.199 C 359.990 1188.264, 359.274 1189.285, 359.380 1192.367 C 359.446 1194.274, 359.850 1196.184, 360.277 1196.611 C 360.704 1197.038, 358.595 1199.888, 355.590 1202.944 C 352.585 1206, 349.837 1209.688, 349.482 1211.141 C 349.128 1212.593, 349.220 1214.018, 349.688 1214.307 C 350.155 1214.596, 350.418 1218.133, 350.271 1222.166 C 350.124 1226.200, 349.946 1230.542, 349.877 1231.815 C 349.807 1233.088, 350.926 1235.357, 352.362 1236.856 C 354.505 1239.093, 354.938 1240.421, 354.772 1244.243 C 354.661 1246.806, 354.780 1249.037, 355.037 1249.201 C 355.294 1249.366, 359.367 1253.193, 364.086 1257.707 L 372.668 1265.915 376.384 1264.774 L 380.100 1263.634 390.901 1274.401 C 401.416 1284.883, 401.808 1285.160, 405.710 1284.834 C 409.666 1284.504, 409.951 1284.722, 427.342 1301.332 L 444.966 1318.164 443.546 1320.910 C 442.765 1322.420, 442.223 1324.296, 442.341 1325.078 C 442.460 1325.860, 442.884 1327.025, 443.285 1327.666 C 443.686 1328.307, 443.572 1329.995, 443.032 1331.416 C 442.406 1333.063, 442.393 1334.904, 442.997 1336.491 C 443.518 1337.862, 443.664 1339.774, 443.323 1340.741 C 442.981 1341.709, 441.827 1343.474, 440.758 1344.664 C 439.293 1346.293, 438.940 1347.766, 439.326 1350.630 C 439.608 1352.722, 439.392 1355.268, 438.846 1356.287 C 438.182 1357.528, 438.203 1359.144, 438.909 1361.170 C 439.634 1363.248, 439.643 1364.798, 438.939 1366.113 C 438.272 1367.360, 438.241 1369.213, 438.851 1371.421 C 439.711 1374.536, 439.504 1375.088, 436.329 1378.157 C 433.616 1380.780, 432.997 1382.039, 433.454 1384 C 433.774 1385.375, 434.187 1387.175, 434.372 1388 C 434.557 1388.825, 434.258 1390.499, 433.707 1391.720 C 432.990 1393.310, 433.064 1394.372, 433.965 1395.458 C 434.679 1396.319, 434.910 1397.737, 434.498 1398.737 C 434.099 1399.707, 433.659 1405.926, 433.520 1412.559 L 433.267 1424.618 444.572 1435.330 C 455.655 1445.832, 455.953 1446.031, 459.689 1445.441 C 463.035 1444.912, 463.858 1445.215, 466.437 1447.919 C 468.052 1449.614, 470.302 1450.993, 471.437 1450.985 C 472.572 1450.976, 474.110 1450.583, 474.855 1450.111 C 475.637 1449.615, 477.408 1449.705, 479.050 1450.325 C 481.214 1451.142, 482.503 1451.069, 484.467 1450.017 C 486.900 1448.716, 487.269 1448.857, 491.035 1452.534 C 494.819 1456.229, 495.186 1456.368, 498.185 1455.236 C 500.149 1454.495, 501.769 1454.393, 502.461 1454.968 C 503.074 1455.477, 506.709 1455.723, 510.538 1455.516 C 514.367 1455.309, 518.400 1454.949, 519.500 1454.716 C 520.600 1454.482, 522.456 1454.722, 523.624 1455.249 C 525.061 1455.897, 526.463 1455.822, 527.964 1455.019 C 529.661 1454.111, 530.843 1454.106, 533 1455 C 535.153 1455.892, 536.338 1455.889, 538.020 1454.989 C 539.965 1453.948, 540.664 1454.242, 544.011 1457.510 C 547.546 1460.962, 548.081 1461.162, 552.020 1460.497 L 556.240 1459.784 586.408 1489.892 C 603 1506.451, 617.127 1520, 617.801 1520 C 618.476 1520, 619.893 1519.459, 620.952 1518.798 C 622.469 1517.850, 623.405 1517.879, 625.371 1518.931 C 626.909 1519.754, 628.561 1519.949, 629.683 1519.440 C 630.682 1518.986, 632.175 1518.561, 633 1518.495 C 633.825 1518.429, 635.062 1518.796, 635.749 1519.309 C 636.544 1519.904, 638.108 1519.784, 640.049 1518.980 C 642.488 1517.970, 643.567 1517.966, 645.425 1518.960 C 647.092 1519.852, 648.300 1519.910, 649.694 1519.164 C 650.763 1518.592, 652.381 1518.233, 653.290 1518.366 C 654.199 1518.500, 655.255 1518.922, 655.638 1519.304 C 656.020 1519.687, 657.036 1520, 657.896 1520 C 658.755 1520, 673.253 1506.231, 690.113 1489.403 C 717.792 1461.777, 720.968 1458.912, 722.819 1459.903 C 723.946 1460.506, 725.765 1461, 726.861 1461 C 727.958 1461, 730.183 1459.389, 731.806 1457.419 C 734.550 1454.090, 734.994 1453.904, 738.130 1454.770 C 740.242 1455.353, 742.304 1455.343, 743.649 1454.744 C 745.028 1454.128, 746.423 1454.137, 747.553 1454.769 C 748.662 1455.390, 750.538 1455.414, 752.641 1454.834 C 754.591 1454.295, 756.702 1454.281, 757.735 1454.800 C 758.706 1455.287, 760.625 1455.394, 762 1455.037 C 763.375 1454.679, 765.706 1454.837, 767.180 1455.386 C 769.020 1456.073, 770.614 1456.041, 772.272 1455.286 C 773.736 1454.619, 775.237 1454.537, 776.092 1455.078 C 776.866 1455.568, 778.302 1455.976, 779.283 1455.985 C 780.264 1455.993, 782.642 1454.425, 784.567 1452.500 C 786.492 1450.575, 788.472 1449, 788.968 1449 C 789.464 1449, 791.054 1449.450, 792.500 1450 C 794.300 1450.684, 795.767 1450.660, 797.144 1449.923 C 798.251 1449.331, 799.909 1449.173, 800.828 1449.572 C 801.748 1449.971, 803.288 1450.281, 804.250 1450.260 C 805.212 1450.239, 806.686 1450.172, 807.525 1450.111 C 808.363 1450.050, 809.477 1448.875, 810 1447.500 C 810.523 1446.125, 811.714 1445, 812.647 1445 C 813.579 1445, 815.088 1445.675, 815.999 1446.499 C 817.504 1447.861, 818.872 1446.761, 830.956 1434.470 C 843.723 1421.484, 844.188 1420.865, 842.549 1419.054 C 841.344 1417.722, 841.104 1416.627, 841.733 1415.333 C 842.225 1414.325, 842.465 1412.375, 842.268 1411 C 842.071 1409.625, 841.885 1407.825, 841.855 1407 C 841.824 1406.175, 841.986 1399.767, 842.215 1392.760 L 842.630 1380.020 839.853 1377.359 C 837.440 1375.048, 837.084 1373.961, 837.143 1369.099 C 837.180 1366.020, 837.179 1362.014, 837.140 1360.198 C 837.101 1358.382, 836.178 1355.232, 835.089 1353.198 C 833.999 1351.164, 832.859 1347.475, 832.554 1345 C 832.250 1342.525, 831.974 1335.306, 831.940 1328.958 L 831.880 1317.415 849.067 1300.165 L 866.254 1282.915 870.397 1283.537 L 874.539 1284.158 884.520 1273.995 L 894.500 1263.832 898.969 1264.427 L 903.438 1265.022 912.219 1256.282 C 917.049 1251.475, 921 1246.771, 921 1245.830 C 921 1244.888, 920.550 1243.840, 920 1243.500 C 919.450 1243.160, 919 1242.097, 919 1241.137 C 919 1240.178, 920.575 1237.866, 922.500 1236 C 924.425 1234.134, 926 1232.015, 926 1231.290 C 926 1230.566, 925.459 1229.107, 924.798 1228.048 C 923.890 1226.594, 923.874 1225.558, 924.732 1223.812 C 925.357 1222.540, 925.770 1218.688, 925.651 1215.251 C 925.440 1209.160, 925.302 1208.869, 920.177 1203.679 C 915.072 1198.510, 914.939 1198.232, 915.602 1194.090 L 916.284 1189.825 907.427 1180.927 C 900.480 1173.947, 898.833 1171.767, 899.785 1170.815 C 900.453 1170.147, 901 1168.662, 901 1167.516 C 901 1166.309, 898.660 1163.132, 895.438 1159.966 C 890.063 1154.684, 889.896 1154.360, 890.486 1150.339 C 891.022 1146.679, 890.729 1145.761, 888.048 1142.707 C 886.372 1140.798, 885 1138.534, 885 1137.677 C 885 1136.820, 885.362 1135.894, 885.805 1135.621 C 886.248 1135.347, 886.529 1131.768, 886.430 1127.668 C 886.330 1123.567, 885.924 1119.686, 885.527 1119.043 C 885.093 1118.342, 887.245 1115.332, 890.903 1111.522 C 895.428 1106.810, 896.833 1104.697, 896.346 1103.335 C 895.985 1102.326, 895.223 1100.900, 894.652 1100.166 C 893.855 1099.140, 899.569 1092.940, 919.307 1073.410 C 936.361 1056.537, 945 1047.297, 945 1045.929 C 945 1044.796, 944.521 1042.973, 943.935 1041.878 C 943.044 1040.213, 943.461 1039.233, 946.484 1035.886 C 949.306 1032.763, 949.934 1031.404, 949.348 1029.693 C 948.936 1028.487, 948.677 1026.375, 948.772 1025 C 948.868 1023.625, 948.899 1021.375, 948.843 1020 C 948.786 1018.625, 948.785 1016.375, 948.841 1015 C 948.897 1013.625, 948.979 1011.655, 949.024 1010.622 C 949.070 1009.552, 945.607 1005.161, 940.970 1000.410 C 936.496 995.826, 933.128 991.601, 933.487 991.021 C 933.845 990.441, 934.353 988.786, 934.614 987.343 C 935.033 985.031, 932.428 982.028, 912.721 962.110 L 890.352 939.500 890.591 934.500 C 890.793 930.301, 890.415 929.060, 888.234 926.755 C 886.094 924.494, 885.617 922.997, 885.530 918.255 C 885.436 913.102, 885.768 912.108, 888.712 908.747 C 890.521 906.683, 892 904.347, 892 903.556 C 892 902.765, 891.550 901.840, 891 901.500 C 890.450 901.160, 890 900.142, 890 899.239 C 890 898.335, 891.440 896.110, 893.200 894.294 C 896.310 891.085, 896.361 890.889, 895.050 887.262 L 893.701 883.532 902.351 875.501 C 909.061 869.270, 911 866.870, 911 864.794 C 911 863.322, 910.570 861.852, 910.044 861.527 C 909.518 861.202, 909.356 860.163, 909.683 859.218 C 910.011 858.273, 912.503 855.199, 915.221 852.386 C 920.018 847.422, 920.144 847.140, 919.495 842.816 C 918.863 838.602, 919.022 838.187, 922.413 835.210 C 924.386 833.478, 926 831.591, 926 831.017 C 926 830.443, 925.483 829.145, 924.851 828.133 C 923.986 826.748, 923.986 825.479, 924.851 822.999 C 925.696 820.574, 925.705 819.349, 924.885 818.361 C 924.206 817.543, 924.018 815.353, 924.404 812.759 L 925.038 808.500 906.545 790.036 L 888.053 771.573 884.097 772.629 L 880.142 773.684 871.843 765.342 C 867.279 760.754, 862.773 757, 861.831 757 C 860.889 757, 859.886 757.376, 859.601 757.836 C 859.317 758.296, 858.144 758.603, 856.994 758.518 C 855.822 758.432, 850.781 754.259, 845.523 749.023 L 836.144 739.683 836.501 729.961 C 836.851 720.451, 836.799 720.182, 834.108 717.603 C 831.629 715.228, 831.367 714.326, 831.471 708.504 C 831.571 702.895, 831.951 701.660, 834.345 699.162 C 835.862 697.579, 837.082 695.432, 837.056 694.392 C 837.030 693.351, 836.894 687.700, 836.754 681.833 C 836.614 675.966, 836.178 670.845, 835.785 670.452 C 835.392 670.059, 835.571 668.784, 836.184 667.619 C 836.796 666.453, 838.369 664.211, 839.680 662.636 C 841.307 660.681, 841.854 659.114, 841.404 657.698 C 841.042 656.558, 840.748 652.380, 840.750 648.415 C 840.752 644.451, 841.073 640.690, 841.463 640.059 C 841.853 639.429, 841.629 638.258, 840.964 637.457 C 840.019 636.318, 840.034 635.333, 841.034 632.918 L 842.311 629.834 826.406 613.853 C 817.658 605.063, 809.723 597.440, 808.773 596.913 C 807.604 596.264, 806.393 596.362, 805.023 597.218 C 803.431 598.212, 802.587 598.223, 801.062 597.271 C 799.597 596.356, 798.342 596.333, 795.915 597.179 C 793.549 598.004, 792.236 598.004, 790.915 597.179 C 789.636 596.380, 788.265 596.360, 786.115 597.110 C 784.170 597.788, 782.502 597.821, 781.398 597.203 C 780.312 596.595, 778.429 596.595, 776.225 597.204 C 773.075 598.073, 772.467 597.876, 769.527 595.026 C 766.768 592.352, 765.640 591.926, 761.838 592.123 C 759.387 592.250, 756.852 592.026, 756.204 591.626 C 755.557 591.226, 753.516 591.316, 751.669 591.826 C 749.640 592.386, 747.665 592.392, 746.681 591.841 C 745.723 591.305, 743.701 591.291, 741.776 591.807 C 738.864 592.587, 738.083 592.313, 734.747 589.342 C 732.683 587.504, 730.355 586, 729.574 586 C 728.793 586, 726.761 587.172, 725.059 588.604 C 722.904 590.417, 721.267 591.033, 719.667 590.631 C 718.404 590.314, 705.793 578.680, 691.644 564.777 C 677.495 550.875, 663.420 537.250, 660.367 534.500 C 657.314 531.750, 654.070 529.228, 653.158 528.895 C 652.246 528.563, 650.337 528.622, 648.916 529.028 C 647.495 529.433, 645.584 529.346, 644.669 528.835 C 643.629 528.252, 641.627 528.285, 639.320 528.922 C 636.741 529.634, 635.241 529.615, 634.329 528.858 C 633.612 528.263, 632.232 528.092, 631.263 528.477 C 630.293 528.863, 628.516 529.367, 627.314 529.597 C 626.112 529.828, 624.848 529.562, 624.505 529.008 C 624.162 528.454, 623.088 528, 622.117 528 C 621.146 528, 609.410 538.913, 596.038 552.250" stroke="none" fill="#c0ec0c" fill-rule="evenodd"/></svg>