<svg xmlns="http://www.w3.org/2000/svg" width="1301" height="2022" viewBox="0 0 1301 2022" version="1.1"><path d="M 493.773 559.405 C 493.521 560.727, 493.745 562.640, 494.272 563.655 C 494.799 564.670, 497.681 567.869, 500.676 570.764 C 503.671 573.659, 508.457 577.200, 511.311 578.633 C 514.165 580.065, 517.114 581.731, 517.864 582.335 C 518.614 582.939, 523.339 585.164, 528.364 587.279 C 533.389 589.394, 540.425 591.961, 544 592.984 C 547.575 594.006, 551.846 594.991, 553.491 595.171 C 555.282 595.368, 556.607 596.154, 556.791 597.129 C 557.031 598.391, 554.898 599.435, 547.300 601.776 C 541.910 603.436, 533.450 605.640, 528.500 606.674 C 523.363 607.746, 518.212 608.270, 516.500 607.895 C 514.850 607.533, 511.003 607.183, 507.950 607.118 C 504.810 607.051, 501.879 607.521, 501.200 608.200 C 500.540 608.860, 500 610.189, 500 611.153 C 500 612.156, 501.391 613.550, 503.250 614.409 C 505.038 615.236, 508.613 616.430, 511.196 617.062 C 514.637 617.903, 517.980 617.926, 523.696 617.146 C 527.988 616.561, 534.650 615.102, 538.500 613.903 C 542.350 612.705, 546.044 611.297, 546.709 610.774 C 547.374 610.251, 549.281 610.123, 550.948 610.488 C 552.614 610.854, 554.240 611.580, 554.562 612.101 C 554.884 612.621, 554.239 615.849, 553.130 619.274 C 552.020 622.698, 550.633 628.875, 550.047 633 C 549.461 637.125, 548.879 645.225, 548.754 651 C 548.555 660.159, 548.818 662.114, 550.813 666.305 C 552.071 668.948, 552.852 671.892, 552.548 672.848 C 552.226 673.864, 550.164 675.076, 547.587 675.765 C 544.011 676.722, 542.243 676.667, 538.231 675.476 C 535.012 674.520, 531.578 672.404, 528.393 669.413 C 525.702 666.886, 521.064 662.575, 518.086 659.833 C 515.109 657.091, 511.284 653.018, 509.586 650.781 C 507.889 648.544, 506.048 645.990, 505.494 645.107 C 504.941 644.223, 503.399 641.592, 502.066 639.261 C 500.734 636.929, 498.768 634.744, 497.697 634.404 C 496.552 634.040, 495.396 634.345, 494.890 635.143 C 494.418 635.889, 494.024 637.843, 494.015 639.484 C 494.007 641.124, 495.455 645.399, 497.234 648.984 C 499.012 652.568, 500.993 656.175, 501.637 657 C 502.280 657.825, 505.422 661.650, 508.619 665.500 C 511.816 669.350, 515.535 673.400, 516.883 674.500 C 518.231 675.600, 520.271 677.079, 521.417 677.788 C 523.289 678.945, 523.149 679.008, 520.031 678.410 C 518.123 678.044, 510.023 674.373, 502.031 670.252 C 494.039 666.131, 485.184 661.245, 482.353 659.394 C 479.522 657.544, 474.216 653.069, 470.561 649.450 C 466.452 645.381, 463.264 643.005, 462.208 643.224 C 461.067 643.461, 460.557 644.440, 460.672 646.174 C 460.767 647.601, 461.748 650.752, 462.853 653.176 C 463.957 655.600, 467.519 660.292, 470.769 663.603 C 474.019 666.914, 481.138 672.549, 486.589 676.125 C 492.040 679.702, 498.975 683.635, 502 684.867 C 505.025 686.099, 508.400 687.488, 509.500 687.953 C 510.600 688.418, 512.850 689.243, 514.500 689.787 C 516.150 690.331, 519.510 691.323, 521.967 691.993 C 526.036 693.102, 526.271 693.329, 524.605 694.547 C 523.599 695.282, 520.239 696.243, 517.138 696.681 C 514.037 697.120, 505.875 697.428, 499 697.366 C 489.574 697.282, 484.579 696.726, 478.689 695.106 C 474.393 693.924, 470.455 693.219, 469.939 693.538 C 469.423 693.857, 469 694.991, 469 696.059 C 469 697.127, 469.450 698, 470 698 C 470.550 698, 471.025 698.563, 471.055 699.250 C 471.086 699.938, 472.329 701.458, 473.819 702.630 C 475.308 703.801, 478.770 705.588, 481.513 706.601 C 485.684 708.141, 489.252 708.422, 503.315 708.323 C 512.563 708.257, 519.877 708.456, 519.568 708.765 C 519.259 709.074, 516.642 710.204, 513.753 711.275 C 510.864 712.347, 506.700 713.676, 504.500 714.230 C 502.300 714.783, 499.807 715.577, 498.960 715.995 C 498.113 716.413, 493.716 717.083, 489.188 717.483 C 482.730 718.055, 480.747 718.604, 479.982 720.034 C 479.446 721.035, 479.254 722.499, 479.557 723.287 C 479.859 724.074, 481.128 725.266, 482.376 725.934 C 483.625 726.602, 487.763 727.218, 491.573 727.303 C 495.845 727.398, 500.416 726.806, 503.500 725.759 C 506.250 724.825, 511.425 723.202, 515 722.153 C 518.575 721.104, 521.804 720.421, 522.176 720.636 C 522.547 720.850, 521.934 724.058, 520.812 727.763 C 519.464 732.217, 518.350 740.430, 517.527 752 C 516.842 761.625, 516.476 769.848, 516.714 770.273 C 516.952 770.698, 518.199 774.872, 519.486 779.549 C 520.772 784.226, 522.711 789.751, 523.794 791.828 C 525.405 794.919, 525.537 795.913, 524.521 797.302 C 523.838 798.236, 522.654 798.987, 521.890 798.972 C 521.125 798.956, 518.250 798.169, 515.500 797.222 C 512.750 796.275, 508.250 794.202, 505.500 792.616 C 502.750 791.029, 497.575 787.831, 494 785.508 C 490.425 783.186, 484.491 778.892, 480.813 775.966 C 477.134 773.041, 473.326 769.163, 472.348 767.349 C 471.371 765.534, 469.918 763.799, 469.119 763.492 C 468.320 763.185, 467.258 763.342, 466.760 763.840 C 466.219 764.381, 466.327 766.509, 467.027 769.123 C 467.723 771.722, 470.480 776.343, 473.814 780.500 C 476.903 784.350, 479.896 787.958, 480.465 788.517 C 481.034 789.077, 483.750 791.131, 486.500 793.082 C 489.250 795.033, 493.637 797.881, 496.250 799.410 C 498.863 800.939, 501 802.613, 501 803.129 C 501 803.676, 498.805 803.805, 495.750 803.438 C 492.863 803.092, 487.800 801.984, 484.500 800.978 C 481.200 799.971, 474.523 797.962, 469.663 796.514 C 464.802 795.066, 457.602 792.350, 453.663 790.479 C 449.723 788.608, 444.480 785.248, 442.010 783.012 C 439.541 780.775, 436.841 779.074, 436.010 779.231 C 435.180 779.389, 434.359 780.739, 434.186 782.233 C 434.013 783.727, 434.238 785.575, 434.686 786.339 C 435.134 787.104, 436.850 789.446, 438.500 791.544 C 440.150 793.642, 442.255 796.065, 443.178 796.929 C 444.101 797.793, 445.545 799.063, 446.386 799.750 C 447.227 800.438, 448.148 801, 448.431 801 C 448.715 801, 452.007 802.489, 455.748 804.310 C 459.488 806.130, 466.137 808.603, 470.524 809.805 C 474.911 811.007, 481.349 812.668, 484.831 813.495 C 488.313 814.323, 493.563 815, 496.499 815 C 499.435 815, 502.548 815.273, 503.418 815.607 C 504.288 815.941, 505 816.786, 505 817.486 C 505 818.185, 503.762 819.230, 502.250 819.808 C 500.738 820.387, 497.700 821.379, 495.500 822.014 C 493.300 822.649, 490.150 823.609, 488.500 824.148 C 486.850 824.687, 483.250 825.799, 480.500 826.621 C 477.750 827.442, 474.150 828.577, 472.500 829.143 C 470.850 829.709, 467.475 830.428, 465 830.741 C 462.525 831.053, 459.375 831.313, 458 831.318 C 456.625 831.323, 452.002 831.106, 447.726 830.836 C 440.183 830.360, 439.934 830.416, 439.352 832.733 C 438.924 834.440, 439.389 835.714, 440.983 837.198 C 442.209 838.341, 445.974 840.135, 449.348 841.186 C 454.301 842.727, 457.010 842.962, 463.396 842.405 C 467.748 842.025, 473.601 840.852, 476.404 839.797 C 479.207 838.742, 482.625 837.665, 484 837.404 C 485.375 837.144, 488.750 836.211, 491.500 835.333 C 494.250 834.454, 497.063 833.290, 497.750 832.745 C 498.438 832.201, 499 832.080, 499 832.476 C 499 832.873, 500.484 832.322, 502.298 831.252 C 504.604 829.891, 506.258 829.551, 507.798 830.121 C 509.009 830.569, 510 831.535, 510 832.268 C 510 833, 509.548 834.052, 508.996 834.604 C 508.444 835.156, 507.361 838.058, 506.589 841.054 C 505.817 844.049, 504.649 850.073, 503.995 854.441 C 503.341 858.809, 502.395 863.461, 501.893 864.780 C 501.392 866.099, 500.922 873.326, 500.848 880.839 C 500.738 892.104, 501.100 895.903, 502.913 902.500 C 504.121 906.900, 505.607 911.850, 506.215 913.500 C 506.823 915.150, 508.373 917.932, 509.660 919.683 C 510.947 921.434, 512 923.347, 512 923.933 C 512 924.520, 512.378 925, 512.839 925 C 513.301 925, 514.189 926.120, 514.813 927.488 C 515.436 928.857, 515.654 930.769, 515.296 931.738 C 514.938 932.707, 514.163 933.831, 513.573 934.235 C 512.983 934.639, 509.742 934.976, 506.372 934.985 C 503.002 934.993, 498.727 934.380, 496.872 933.622 C 495.017 932.865, 489.272 931.480, 484.105 930.546 C 478.938 929.611, 472.244 927.756, 469.231 926.423 C 466.217 925.090, 462.668 924, 461.344 924 C 460.020 924, 458.658 924.728, 458.317 925.617 C 457.904 926.692, 458.946 928.414, 461.419 930.747 C 463.466 932.679, 467.667 935.551, 470.754 937.130 C 473.841 938.708, 477.109 940, 478.016 940 C 478.924 940, 480.003 940.337, 480.415 940.750 C 480.827 941.163, 484.839 942.215, 489.332 943.088 C 495.253 944.239, 496.950 944.883, 495.500 945.429 C 494.400 945.843, 492.600 946.555, 491.500 947.012 C 490.400 947.468, 487.250 948.087, 484.500 948.387 C 481.750 948.686, 478.375 949.208, 477 949.546 C 475.625 949.883, 471.350 950.399, 467.500 950.691 C 463.074 951.027, 457.345 950.630, 451.922 949.611 C 447.204 948.725, 441.943 948, 440.231 948 C 438.519 948, 436.824 948.476, 436.465 949.057 C 436.106 949.638, 436.071 951.148, 436.389 952.413 C 436.793 954.022, 438.729 955.503, 442.842 957.349 C 446.826 959.136, 451.742 960.292, 458.109 960.936 C 463.274 961.459, 470.875 961.724, 475 961.525 C 479.125 961.327, 483.850 960.853, 485.500 960.472 C 487.150 960.092, 490.428 959.155, 492.785 958.390 C 495.142 957.626, 497.729 957, 498.535 957 C 499.341 957, 500 957.594, 500 958.320 C 500 959.046, 498.538 960.798, 496.750 962.212 C 494.962 963.627, 491.095 966.746, 488.156 969.142 C 485.217 971.539, 480.942 974.968, 478.656 976.762 C 476.370 978.555, 471.800 981.294, 468.500 982.848 C 465.200 984.402, 460.748 985.954, 458.607 986.297 C 456.465 986.640, 453.653 987.917, 452.357 989.135 C 451.060 990.352, 450 992.162, 450 993.155 C 450 994.277, 450.947 995.159, 452.500 995.481 C 453.875 995.766, 456.094 996.226, 457.431 996.502 C 458.767 996.778, 461.130 996.513, 462.681 995.913 C 464.231 995.313, 466.175 994.679, 467 994.504 C 467.825 994.329, 470.975 993.247, 474 992.099 C 477.025 990.951, 480.704 989.222, 482.177 988.256 C 483.649 987.290, 486.671 985.012, 488.893 983.192 L 492.933 979.885 493.557 982.370 C 493.900 983.737, 493.911 985.704, 493.582 986.741 C 493.253 987.778, 492.564 993.063, 492.051 998.487 C 491.486 1004.463, 491.472 1013.622, 492.016 1021.733 C 492.509 1029.095, 493.363 1036.554, 493.912 1038.309 C 494.461 1040.064, 495.648 1043.975, 496.549 1047 C 497.451 1050.025, 499.652 1055.650, 501.440 1059.500 C 503.229 1063.350, 506.544 1068.721, 508.807 1071.435 C 511.070 1074.149, 513.213 1077.692, 513.568 1079.309 C 513.923 1080.927, 513.795 1082.531, 513.284 1082.875 C 512.773 1083.219, 512.064 1084.287, 511.708 1085.250 C 511.353 1086.213, 510.256 1087, 509.270 1087 C 508.285 1087, 505.861 1085.538, 503.886 1083.750 C 501.910 1081.963, 498.161 1077.720, 495.555 1074.322 C 492.950 1070.924, 489.981 1066.649, 488.959 1064.822 C 487.937 1062.995, 485.676 1058.667, 483.935 1055.204 C 482.194 1051.742, 480.353 1047.242, 479.845 1045.204 C 479.337 1043.167, 478.771 1041.050, 478.588 1040.500 C 478.405 1039.950, 477.909 1037.999, 477.485 1036.164 C 477.062 1034.329, 476.040 1032.569, 475.213 1032.252 C 474.365 1031.926, 473.092 1032.508, 472.291 1033.588 C 471.346 1034.861, 471.012 1037.169, 471.293 1040.500 C 471.525 1043.250, 473.146 1050.387, 474.896 1056.359 C 476.646 1062.332, 479.247 1069.532, 480.678 1072.359 C 482.108 1075.187, 485.209 1080.012, 487.568 1083.081 C 489.927 1086.151, 494.461 1090.967, 497.643 1093.784 C 500.825 1096.600, 503.190 1099.144, 502.898 1099.435 C 502.606 1099.727, 500.825 1099.523, 498.940 1098.983 C 497.055 1098.442, 494.110 1098, 492.394 1098 C 490.679 1098, 484.826 1096.597, 479.388 1094.881 C 473.950 1093.166, 465.194 1089.572, 459.932 1086.895 C 454.669 1084.218, 448.369 1080.172, 445.932 1077.903 C 442.961 1075.138, 440.511 1073.732, 438.500 1073.639 C 435.947 1073.521, 435.454 1073.900, 435.190 1076.184 C 435.019 1077.660, 435.540 1080.144, 436.347 1081.704 C 437.154 1083.265, 439.011 1085.738, 440.473 1087.201 C 441.936 1088.663, 448.831 1093.299, 455.796 1097.502 C 462.760 1101.706, 470.943 1105.826, 473.979 1106.659 C 477.016 1107.492, 481.075 1108.574, 483 1109.063 C 484.925 1109.552, 488.582 1109.963, 491.128 1109.976 C 493.928 1109.991, 496.231 1110.573, 496.960 1111.452 C 497.623 1112.251, 497.908 1113.714, 497.594 1114.704 C 497.280 1115.694, 495.330 1117.073, 493.261 1117.769 C 491.193 1118.465, 488.024 1119.208, 486.219 1119.421 C 484.414 1119.633, 482.381 1120.268, 481.701 1120.833 C 481.021 1121.397, 475.732 1122.391, 469.948 1123.042 C 460.728 1124.080, 458.831 1124.022, 454.562 1122.573 C 451.885 1121.664, 447.833 1120.665, 445.558 1120.353 C 442.516 1119.936, 441.082 1120.196, 440.134 1121.338 C 439.426 1122.192, 438.994 1123.893, 439.173 1125.119 C 439.353 1126.346, 440.850 1128.165, 442.500 1129.163 C 444.150 1130.161, 445.950 1131.155, 446.500 1131.371 C 447.050 1131.587, 449.337 1132.314, 451.582 1132.987 C 454.307 1133.803, 459.687 1134.037, 467.775 1133.690 C 474.436 1133.404, 481.487 1132.682, 483.443 1132.085 C 485.399 1131.488, 488.494 1130.550, 490.321 1130 C 492.148 1129.450, 495.046 1129, 496.762 1129 C 498.478 1129, 500.095 1129.345, 500.356 1129.766 C 500.616 1130.188, 500.421 1132.715, 499.923 1135.382 C 499.358 1138.409, 499.405 1143.854, 500.049 1149.866 C 500.616 1155.165, 501.969 1162.438, 503.055 1166.029 C 504.141 1169.620, 505.201 1173.447, 505.410 1174.533 C 505.619 1175.619, 506.309 1178.433, 506.942 1180.786 C 507.576 1183.139, 509.491 1188.088, 511.197 1191.782 C 512.904 1195.477, 516.124 1201.425, 518.353 1205 C 520.583 1208.575, 522.990 1211.860, 523.703 1212.300 C 524.417 1212.740, 525 1213.916, 525 1214.915 C 525 1215.913, 524.169 1217.803, 523.152 1219.115 C 522.136 1220.427, 521.017 1222.681, 520.665 1224.124 C 520.313 1225.567, 519.168 1227.806, 518.119 1229.101 L 516.213 1231.455 503.340 1218.477 C 493.802 1208.863, 489.621 1203.844, 487.206 1199.111 C 485.413 1195.596, 484.165 1192.502, 484.433 1192.234 C 484.701 1191.966, 484.252 1190.453, 483.434 1188.873 C 482.617 1187.293, 481.294 1186, 480.493 1186 C 479.693 1186, 478.777 1187.237, 478.459 1188.750 C 478.140 1190.263, 477.716 1192.318, 477.516 1193.318 C 477.315 1194.318, 477.605 1196.568, 478.158 1198.318 C 478.712 1200.068, 479.540 1202.400, 479.999 1203.500 C 480.457 1204.600, 481.430 1206.963, 482.160 1208.750 C 482.891 1210.537, 483.780 1212, 484.136 1212 C 484.492 1212, 485.040 1213.025, 485.355 1214.278 C 485.669 1215.531, 490.295 1220.771, 495.633 1225.921 L 505.339 1235.286 501.481 1234.562 C 499.359 1234.164, 492.196 1231.025, 485.562 1227.587 C 478.928 1224.148, 470.800 1219.488, 467.500 1217.232 C 464.200 1214.976, 458.809 1210.626, 455.520 1207.565 C 452.232 1204.504, 449.024 1202, 448.393 1202 C 447.761 1202, 446.690 1202.669, 446.011 1203.487 C 445.259 1204.393, 445.044 1206.041, 445.462 1207.703 C 445.838 1209.204, 447.652 1212.472, 449.493 1214.966 C 451.334 1217.460, 454.338 1220.897, 456.170 1222.605 C 458.001 1224.313, 461.750 1227.208, 464.500 1229.039 C 467.250 1230.870, 469.742 1232.720, 470.038 1233.151 C 470.335 1233.581, 472.810 1235.140, 475.538 1236.614 C 478.267 1238.088, 481.625 1239.900, 483 1240.641 C 484.375 1241.382, 485.978 1241.990, 486.562 1241.994 C 487.146 1241.997, 489.487 1242.900, 491.764 1244 C 494.041 1245.100, 496.773 1246, 497.837 1246 C 498.900 1246, 502.185 1246.750, 505.135 1247.668 C 508.086 1248.585, 510.897 1249.679, 511.382 1250.099 C 511.866 1250.519, 510.741 1251.496, 508.882 1252.270 C 507.022 1253.043, 503.475 1254.021, 501 1254.442 C 498.525 1254.863, 494.475 1255.391, 492 1255.615 C 489.525 1255.839, 487.015 1256.198, 486.422 1256.414 C 485.829 1256.629, 481.332 1256.364, 476.428 1255.826 C 471.525 1255.287, 465.321 1253.903, 462.642 1252.750 C 459.070 1251.214, 457.334 1250.928, 456.135 1251.680 C 455.236 1252.243, 454.356 1253.671, 454.180 1254.852 C 454.005 1256.033, 454.312 1257, 454.863 1257 C 455.414 1257, 456.131 1257.836, 456.455 1258.858 C 456.779 1259.880, 458.722 1261.413, 460.772 1262.265 C 462.823 1263.117, 468.100 1264.453, 472.500 1265.233 C 477.945 1266.199, 483.055 1266.424, 488.500 1265.938 C 492.900 1265.545, 497.962 1264.892, 499.750 1264.487 C 501.928 1263.993, 503 1264.121, 503 1264.875 C 503 1265.494, 502.306 1266, 501.458 1266 C 500.610 1266, 499.055 1266.802, 498.002 1267.783 C 496.950 1268.764, 494.381 1270.166, 492.294 1270.898 C 490.207 1271.631, 487.068 1272.890, 485.319 1273.696 C 483.084 1274.726, 479.958 1275.029, 474.819 1274.712 C 470.793 1274.464, 466.600 1274.090, 465.500 1273.881 C 463.942 1273.584, 463.430 1274.112, 463.181 1276.272 C 462.908 1278.649, 463.407 1279.282, 466.681 1280.708 C 469.278 1281.839, 472.867 1282.316, 477.893 1282.199 C 481.959 1282.104, 486.909 1281.511, 488.893 1280.882 C 490.877 1280.252, 494.300 1279.069, 496.500 1278.253 C 498.700 1277.436, 503.353 1275.446, 506.839 1273.830 C 510.325 1272.215, 513.691 1271.064, 514.318 1271.273 C 514.946 1271.482, 515.976 1274.769, 516.608 1278.576 C 517.240 1282.384, 518.279 1288.200, 518.917 1291.500 C 519.554 1294.800, 520.455 1298.400, 520.918 1299.500 C 521.382 1300.600, 522.602 1303.516, 523.630 1305.980 C 524.659 1308.443, 525.364 1310.877, 525.197 1311.388 C 525.031 1311.899, 525.260 1312.583, 525.707 1312.908 C 526.154 1313.234, 527.415 1315.253, 528.510 1317.395 C 529.604 1319.537, 531.962 1322.862, 533.750 1324.785 C 535.538 1326.707, 537 1328.502, 537 1328.773 C 537 1329.044, 538.013 1330.145, 539.250 1331.221 C 540.487 1332.296, 542.737 1333.909, 544.250 1334.804 C 546.238 1335.980, 547 1337.230, 547 1339.314 C 547 1340.900, 546.274 1343.728, 545.386 1345.599 C 544.498 1347.469, 543.551 1349, 543.281 1349 C 543.011 1349, 540.527 1347.863, 537.761 1346.474 C 534.994 1345.084, 529.754 1342.313, 526.115 1340.315 C 522.477 1338.318, 516.800 1334.396, 513.500 1331.600 C 510.200 1328.804, 506.916 1326.063, 506.203 1325.508 C 505.490 1324.954, 503.826 1323.406, 502.507 1322.068 C 501.187 1320.730, 500.326 1319.281, 500.594 1318.847 C 500.862 1318.414, 499.964 1317.778, 498.598 1317.435 C 497.231 1317.092, 495.638 1317.106, 495.057 1317.465 C 494.476 1317.824, 494 1318.712, 494 1319.438 C 494 1320.164, 495.193 1323.400, 496.650 1326.629 C 498.518 1330.766, 501.584 1334.742, 507.032 1340.088 C 512.312 1345.271, 516.890 1348.703, 521.473 1350.913 C 525.164 1352.693, 528.016 1354.318, 527.810 1354.523 C 527.605 1354.729, 524.076 1354.447, 519.968 1353.896 C 515.861 1353.346, 510.700 1352.282, 508.500 1351.531 C 506.300 1350.779, 501.125 1349.422, 497 1348.514 C 492.875 1347.606, 487.164 1345.787, 484.309 1344.472 C 481.455 1343.158, 478.142 1341.276, 476.948 1340.291 C 475.754 1339.306, 474.240 1338.050, 473.585 1337.500 C 472.929 1336.950, 470.997 1335.219, 469.290 1333.653 C 467.056 1331.602, 465.602 1330.992, 464.094 1331.470 C 462.809 1331.878, 462.001 1332.978, 462.004 1334.317 C 462.006 1335.518, 462.962 1338.075, 464.129 1340 C 465.295 1341.925, 468.266 1345.412, 470.730 1347.750 C 473.194 1350.088, 475.800 1352, 476.522 1352 C 477.243 1352, 477.983 1352.344, 478.167 1352.764 C 478.350 1353.184, 482.550 1355.495, 487.500 1357.900 C 494.229 1361.169, 499.528 1362.859, 508.500 1364.598 C 515.100 1365.877, 522.376 1366.941, 524.668 1366.962 C 526.961 1366.983, 529.548 1367.273, 530.418 1367.607 C 531.288 1367.941, 532 1368.548, 532 1368.957 C 532 1369.366, 529.187 1370.864, 525.750 1372.287 C 522.313 1373.710, 515 1376.291, 509.500 1378.021 C 504 1379.752, 495.998 1381.786, 491.717 1382.543 C 487.436 1383.299, 479.786 1383.824, 474.717 1383.709 C 466.179 1383.515, 465.479 1383.647, 465.217 1385.500 C 465 1387.031, 466.061 1388.015, 469.737 1389.694 C 472.379 1390.901, 476.730 1392.379, 479.407 1392.979 C 482.179 1393.600, 487.549 1393.804, 491.886 1393.452 C 496.074 1393.112, 500.625 1392.720, 502 1392.581 C 503.375 1392.441, 505.175 1392.041, 506 1391.692 C 506.825 1391.342, 511.325 1389.650, 516 1387.931 C 520.675 1386.211, 524.950 1384.726, 525.500 1384.629 C 526.050 1384.532, 528.075 1383.858, 530 1383.130 C 531.925 1382.403, 535.182 1381.063, 537.239 1380.154 C 539.295 1379.244, 540.982 1378.162, 540.989 1377.750 C 540.995 1377.338, 542.109 1377, 543.465 1377 C 544.878 1377, 546.371 1377.825, 546.965 1378.934 C 547.534 1379.998, 548.007 1382.361, 548.016 1384.184 C 548.024 1386.008, 548.699 1390.088, 549.516 1393.250 C 550.332 1396.412, 551.620 1401.414, 552.378 1404.364 C 553.136 1407.314, 554.978 1411.813, 556.472 1414.361 C 557.965 1416.910, 561.275 1420.832, 563.827 1423.079 C 566.379 1425.325, 569.259 1428.364, 570.227 1429.832 C 571.195 1431.299, 571.990 1433.992, 571.993 1435.816 C 571.997 1437.639, 571.537 1439.997, 570.970 1441.055 C 570.404 1442.114, 568.626 1443.659, 567.020 1444.490 C 565.168 1445.447, 561.324 1446, 556.518 1446 C 551.838 1446, 546.749 1445.287, 543.218 1444.138 C 540.073 1443.114, 535.250 1441.694, 532.500 1440.983 C 529.750 1440.271, 527.050 1439.369, 526.500 1438.978 C 525.950 1438.586, 522.841 1437.286, 519.590 1436.087 C 516.340 1434.889, 513.077 1434.140, 512.340 1434.423 C 511.603 1434.706, 511 1435.830, 511 1436.920 C 511 1438.011, 512.649 1440.505, 514.664 1442.462 C 516.692 1444.432, 520.373 1446.634, 522.914 1447.396 C 525.436 1448.153, 529.997 1449.884, 533.050 1451.243 C 536.102 1452.601, 540.743 1454.034, 543.363 1454.427 C 546.880 1454.955, 547.869 1455.453, 547.141 1456.330 C 546.599 1456.983, 544.208 1458.039, 541.828 1458.677 C 539.448 1459.314, 535.475 1460.326, 533 1460.924 C 530.525 1461.523, 527.600 1461.977, 526.500 1461.932 C 525.400 1461.888, 522.022 1462.162, 518.993 1462.541 C 515.757 1462.946, 510.397 1462.707, 505.993 1461.962 C 501.872 1461.265, 497.150 1460.651, 495.500 1460.597 C 492.972 1460.515, 492.500 1460.878, 492.500 1462.902 C 492.500 1464.677, 493.507 1465.827, 496.358 1467.306 C 498.480 1468.407, 502.080 1469.751, 504.358 1470.292 C 506.636 1470.833, 512.976 1471.470, 518.446 1471.708 C 525.466 1472.014, 530.615 1471.649, 535.946 1470.469 C 540.101 1469.549, 544.805 1468.392, 546.399 1467.898 C 547.994 1467.404, 550.806 1467, 552.649 1467 C 554.492 1467, 556 1467.248, 556 1467.552 C 556 1467.856, 552.063 1471.953, 547.250 1476.656 C 542.438 1481.359, 535.469 1487.222, 531.764 1489.685 C 528.059 1492.147, 522.659 1495.040, 519.764 1496.113 C 516.869 1497.185, 513.150 1497.970, 511.500 1497.855 C 509.850 1497.741, 507.488 1497.982, 506.250 1498.391 C 505.013 1498.800, 504 1499.936, 504 1500.916 C 504 1502.013, 505.439 1503.329, 507.750 1504.347 C 509.813 1505.255, 512.850 1506.079, 514.500 1506.179 C 516.150 1506.279, 520.200 1505.344, 523.500 1504.102 C 526.800 1502.860, 531.300 1500.875, 533.500 1499.691 C 535.700 1498.507, 539.748 1495.801, 542.496 1493.678 C 545.243 1491.554, 552.125 1485.380, 557.789 1479.956 C 563.453 1474.533, 568.652 1470.313, 569.343 1470.578 C 570.034 1470.843, 571.102 1473.455, 571.716 1476.382 C 572.330 1479.309, 574.422 1485.053, 576.365 1489.148 C 578.938 1494.570, 582.016 1498.783, 587.699 1504.658 C 593.148 1510.291, 597.227 1513.524, 601.228 1515.380 C 604.378 1516.842, 608.935 1519.373, 611.355 1521.007 C 613.774 1522.640, 616.589 1525.219, 617.610 1526.738 C 618.630 1528.257, 619.956 1530.400, 620.555 1531.500 C 621.155 1532.600, 622.157 1534.400, 622.783 1535.500 C 623.409 1536.600, 625.687 1541.100, 627.846 1545.500 C 630.004 1549.900, 632.467 1554.805, 633.319 1556.400 C 634.172 1557.996, 635.461 1559.676, 636.184 1560.135 C 636.908 1560.594, 638.860 1560.976, 640.522 1560.985 C 642.443 1560.994, 644.916 1559.869, 647.310 1557.896 C 649.382 1556.188, 652.342 1552.251, 653.889 1549.146 C 655.435 1546.041, 657.217 1541.392, 657.848 1538.815 C 658.479 1536.239, 660.347 1531.669, 661.998 1528.661 C 663.649 1525.652, 665 1522.908, 665 1522.563 C 665 1522.218, 663.987 1521.557, 662.750 1521.095 C 661.472 1520.618, 659.420 1520.664, 658 1521.203 C 656.625 1521.724, 654.375 1522.323, 653 1522.534 C 651.625 1522.745, 648.837 1523.216, 646.804 1523.581 C 644.772 1523.945, 640.609 1523.932, 637.554 1523.550 C 634.499 1523.168, 632 1522.501, 632 1522.066 C 632 1521.631, 635.487 1520.969, 639.750 1520.595 C 644.013 1520.220, 650.425 1519.436, 654 1518.851 C 657.575 1518.267, 661.400 1517.440, 662.500 1517.014 C 663.600 1516.588, 666.411 1515.443, 668.746 1514.470 C 671.081 1513.497, 674.118 1511.223, 675.496 1509.417 C 676.873 1507.611, 678 1505.898, 678 1505.611 C 678 1505.324, 679.092 1503.480, 680.426 1501.513 C 681.761 1499.547, 683.806 1494.857, 684.972 1491.092 C 686.137 1487.326, 687.970 1482.520, 689.045 1480.411 C 690.120 1478.302, 691 1475.614, 691 1474.438 C 691 1473.261, 691.494 1470.881, 692.098 1469.149 C 692.702 1467.417, 693.787 1466, 694.510 1466 C 695.233 1466, 697.776 1468.821, 700.162 1472.268 C 702.548 1475.715, 705.064 1479.428, 705.752 1480.518 C 706.441 1481.608, 707.465 1483.571, 708.027 1484.881 C 708.590 1486.190, 709.902 1488.458, 710.944 1489.922 C 711.986 1491.385, 713.821 1495.623, 715.022 1499.340 C 716.287 1503.257, 717.688 1505.938, 718.353 1505.717 C 718.984 1505.508, 719.911 1504.174, 720.413 1502.753 C 721.091 1500.835, 720.734 1498.407, 719.027 1493.334 C 717.761 1489.575, 715.654 1484.250, 714.343 1481.500 C 713.033 1478.750, 711.407 1475.600, 710.730 1474.500 C 710.054 1473.400, 708.007 1470.588, 706.183 1468.250 C 704.359 1465.912, 703.359 1464, 703.962 1464 C 704.564 1464, 707.705 1465.336, 710.941 1466.970 C 714.176 1468.603, 719.515 1472.180, 722.804 1474.917 C 726.094 1477.654, 731.533 1483.586, 734.892 1488.098 C 738.252 1492.610, 741 1496.927, 741 1497.691 C 741 1498.455, 741.909 1500.862, 743.020 1503.040 C 744.132 1505.218, 745.691 1507, 746.485 1507 C 747.280 1507, 748.395 1506.130, 748.965 1505.066 C 749.534 1504.002, 749.985 1502.089, 749.967 1500.816 C 749.949 1499.542, 749.139 1496.250, 748.166 1493.500 C 747.193 1490.750, 744.197 1485.575, 741.509 1482 C 738.820 1478.425, 733.746 1473.025, 730.232 1470 C 726.718 1466.975, 723.002 1463.717, 721.975 1462.761 C 720.948 1461.805, 716.666 1458.933, 712.459 1456.379 C 706.972 1453.047, 705.190 1451.494, 706.155 1450.881 C 706.895 1450.412, 711.775 1450.269, 717 1450.564 C 722.225 1450.859, 728.975 1451.856, 732 1452.780 C 735.025 1453.703, 739.300 1455.472, 741.500 1456.709 C 743.700 1457.947, 748.724 1460.631, 752.665 1462.673 C 758.741 1465.822, 760.070 1466.187, 761.415 1465.071 C 762.287 1464.347, 763 1463.058, 763 1462.206 C 763 1461.354, 760.910 1458.655, 758.356 1456.207 C 755.801 1453.760, 751.189 1450.651, 748.106 1449.299 C 745.023 1447.947, 741.600 1446.482, 740.500 1446.045 C 739.400 1445.607, 737.171 1444.711, 735.546 1444.053 C 733.922 1443.395, 729.197 1442.441, 725.046 1441.933 C 720.896 1441.425, 712.193 1440.487, 705.707 1439.848 C 694.634 1438.757, 693.768 1438.513, 691.522 1435.843 C 690.154 1434.218, 688.132 1433, 686.800 1433 C 685.520 1433, 682.003 1433.929, 678.986 1435.064 C 675.969 1436.199, 670.856 1437.999, 667.625 1439.062 C 664.394 1440.126, 658.994 1441.496, 655.625 1442.106 C 652.256 1442.716, 648.600 1443.322, 647.500 1443.451 C 646.400 1443.581, 643.250 1443.989, 640.500 1444.359 C 637.750 1444.729, 630.775 1445.248, 625 1445.512 C 619.225 1445.776, 610.945 1445.514, 606.600 1444.928 C 602.254 1444.343, 596.970 1443.171, 594.856 1442.326 C 592.742 1441.480, 591.230 1440.437, 591.496 1440.007 C 591.761 1439.578, 593.896 1439.904, 596.239 1440.733 C 599.385 1441.845, 604.947 1442.243, 617.500 1442.256 C 629.737 1442.269, 636.835 1441.792, 642.834 1440.554 C 647.417 1439.608, 651.385 1439.052, 651.651 1439.318 C 651.917 1439.584, 653.791 1439.344, 655.814 1438.786 C 657.838 1438.227, 660.395 1437.636, 661.497 1437.472 C 662.599 1437.308, 667.550 1435.755, 672.500 1434.020 C 677.450 1432.285, 683.147 1430.513, 685.160 1430.083 C 687.173 1429.653, 691.425 1427.943, 694.608 1426.282 C 699.197 1423.887, 700.986 1422.217, 703.250 1418.209 C 705.259 1414.654, 706.337 1410.985, 706.888 1405.834 C 707.318 1401.807, 707.312 1392.434, 706.875 1385.006 C 706.438 1377.578, 706.318 1370.713, 706.608 1369.750 C 706.904 1368.768, 708.092 1368.010, 709.317 1368.022 C 710.518 1368.034, 712.451 1368.822, 713.614 1369.772 C 714.776 1370.723, 718.436 1375.100, 721.747 1379.500 C 725.057 1383.900, 728.783 1389.300, 730.025 1391.500 C 731.268 1393.700, 733.587 1397.975, 735.178 1401 C 736.770 1404.025, 738.354 1408.525, 738.699 1411 C 739.044 1413.475, 739.934 1416.963, 740.677 1418.750 C 741.419 1420.537, 742.455 1422, 742.978 1422 C 743.502 1422, 744.368 1421.181, 744.903 1420.181 C 745.439 1419.180, 745.949 1416.142, 746.036 1413.431 C 746.124 1410.719, 745.771 1406.912, 745.253 1404.971 C 744.734 1403.029, 743.036 1398.529, 741.480 1394.971 C 739.923 1391.412, 737.935 1387.600, 737.061 1386.500 C 736.188 1385.400, 734.620 1382.958, 733.576 1381.074 C 732.533 1379.190, 731.087 1376.940, 730.364 1376.074 C 729.641 1375.208, 727.800 1372.853, 726.274 1370.841 C 724.748 1368.828, 721.148 1364.504, 718.274 1361.233 C 715.400 1357.961, 713.338 1354.996, 713.691 1354.642 C 714.044 1354.289, 715.355 1354, 716.603 1354 C 717.851 1354, 724.414 1355.333, 731.186 1356.962 C 737.959 1358.591, 745.949 1360.872, 748.943 1362.031 C 751.936 1363.190, 755.538 1364.895, 756.947 1365.819 C 758.356 1366.744, 760.407 1368.044, 761.504 1368.709 C 762.602 1369.375, 766.244 1371.496, 769.597 1373.423 C 772.951 1375.350, 776.268 1377.618, 776.970 1378.464 C 777.671 1379.309, 778.817 1380, 779.515 1380 C 780.214 1380, 781.055 1379.300, 781.383 1378.444 C 781.711 1377.588, 781.371 1375.430, 780.626 1373.647 C 779.881 1371.865, 777.748 1369.159, 775.886 1367.634 C 774.024 1366.109, 771.825 1364.329, 771 1363.678 C 770.175 1363.027, 766.772 1360.878, 763.437 1358.902 C 760.103 1356.925, 755.153 1354.486, 752.437 1353.482 C 749.722 1352.477, 746.998 1351.278, 746.384 1350.817 C 745.770 1350.355, 741.945 1349.067, 737.884 1347.954 C 733.823 1346.840, 728.700 1345.515, 726.500 1345.008 C 724.300 1344.502, 720.614 1344.068, 718.309 1344.044 C 716.004 1344.020, 713.839 1343.548, 713.498 1342.996 C 713.156 1342.444, 715.807 1340.636, 719.387 1338.979 C 722.968 1337.322, 726.258 1336.045, 726.699 1336.142 C 727.139 1336.238, 728.175 1336.026, 729 1335.669 C 729.825 1335.313, 733.027 1334.196, 736.116 1333.189 C 740.580 1331.733, 744.479 1331.395, 755.116 1331.542 C 762.477 1331.644, 769.625 1332.181, 771 1332.736 C 772.457 1333.324, 774.438 1333.394, 775.750 1332.905 C 776.987 1332.443, 778 1331.519, 778 1330.853 C 778 1330.187, 776.445 1328.217, 774.544 1326.476 C 771.888 1324.044, 769.601 1323.064, 764.672 1322.247 C 760.513 1321.558, 754.499 1321.485, 747.573 1322.039 C 741.696 1322.510, 736.270 1322.657, 735.514 1322.367 C 734.758 1322.077, 732.646 1322.527, 730.820 1323.366 C 728.994 1324.206, 724.800 1325.626, 721.500 1326.523 C 718.200 1327.420, 713.776 1328.515, 711.670 1328.957 C 709.563 1329.399, 707.335 1330.265, 706.720 1330.880 C 706.104 1331.496, 703.975 1332, 701.990 1332 C 699.918 1332, 695.423 1333.444, 691.440 1335.390 C 687.623 1337.254, 682.475 1339.682, 680 1340.786 C 677.525 1341.889, 672.350 1343.794, 668.500 1345.019 C 664.650 1346.244, 659.700 1347.616, 657.500 1348.068 C 655.300 1348.521, 651.475 1349.359, 649 1349.933 C 646.525 1350.506, 639.325 1351.318, 633 1351.737 C 626.675 1352.157, 611.825 1352.475, 600 1352.443 C 582.083 1352.396, 577.617 1352.088, 573.199 1350.596 C 570.206 1349.585, 568.068 1348.304, 568.289 1347.653 C 568.526 1346.954, 570.614 1346.577, 573.590 1346.696 C 576.290 1346.804, 583.450 1347.362, 589.500 1347.936 C 595.550 1348.511, 606.125 1348.761, 613 1348.492 C 619.875 1348.224, 630.450 1347.338, 636.500 1346.524 C 642.550 1345.709, 649.975 1344.633, 653 1344.131 C 656.025 1343.629, 659.625 1342.954, 661 1342.630 C 662.375 1342.306, 664.625 1341.535, 666 1340.916 C 667.375 1340.296, 669.850 1339.210, 671.500 1338.502 C 673.150 1337.793, 678.550 1335.558, 683.500 1333.533 C 688.450 1331.509, 694.075 1329.155, 696 1328.302 C 697.925 1327.449, 700.541 1325.803, 701.812 1324.643 C 703.084 1323.483, 704.959 1321.176, 705.979 1319.517 C 706.998 1317.858, 708.582 1312.900, 709.498 1308.500 C 710.516 1303.607, 711.130 1296.228, 711.077 1289.500 C 711.030 1283.450, 710.777 1272.875, 710.516 1266 C 710.254 1259.125, 709.795 1251.025, 709.496 1248 C 709.196 1244.975, 709.350 1241.899, 709.837 1241.166 C 710.542 1240.103, 712.020 1240.486, 717.100 1243.051 C 721.516 1245.280, 726.097 1248.935, 731.989 1254.932 C 736.670 1259.696, 742.283 1265.727, 744.461 1268.334 C 746.640 1270.941, 749.677 1275.634, 751.211 1278.762 C 752.745 1281.890, 754.014 1284.911, 754.032 1285.475 C 754.049 1286.039, 754.752 1287.400, 755.594 1288.500 L 757.124 1290.500 758.640 1288.500 C 759.661 1287.153, 759.991 1285.193, 759.650 1282.500 C 759.372 1280.300, 758.912 1277.487, 758.629 1276.249 C 758.346 1275.010, 756.625 1271.354, 754.804 1268.123 C 752.983 1264.892, 749.695 1260.100, 747.497 1257.474 C 745.299 1254.848, 742.176 1251.530, 740.557 1250.100 C 738.939 1248.670, 736.014 1246.027, 734.057 1244.226 L 730.500 1240.953 733.500 1241.535 C 735.150 1241.855, 738.975 1242.836, 742 1243.716 C 745.025 1244.595, 750.425 1246.830, 754 1248.684 C 757.575 1250.537, 761.541 1252.800, 762.813 1253.714 C 764.086 1254.628, 765.948 1256.078, 766.952 1256.938 C 767.956 1257.797, 770.723 1260.075, 773.101 1262 C 775.478 1263.925, 780.538 1268.500, 784.344 1272.168 C 788.349 1276.027, 791.841 1278.614, 792.633 1278.311 C 793.385 1278.022, 793.997 1277.047, 793.994 1276.143 C 793.991 1275.239, 793.547 1272.925, 793.007 1271 C 792.467 1269.075, 790.867 1266.150, 789.453 1264.500 C 788.039 1262.850, 786.083 1260.600, 785.107 1259.500 C 784.131 1258.400, 781.431 1255.925, 779.108 1254 C 776.785 1252.075, 771.198 1248.164, 766.692 1245.308 C 762.186 1242.452, 754.675 1238.251, 750 1235.971 C 745.325 1233.692, 740.248 1231.157, 738.718 1230.338 C 737.188 1229.519, 733.475 1228.595, 730.468 1228.285 C 727.460 1227.974, 725 1227.409, 725 1227.029 C 725 1226.649, 726.013 1225.818, 727.250 1225.182 C 728.487 1224.546, 732.200 1223.316, 735.500 1222.449 C 739.206 1221.475, 745.440 1220.895, 751.804 1220.931 C 759.874 1220.978, 763.234 1221.447, 767.304 1223.099 C 770.162 1224.258, 773.439 1225.647, 774.588 1226.185 C 775.736 1226.724, 777.982 1227.015, 779.579 1226.832 C 781.425 1226.621, 782.608 1225.839, 782.827 1224.684 C 783.030 1223.615, 781.761 1221.499, 779.737 1219.533 C 777.552 1217.411, 774.155 1215.570, 770.401 1214.474 C 767.156 1213.526, 763.515 1212.295, 762.310 1211.738 C 760.992 1211.129, 755.544 1210.953, 748.621 1211.295 C 742.297 1211.608, 736.254 1212.329, 735.193 1212.897 C 734.131 1213.465, 732.987 1213.653, 732.649 1213.316 C 732.311 1212.978, 734.164 1211.658, 736.767 1210.382 C 739.370 1209.106, 743.075 1207.794, 745 1207.467 C 746.925 1207.140, 749.625 1206.401, 751 1205.825 C 752.375 1205.249, 756.425 1204.592, 760 1204.366 C 763.575 1204.140, 767.962 1203.720, 769.750 1203.432 C 772.338 1203.016, 773 1202.434, 773 1200.577 C 773 1199.294, 772.430 1197.772, 771.733 1197.193 C 771.035 1196.614, 767.098 1196.020, 762.983 1195.872 C 758.867 1195.724, 753.489 1195.926, 751.032 1196.320 C 748.574 1196.714, 746.122 1197.478, 745.582 1198.018 C 745.042 1198.558, 743.671 1199, 742.536 1199 C 741.401 1199, 738.003 1199.934, 734.986 1201.075 C 731.969 1202.216, 728.375 1203.506, 727 1203.942 C 725.625 1204.377, 722.700 1205.738, 720.500 1206.967 C 718.300 1208.195, 715.150 1210.222, 713.500 1211.472 C 711.850 1212.721, 709.342 1214.908, 707.926 1216.332 C 705.596 1218.675, 705.020 1218.819, 701.856 1217.848 C 698.888 1216.937, 697.768 1217.098, 694.430 1218.913 C 692.269 1220.089, 688.925 1221.996, 687 1223.151 C 685.075 1224.306, 679.900 1226.582, 675.500 1228.209 C 671.100 1229.836, 666.938 1231.204, 666.250 1231.250 C 665.563 1231.296, 665 1231.652, 665 1232.042 C 665 1232.431, 663.763 1233.011, 662.250 1233.330 C 660.737 1233.649, 655.450 1234.781, 650.500 1235.846 C 645.550 1236.911, 640.375 1237.789, 639 1237.798 C 637.625 1237.806, 633.125 1238.518, 629 1239.379 C 624.875 1240.240, 620.600 1240.906, 619.500 1240.858 C 618.400 1240.810, 614.800 1241.045, 611.500 1241.380 C 608.200 1241.714, 597.850 1242.019, 588.500 1242.056 C 575.490 1242.107, 570.473 1241.756, 567.124 1240.561 C 564.718 1239.703, 561.683 1239, 560.381 1239 C 559.079 1239, 556.211 1238.219, 554.007 1237.264 C 551.803 1236.309, 550 1235.184, 550 1234.764 C 550 1234.344, 549.438 1233.999, 548.750 1233.999 C 548.063 1233.998, 546.190 1232.871, 544.588 1231.494 C 542.987 1230.116, 541.922 1228.745, 542.222 1228.445 C 542.521 1228.145, 545.406 1228.866, 548.633 1230.045 C 551.860 1231.225, 558.550 1232.831, 563.500 1233.614 C 568.450 1234.397, 579.025 1235.074, 587 1235.117 C 594.975 1235.160, 607.125 1234.977, 614 1234.709 C 620.875 1234.441, 629.425 1233.675, 633 1233.008 C 636.575 1232.340, 640.625 1231.683, 642 1231.549 C 643.375 1231.414, 646.300 1230.964, 648.500 1230.548 C 650.700 1230.132, 654.300 1229.197, 656.500 1228.468 C 658.700 1227.740, 665 1225.492, 670.500 1223.472 C 676 1221.452, 680.950 1219.689, 681.500 1219.553 C 682.050 1219.418, 683.767 1218.788, 685.315 1218.154 C 686.863 1217.519, 688.438 1216.998, 688.815 1216.996 C 689.192 1216.993, 692.285 1214.507, 695.689 1211.470 C 699.641 1207.945, 702.843 1203.976, 704.548 1200.492 L 707.218 1195.034 707.159 1166.002 C 707.126 1150.034, 706.900 1136.639, 706.657 1136.235 C 706.414 1135.831, 705.917 1133.250, 705.554 1130.500 C 705.190 1127.750, 704.666 1123.925, 704.388 1122 C 704.111 1120.075, 703.669 1117.760, 703.408 1116.855 C 703.146 1115.951, 703.655 1114.488, 704.537 1113.605 C 705.420 1112.722, 706.638 1112, 707.243 1112 C 707.848 1112, 711.303 1113.130, 714.922 1114.511 C 718.540 1115.892, 723.300 1117.972, 725.500 1119.134 C 727.700 1120.296, 731.750 1122.721, 734.500 1124.523 C 737.250 1126.324, 742.200 1130.346, 745.500 1133.460 C 748.800 1136.573, 752.903 1139.994, 754.618 1141.060 C 756.333 1142.127, 758.695 1143, 759.868 1143 C 761.439 1143, 762 1142.382, 762 1140.650 C 762 1139.358, 760.595 1136.320, 758.878 1133.900 C 757.161 1131.480, 754.711 1128.493, 753.434 1127.262 C 752.157 1126.031, 750.750 1124.453, 750.306 1123.756 C 749.863 1123.059, 747.701 1121.141, 745.502 1119.494 C 743.303 1117.847, 738.900 1114.813, 735.718 1112.750 C 732.536 1110.688, 729.498 1109, 728.966 1109 C 728.435 1109, 728 1108.550, 728 1108 C 728 1107.450, 730.016 1107, 732.480 1107 C 734.944 1107, 738.656 1107.617, 740.730 1108.371 C 742.803 1109.126, 747.425 1110.291, 751 1110.960 C 754.575 1111.630, 757.976 1112.571, 758.557 1113.051 C 759.139 1113.532, 762.064 1114.570, 765.057 1115.359 C 768.051 1116.148, 773.533 1118.527, 777.241 1120.647 C 780.948 1122.766, 783.986 1124.972, 783.991 1125.549 C 783.996 1126.126, 785.462 1127.126, 787.250 1127.772 C 789.038 1128.418, 791.513 1128.681, 792.750 1128.356 C 794.350 1127.937, 795 1127.021, 795 1125.184 C 795 1123.385, 793.524 1121.221, 790.135 1118.051 C 787.459 1115.548, 783.071 1112.261, 780.385 1110.746 C 777.698 1109.231, 773.250 1106.880, 770.500 1105.522 C 767.750 1104.164, 762.496 1101.899, 758.825 1100.488 C 755.154 1099.077, 748.629 1097.214, 744.325 1096.346 C 740.021 1095.479, 733.237 1094.561, 729.250 1094.306 C 725.263 1094.051, 722 1093.500, 722 1093.082 C 722 1092.663, 723.146 1091.799, 724.547 1091.161 C 725.948 1090.522, 728.401 1090, 729.997 1090 C 731.594 1090, 733.260 1089.391, 733.700 1088.646 C 734.140 1087.901, 735.625 1087.050, 737 1086.755 C 738.375 1086.461, 742.846 1085.013, 746.935 1083.538 C 751.024 1082.064, 758.262 1080.423, 763.019 1079.892 C 767.776 1079.361, 773.836 1078.380, 776.485 1077.713 C 779.134 1077.046, 781.794 1075.713, 782.396 1074.750 C 783.189 1073.481, 783.186 1072.519, 782.386 1071.250 C 781.692 1070.149, 779.282 1069.205, 775.891 1068.704 C 772.620 1068.221, 767.355 1068.364, 762.500 1069.068 C 758.100 1069.706, 753.375 1070.312, 752 1070.414 C 750.625 1070.517, 748.200 1071.153, 746.611 1071.828 C 745.023 1072.504, 743.520 1072.854, 743.273 1072.606 C 743.025 1072.359, 739.825 1073.275, 736.161 1074.642 C 732.498 1076.009, 726.143 1078.711, 722.039 1080.646 C 717.936 1082.581, 713.298 1085.076, 711.732 1086.191 C 710.166 1087.306, 708.700 1088.034, 708.475 1087.808 C 708.250 1087.583, 710.949 1085.220, 714.474 1082.558 C 719.747 1078.575, 721.247 1076.767, 722.941 1072.358 C 724.074 1069.411, 725.875 1064.638, 726.945 1061.750 C 728.015 1058.862, 729.615 1051.775, 730.501 1046 C 731.387 1040.225, 732.564 1030.325, 733.117 1024 C 733.671 1017.675, 733.842 1007.775, 733.499 1002 C 733.156 996.225, 732.666 987.900, 732.411 983.500 C 732.155 979.100, 731.511 973.925, 730.979 972 C 730.447 970.075, 730.009 967.123, 730.006 965.440 C 730 962.579, 730.406 962.242, 736.250 960.253 C 741.356 958.516, 743.599 958.267, 748.500 958.895 C 752.720 959.436, 758.287 961.494, 767.263 965.832 C 774.283 969.224, 780.659 972, 781.431 972 C 782.204 972, 783.548 971.727, 784.418 971.393 C 785.288 971.059, 786 969.891, 786 968.797 C 786 967.704, 785.087 965.526, 783.971 963.959 C 782.855 962.392, 779.293 959.500, 776.056 957.534 C 772.093 955.126, 767.530 953.429, 762.085 952.337 C 757.638 951.445, 754 950.378, 754 949.966 C 754 949.554, 755.237 948.901, 756.750 948.515 C 758.263 948.128, 760.400 947.600, 761.500 947.341 C 762.600 947.081, 766.789 946.467, 770.808 945.977 C 775.163 945.445, 783.244 945.459, 790.808 946.013 C 797.789 946.524, 804.747 946.955, 806.271 946.971 C 808.255 946.992, 809.359 946.307, 810.154 944.561 C 811.032 942.634, 810.953 941.810, 809.778 940.636 C 808.961 939.818, 806.618 938.449, 804.573 937.595 C 802.528 936.740, 795.888 935.545, 789.818 934.938 C 783.749 934.331, 775.344 934.150, 771.141 934.536 C 766.939 934.922, 762.600 935.330, 761.500 935.443 C 760.400 935.556, 758.275 935.998, 756.778 936.425 C 755.281 936.853, 752.581 937.337, 750.778 937.500 C 748.975 937.664, 745.813 938.246, 743.750 938.793 C 741.688 939.341, 740 939.621, 740 939.416 C 740 939.210, 742.453 936.670, 745.452 933.771 C 748.451 930.872, 752.128 927.453, 753.624 926.172 C 755.120 924.892, 759.529 921.749, 763.422 919.187 C 767.315 916.625, 772.075 913.942, 774 913.225 C 775.925 912.508, 778.175 911.740, 779 911.518 C 779.825 911.297, 782.975 910.156, 786 908.983 C 789.025 907.810, 792.818 906.442, 794.430 905.943 C 796.041 905.445, 797.722 904.466, 798.164 903.768 C 798.607 903.071, 798.976 901.478, 798.985 900.229 C 798.995 898.768, 798.109 897.551, 796.503 896.819 C 794.446 895.882, 792.638 896.140, 786.253 898.285 C 781.989 899.717, 776.025 901.864, 773 903.057 C 769.975 904.250, 766.263 905.451, 764.750 905.726 C 763.237 906.002, 762 906.596, 762 907.046 C 762 907.497, 760.987 908.185, 759.750 908.577 C 758.513 908.968, 754.125 912.007, 750 915.330 C 745.875 918.653, 741.794 922.076, 740.932 922.936 C 740.069 923.796, 737.819 925.852, 735.932 927.504 C 734.044 929.157, 730.409 933.078, 727.854 936.218 L 723.209 941.927 722.564 938.213 C 722.209 936.171, 721.434 933.150, 720.842 931.500 C 720.250 929.850, 719.172 927.143, 718.447 925.485 C 717.722 923.827, 716.088 921.515, 714.815 920.348 C 713.542 919.181, 710.700 917.333, 708.500 916.241 C 706.300 915.150, 703.375 913.936, 702 913.544 C 700.625 913.152, 695.900 911.327, 691.500 909.490 C 687.100 907.652, 681.250 905.850, 678.500 905.485 C 675.750 905.119, 671.025 903.910, 668 902.797 C 664.975 901.684, 659.575 900.399, 656 899.940 C 652.425 899.482, 640.513 897.993, 629.530 896.631 C 618.546 895.269, 609.176 894.391, 608.708 894.681 C 608.240 894.970, 603.501 895.396, 598.178 895.626 C 592.855 895.857, 585.125 896.747, 581 897.605 C 576.875 898.462, 572.150 899.323, 570.500 899.518 C 568.850 899.713, 564.350 900.600, 560.500 901.489 C 556.650 902.379, 552.825 903.289, 552 903.514 C 551.175 903.738, 548.922 904.501, 546.994 905.211 C 545.065 905.920, 542.071 907.512, 540.339 908.750 C 538.608 909.987, 536.698 911, 536.096 911 C 535.493 911, 535 911.540, 535 912.200 C 535 913.068, 534.698 913.098, 533.907 912.307 C 533.138 911.538, 533.124 910.636, 533.859 909.263 C 534.434 908.189, 536.541 906.062, 538.541 904.536 C 540.541 903.011, 544.500 900.890, 547.339 899.824 C 550.178 898.757, 553.289 897.711, 554.254 897.499 C 555.218 897.287, 556.496 896.812, 557.093 896.443 C 557.690 896.074, 560.500 895.113, 563.339 894.307 C 566.178 893.501, 570.300 892.406, 572.500 891.875 C 574.700 891.344, 577.625 890.715, 579 890.477 C 580.375 890.239, 584.200 889.578, 587.500 889.007 C 590.800 888.436, 596.081 887.782, 599.236 887.552 C 602.390 887.323, 605.315 886.927, 605.736 886.672 C 606.156 886.418, 615.500 886.815, 626.500 887.556 C 637.500 888.297, 648.975 889.439, 652 890.093 C 655.025 890.747, 660.684 892.344, 664.575 893.641 C 668.467 894.939, 672.283 896, 673.056 896 C 673.829 896, 676.720 896.863, 679.481 897.918 C 682.241 898.972, 687.272 900.606, 690.660 901.549 C 694.048 902.491, 697.877 902.997, 699.170 902.672 C 700.463 902.348, 702.260 900.826, 703.165 899.291 C 704.069 897.756, 705.120 894.250, 705.500 891.500 C 705.880 888.750, 706.876 883.800, 707.713 880.500 C 708.874 875.919, 709.264 867.981, 709.360 846.935 C 709.483 819.658, 709.506 819.381, 711.492 820.460 C 712.597 821.059, 715.300 822.861, 717.500 824.464 C 719.700 826.067, 722.982 829.206, 724.792 831.439 C 726.603 833.673, 730.428 838.682, 733.292 842.571 C 736.157 846.461, 739.068 850.511, 739.763 851.571 C 740.457 852.632, 741.865 855.322, 742.891 857.548 C 743.917 859.775, 745.053 863.600, 745.415 866.048 C 745.778 868.497, 746.554 872.369, 747.140 874.653 C 747.967 877.878, 748.759 878.912, 750.682 879.279 C 752.286 879.586, 753.358 879.230, 753.728 878.267 C 754.042 877.449, 754.310 875.593, 754.325 874.140 C 754.340 872.688, 754.068 869.700, 753.721 867.500 C 753.374 865.300, 752.595 861.925, 751.990 860 C 751.385 858.075, 750.717 855.717, 750.505 854.760 C 750.292 853.803, 749.431 851.778, 748.591 850.260 C 747.751 848.742, 746.137 845.606, 745.004 843.291 C 743.870 840.977, 742.545 838.837, 742.058 838.536 C 741.571 838.235, 740.194 835.966, 738.997 833.494 C 737.801 831.023, 736.438 829, 735.968 829 C 735.499 829, 733.885 826.811, 732.381 824.136 C 730.643 821.044, 728.072 818.321, 725.324 816.661 C 722.946 815.224, 721 813.604, 721 813.060 C 721 812.516, 721.819 811.632, 722.819 811.097 C 723.960 810.486, 726.662 810.458, 730.069 811.020 C 733.056 811.513, 737.862 812.475, 740.750 813.156 C 743.638 813.837, 746 814.756, 746 815.197 C 746 815.639, 746.669 816, 747.486 816 C 748.303 816, 752.015 817.612, 755.736 819.581 C 759.456 821.551, 763.210 823.801, 764.079 824.581 C 764.947 825.362, 766.161 826, 766.777 826 C 767.393 826, 768.999 827.013, 770.346 828.250 C 771.693 829.487, 774.012 831.550, 775.500 832.833 C 776.988 834.116, 780.285 836.271, 782.827 837.623 C 785.369 838.974, 788.360 839.950, 789.474 839.790 C 791.120 839.554, 791.479 838.799, 791.387 835.766 C 791.290 832.550, 790.380 831.164, 784.816 825.766 C 781.263 822.320, 776.945 818.487, 775.219 817.250 C 773.493 816.013, 771.613 815, 771.040 815 C 770.468 815, 770 814.622, 770 814.160 C 770 813.698, 765.985 811.465, 761.078 809.199 C 756.171 806.932, 750.884 804.775, 749.328 804.406 C 747.773 804.037, 744.490 802.839, 742.033 801.743 C 739.576 800.648, 734.626 799.373, 731.033 798.909 C 727.440 798.445, 723.686 798.051, 722.691 798.033 C 721.696 798.015, 721.096 797.663, 721.358 797.250 C 721.620 796.837, 723.334 795.764, 725.167 794.864 C 727 793.963, 731.342 792.051, 734.816 790.614 C 738.290 789.176, 742.790 787.984, 744.816 787.965 C 746.842 787.945, 749.517 787.364, 750.759 786.674 C 752.387 785.770, 755.323 785.624, 761.259 786.150 C 767.565 786.709, 771.304 787.716, 777.184 790.440 C 781.411 792.398, 786.218 794, 787.867 794 C 789.987 794, 791.051 793.414, 791.500 792 C 791.849 790.900, 791.849 789.100, 791.500 788 C 791.151 786.900, 790.221 786, 789.433 786 C 788.645 786, 788 785.581, 788 785.069 C 788 784.557, 784.790 782.532, 780.866 780.569 C 776.942 778.606, 773.154 777, 772.449 777 C 771.744 777, 770.979 776.438, 770.749 775.750 C 770.444 774.836, 766.859 774.500, 757.416 774.500 C 750.312 774.500, 742.700 775.027, 740.500 775.671 C 738.300 776.315, 734.475 777.411, 732 778.106 C 729.525 778.802, 727.275 779.415, 727 779.469 C 726.725 779.523, 724.250 780.438, 721.500 781.502 C 718.750 782.566, 714.475 784.759, 712 786.375 C 709.525 787.991, 706.071 790.649, 704.323 792.282 C 701.575 794.850, 700.657 795.158, 697.513 794.568 C 695.514 794.193, 690.194 792.138, 685.689 790.002 C 681.185 787.865, 675.475 785.374, 673 784.465 C 670.525 783.557, 663.775 781.729, 658 780.403 C 652.225 779.077, 642.775 777.293, 637 776.439 C 631.225 775.585, 622 774.472, 616.500 773.966 C 611 773.461, 602.225 773.025, 597 772.999 C 591.775 772.972, 585.250 773.141, 582.500 773.374 C 579.750 773.607, 575.250 774.022, 572.500 774.297 C 569.750 774.571, 565.475 775.559, 563 776.493 C 560.525 777.426, 557.600 778.285, 556.500 778.402 C 555.400 778.518, 552.585 779.223, 550.244 779.967 C 547.903 780.711, 545.720 781.053, 545.393 780.727 C 545.067 780.400, 545.112 779.628, 545.494 779.010 C 545.876 778.392, 548.733 776.697, 551.844 775.242 C 554.955 773.787, 557.725 772.546, 558 772.485 C 558.275 772.424, 561.650 771.349, 565.500 770.097 C 570.177 768.576, 575.877 767.668, 582.674 767.362 C 588.270 767.109, 598.845 767.422, 606.174 768.056 C 613.503 768.690, 622.425 769.594, 626 770.064 C 629.575 770.535, 635.942 771.347, 640.150 771.869 C 644.357 772.392, 651.107 773.551, 655.150 774.445 C 659.192 775.340, 664.750 776.539, 667.500 777.109 C 670.250 777.680, 673.850 778.640, 675.500 779.242 C 677.150 779.844, 682.394 782.248, 687.154 784.583 C 695.207 788.535, 696.050 788.747, 699.288 787.634 C 701.202 786.976, 703.495 785.834, 704.384 785.096 C 705.273 784.359, 706 783.109, 706 782.319 C 706 781.528, 706.367 781.109, 706.817 781.387 C 707.266 781.664, 708.428 780.545, 709.400 778.900 C 710.372 777.254, 712.010 772.960, 713.041 769.358 C 714.071 765.756, 715.388 757.564, 715.968 751.154 C 716.548 744.744, 716.809 737.475, 716.548 735 C 716.287 732.525, 715.779 725.707, 715.420 719.848 C 714.795 709.663, 714.859 709.146, 716.898 708.055 C 718.620 707.133, 719.144 707.210, 719.622 708.457 C 719.948 709.306, 720.640 710, 721.161 710 C 721.682 710, 723.547 711.348, 725.304 712.995 C 727.062 714.643, 728.790 715.993, 729.144 715.995 C 729.499 715.998, 731.186 717.306, 732.894 718.901 C 734.602 720.497, 736 722.104, 736 722.473 C 736 722.841, 736.563 723.747, 737.250 724.485 C 737.938 725.223, 739.618 727.285, 740.984 729.066 C 742.350 730.847, 744.019 733.248, 744.694 734.402 C 745.369 735.556, 746.213 737.175, 746.569 738 C 746.925 738.825, 748.068 741.408, 749.108 743.739 C 750.149 746.071, 751 749.078, 751 750.422 C 751 751.925, 751.715 753.092, 752.859 753.455 C 753.882 753.780, 755.515 753.740, 756.488 753.366 C 758.028 752.775, 758.177 751.819, 757.638 746.020 C 757.298 742.353, 756.521 737.811, 755.913 735.926 C 755.306 734.042, 753.446 729.800, 751.780 726.500 C 750.115 723.200, 747.716 719.375, 746.451 718 C 745.185 716.625, 743.095 714.375, 741.807 713 C 740.520 711.625, 738.349 709.693, 736.983 708.707 C 735.617 707.721, 733.838 706.508, 733.029 706.012 C 732.220 705.515, 731.892 704.774, 732.301 704.366 C 732.710 703.957, 735.172 704.668, 737.772 705.944 C 740.372 707.221, 745.734 709.302, 749.688 710.569 C 753.641 711.836, 758.141 713.669, 759.688 714.643 C 761.234 715.617, 766.100 719.350, 770.500 722.938 C 774.900 726.527, 778.734 729.780, 779.021 730.169 C 779.307 730.558, 780.882 732.562, 782.521 734.624 C 784.159 736.685, 786.372 739.188, 787.439 740.186 C 788.505 741.184, 789.630 741.993, 789.939 741.985 C 790.247 741.976, 791.121 741.576, 791.880 741.095 C 792.919 740.437, 793.081 739.025, 792.534 735.380 C 792.135 732.718, 790.857 729.181, 789.695 727.520 C 788.533 725.859, 786.776 723.912, 785.791 723.193 C 784.806 722.475, 784 721.467, 784 720.955 C 784 720.442, 783.212 719.084, 782.250 717.937 C 781.288 716.790, 777.575 713.712, 774 711.097 C 770.425 708.482, 762.963 703.602, 757.418 700.252 C 751.872 696.903, 743.997 693.052, 739.918 691.694 C 735.838 690.337, 731.034 688.914, 729.241 688.532 C 727.449 688.150, 726.205 687.478, 726.476 687.039 C 726.748 686.599, 729.192 685.513, 731.908 684.625 C 734.624 683.737, 737.893 682.983, 739.173 682.951 C 740.453 682.919, 746.852 682.936, 753.393 682.990 C 764.458 683.080, 765.701 683.292, 771.246 686.043 C 774.524 687.669, 778.033 689, 779.044 689 C 780.055 689, 781.203 688.481, 781.595 687.846 C 781.988 687.211, 782.425 685.636, 782.566 684.346 C 782.708 683.056, 782.414 682, 781.912 682 C 781.410 682, 781 681.388, 781 680.639 C 781 679.891, 778.188 677.761, 774.750 675.907 C 768.538 672.556, 768.417 672.535, 755 672.522 C 747.575 672.514, 740.274 672.849, 738.777 673.266 C 736.756 673.829, 736.179 673.696, 736.543 672.749 C 736.812 672.048, 738.262 670.933, 739.766 670.273 C 741.270 669.612, 744.525 668.337, 747 667.439 C 749.475 666.541, 754.087 665.252, 757.248 664.573 C 761.426 663.677, 764.520 663.616, 768.577 664.351 C 773.130 665.177, 774.328 665.100, 775.085 663.931 C 775.594 663.144, 775.896 661.636, 775.756 660.580 C 775.615 659.524, 774.011 657.831, 772.192 656.818 C 770.372 655.805, 765.422 654.595, 761.192 654.130 C 755.490 653.503, 752.077 653.649, 748 654.694 C 744.975 655.469, 742.073 656.530, 741.550 657.052 C 741.028 657.573, 739.805 658, 738.834 658 C 737.863 658, 735.590 658.642, 733.784 659.427 C 731.978 660.212, 729.825 661.121, 729 661.447 C 728.175 661.773, 725.700 663.145, 723.500 664.496 C 721.300 665.847, 718.712 667.240, 717.750 667.593 C 716.788 667.945, 716 668.642, 716 669.141 C 716 669.641, 714.875 670.477, 713.500 671 C 712.125 671.523, 711 672.391, 711 672.930 C 711 673.469, 709.420 674.206, 707.489 674.568 C 705.558 674.930, 703.731 675.626, 703.430 676.113 C 703.129 676.601, 699.335 677, 695 677 C 690.665 677, 686.862 676.585, 686.549 676.079 C 686.236 675.572, 683.846 674.393, 681.240 673.458 C 678.633 672.523, 674.250 670.956, 671.500 669.975 C 668.750 668.994, 664.025 667.499, 661 666.653 C 657.975 665.806, 648.525 664.623, 640 664.023 C 631.475 663.423, 614.963 662.752, 603.307 662.531 C 590.589 662.291, 581.291 661.691, 580.057 661.030 C 578.926 660.425, 578 659.522, 578 659.024 C 578 658.526, 578.434 657.850, 578.963 657.523 C 579.493 657.195, 584.331 656.764, 589.713 656.564 C 595.096 656.364, 610.075 656.843, 623 657.628 C 635.925 658.412, 649.425 659.697, 653 660.483 C 656.575 661.269, 661.300 662.181, 663.500 662.509 C 665.700 662.838, 669.882 663.805, 672.793 664.660 C 675.703 665.514, 680.766 667.512, 684.043 669.099 C 687.319 670.686, 690 672.379, 690 672.861 C 690 673.344, 691.653 674.006, 693.672 674.334 C 695.995 674.711, 698.494 674.385, 700.472 673.446 C 702.899 672.294, 703.980 670.793, 705.305 666.731 C 706.244 663.854, 707.434 658.125, 707.949 654 C 708.465 649.875, 709.383 643.619, 709.990 640.099 C 710.596 636.578, 711.232 629.153, 711.403 623.599 C 711.573 618.044, 711.233 610.633, 710.646 607.130 C 709.626 601.039, 709.682 600.676, 711.900 598.880 C 713.177 597.846, 715.224 597, 716.449 597 C 717.675 597, 723.361 599.290, 729.085 602.090 C 734.809 604.889, 739.719 607.476, 739.996 607.840 C 740.273 608.203, 742.365 610.075, 744.646 612 C 746.926 613.925, 750.465 616.850, 752.510 618.500 C 754.556 620.150, 757.313 622.543, 758.638 623.819 C 759.963 625.094, 761.824 625.990, 762.773 625.810 C 763.780 625.619, 764.627 624.391, 764.804 622.865 C 765.029 620.939, 763.973 618.988, 760.804 615.471 C 758.437 612.843, 755.895 610.200, 755.155 609.596 C 754.415 608.993, 752.707 607.487, 751.359 606.250 C 750.012 605.013, 748.517 604, 748.038 604 C 747.559 604, 747.017 603.663, 746.833 603.250 C 746.650 602.837, 744.700 601.127, 742.500 599.449 C 740.300 597.771, 736.813 595.612, 734.750 594.652 C 732.688 593.692, 731 592.515, 731 592.036 C 731 591.558, 731.544 590.985, 732.210 590.763 C 732.875 590.542, 735.913 590.964, 738.960 591.703 C 742.007 592.442, 746.300 593.464, 748.500 593.975 C 750.700 594.485, 756.319 595.866, 760.986 597.043 C 768.563 598.954, 770.626 600.035, 780.234 607.128 C 789.448 613.931, 791.283 614.919, 792.998 614.001 C 794.099 613.412, 795 612.481, 795 611.933 C 795 611.384, 794.392 609.481, 793.649 607.702 C 792.906 605.924, 790.543 602.998, 788.399 601.200 C 786.255 599.402, 784.015 597.550, 783.422 597.086 C 782.828 596.622, 780.461 595.053, 778.160 593.601 C 775.859 592.148, 770.494 589.870, 766.238 588.538 C 761.982 587.206, 755.575 585.460, 752 584.658 C 748.425 583.857, 742.575 582.899, 739 582.530 C 735.425 582.162, 729.125 581.184, 725 580.358 C 720.193 579.395, 715.525 579.097, 712 579.529 C 708.975 579.899, 705.741 580.607, 704.813 581.102 C 703.886 581.597, 701.315 582.230, 699.101 582.508 C 696.649 582.816, 693.400 582.382, 690.788 581.398 C 688.429 580.509, 685.150 579.205, 683.500 578.502 C 681.850 577.798, 679.375 576.901, 678 576.507 C 676.625 576.114, 674.578 575.213, 673.451 574.505 C 672.324 573.797, 668.049 572.287, 663.951 571.150 C 659.853 570.012, 652.675 568.519, 648 567.831 C 643.325 567.142, 633.880 566.535, 627.011 566.481 C 620.142 566.427, 612.267 566.767, 609.511 567.238 C 606.755 567.709, 601.125 568.819, 597 569.705 C 592.875 570.591, 586.575 572.406, 583 573.738 C 579.425 575.070, 574.250 577.340, 571.500 578.782 C 568.750 580.224, 565.701 582.068, 564.725 582.879 C 563.558 583.849, 561.160 584.275, 557.725 584.120 C 554.851 583.991, 552.073 583.461, 551.550 582.943 C 551.028 582.424, 549.003 581.980, 547.050 581.956 C 545.098 581.932, 541.700 581.227, 539.500 580.390 C 537.300 579.552, 533.250 578.237, 530.500 577.466 C 527.750 576.695, 523.045 574.879, 520.044 573.431 C 517.044 571.982, 512.722 569.268, 510.441 567.398 C 508.160 565.529, 505.890 563.998, 505.397 563.995 C 504.904 563.993, 502.787 562.418, 500.694 560.495 C 498.601 558.573, 496.291 557, 495.561 557 C 494.831 557, 494.026 558.082, 493.773 559.405 M 700.727 1092 C 699.329 1093.100, 697.806 1094.010, 697.342 1094.022 C 696.879 1094.035, 693.800 1095.375, 690.500 1097 C 687.200 1098.625, 683.600 1099.965, 682.500 1099.978 C 681.400 1099.991, 678.025 1100.963, 675 1102.138 C 671.975 1103.314, 667.925 1104.651, 666 1105.110 C 664.075 1105.569, 657.550 1107.091, 651.500 1108.491 C 645.450 1109.892, 639.600 1111.195, 638.500 1111.387 C 637.400 1111.579, 635.712 1112.068, 634.750 1112.475 C 633.788 1112.881, 632.380 1112.976, 631.622 1112.685 C 630.864 1112.394, 629.788 1112.612, 629.232 1113.168 C 628.655 1113.745, 623.769 1114.102, 617.860 1114 C 612.162 1113.901, 606.600 1113.807, 605.500 1113.792 C 604.400 1113.777, 599 1113.899, 593.500 1114.063 C 588 1114.226, 580.800 1114.032, 577.500 1113.631 C 574.200 1113.230, 570.150 1112.730, 568.500 1112.521 C 566.850 1112.313, 562.575 1111.037, 559 1109.687 C 555.425 1108.337, 549.865 1106.259, 546.645 1105.070 C 543.425 1103.881, 539.776 1102.244, 538.536 1101.432 C 537.296 1100.619, 535.572 1100.227, 534.704 1100.560 C 533.836 1100.893, 533.363 1101.783, 533.652 1102.537 C 533.942 1103.291, 535.601 1104.747, 537.339 1105.772 C 539.078 1106.797, 545.675 1109.706, 552 1112.236 C 558.325 1114.765, 567.100 1117.573, 571.500 1118.476 C 575.900 1119.378, 584.450 1120.561, 590.500 1121.106 C 596.550 1121.651, 607.616 1121.848, 615.092 1121.546 C 622.567 1121.243, 633.592 1120.308, 639.592 1119.468 C 645.591 1118.628, 651.400 1117.749, 652.500 1117.515 C 653.600 1117.281, 656.771 1116.459, 659.546 1115.689 C 662.321 1114.919, 665.525 1113.789, 666.665 1113.179 C 667.804 1112.569, 668.977 1112.310, 669.270 1112.603 C 669.563 1112.896, 673.334 1111.907, 677.651 1110.406 C 681.968 1108.904, 686.210 1107.074, 687.079 1106.338 C 687.947 1105.602, 689.109 1105, 689.660 1105 C 690.212 1105, 693.695 1101.625, 697.402 1097.500 C 701.108 1093.375, 703.945 1090, 703.705 1090 C 703.466 1090, 702.126 1090.900, 700.727 1092" stroke="none" fill="#040404" fill-rule="evenodd"/></svg>