<svg xmlns="http://www.w3.org/2000/svg" width="1301" height="2022" viewBox="0 0 1301 2022" version="1.1"><path d="M 637.500 566.637 C 635.850 566.871, 632.250 567.516, 629.500 568.068 C 626.750 568.621, 621.800 570.457, 618.500 572.149 C 615.200 573.841, 610.250 576.738, 607.500 578.587 C 604.750 580.437, 601.121 583.423, 599.436 585.225 C 597.751 587.026, 595.163 589.997, 593.686 591.827 C 592.209 593.656, 591 595.569, 591 596.077 C 591 596.585, 592.237 597.010, 593.750 597.022 C 595.263 597.034, 597.625 597.924, 599 599 C 600.375 600.076, 602.032 600.966, 602.683 600.978 C 603.333 600.990, 604.145 601.880, 604.486 602.956 C 604.828 604.032, 604.808 606.507, 604.442 608.456 C 604.075 610.415, 604.186 612, 604.691 612 C 605.194 612, 607.382 610.275, 609.553 608.166 C 611.724 606.057, 615.975 602.737, 619 600.789 C 622.025 598.841, 627.518 595.828, 631.206 594.094 C 635.768 591.948, 638.702 591.138, 640.384 591.560 C 641.743 591.901, 643.099 592.815, 643.396 593.590 C 643.694 594.366, 644.454 595, 645.087 595 C 645.719 595, 647.739 593.681, 649.575 592.068 C 652.653 589.366, 653.369 589.176, 658.708 589.650 C 661.893 589.933, 665.625 590.486, 667 590.880 C 668.375 591.274, 673.325 591.528, 678 591.445 C 682.675 591.362, 689.638 590.507, 693.473 589.545 C 697.307 588.582, 701.531 586.941, 702.857 585.898 C 704.184 584.854, 705.997 583.983, 706.885 583.962 C 707.935 583.938, 707.124 582.748, 704.567 580.559 C 702.403 578.707, 698.128 576.076, 695.067 574.712 C 692.005 573.348, 687.475 571.725, 685 571.106 C 682.525 570.486, 676.675 569.355, 672 568.592 C 667.325 567.829, 662.825 567.224, 662 567.249 C 661.175 567.273, 656 567.049, 650.500 566.751 C 645 566.454, 639.150 566.402, 637.500 566.637 M 756.308 611.363 C 753.452 612.566, 750.790 613.877, 750.391 614.276 C 749.993 614.674, 750.529 614.964, 751.583 614.920 C 752.638 614.876, 755.717 614.088, 758.428 613.170 C 761.138 612.251, 763.538 610.938, 763.761 610.250 C 763.984 609.563, 763.567 609.039, 762.833 609.087 C 762.100 609.135, 759.164 610.159, 756.308 611.363 M 522.250 637.662 C 521.563 637.940, 521 638.579, 521 639.083 C 521 639.587, 524.712 639.995, 529.250 639.989 C 533.788 639.983, 539.188 639.699, 541.250 639.358 C 543.313 639.017, 545 638.347, 545 637.869 C 545 637.391, 540.163 637.036, 534.250 637.079 C 528.337 637.122, 522.938 637.385, 522.250 637.662 M 756 674.036 C 752.425 674.462, 747.250 675.700, 744.500 676.788 C 741.750 677.875, 739.500 679.380, 739.500 680.133 C 739.500 681.103, 740.808 681.469, 744 681.392 C 746.475 681.332, 751.650 680.740, 755.500 680.075 C 759.350 679.410, 764.413 677.994, 766.750 676.928 C 769.087 675.862, 771 674.542, 771 673.995 C 771 673.448, 769.087 673.059, 766.750 673.131 C 764.413 673.204, 759.575 673.611, 756 674.036 M 510 697.420 C 510 697.650, 512.138 698.542, 514.750 699.401 C 517.362 700.259, 521.300 701.224, 523.500 701.544 C 525.700 701.864, 529.075 702.545, 531 703.057 C 532.925 703.570, 535.288 703.991, 536.250 703.994 C 537.212 703.997, 538 703.585, 538 703.078 C 538 702.570, 536.387 701.623, 534.415 700.972 C 532.444 700.321, 527.831 699.161, 524.166 698.394 C 520.500 697.628, 515.813 697, 513.750 697 C 511.688 697, 510 697.189, 510 697.420 M 769.500 719.032 C 766.200 719.421, 760.907 720.732, 757.738 721.946 C 754.569 723.160, 752.201 724.516, 752.476 724.961 C 752.751 725.406, 754.444 725.988, 756.238 726.254 C 758.032 726.521, 763.936 725.668, 769.358 724.359 C 774.780 723.050, 779.900 721.596, 780.736 721.128 C 781.573 720.660, 781.862 720.052, 781.378 719.777 C 780.895 719.502, 779.375 719.062, 778 718.801 C 776.625 718.539, 772.800 718.643, 769.500 719.032 M 621.425 736.756 C 620.833 737.165, 619.599 738.850, 618.681 740.500 C 617.764 742.150, 616.148 745.586, 615.091 748.135 C 614.034 750.684, 612.273 756.534, 611.176 761.135 C 610.079 765.736, 608.666 771.975, 608.036 775 C 607.406 778.025, 606.320 787.925, 605.623 797 C 604.835 807.262, 604.628 818.226, 605.074 826 C 605.469 832.875, 606.276 840.952, 606.867 843.948 C 607.572 847.519, 608.843 850.276, 610.555 851.948 L 613.168 854.500 614.834 852.073 C 615.750 850.739, 617.547 846.914, 618.826 843.573 C 620.106 840.233, 622.236 831.650, 623.561 824.500 C 624.885 817.350, 626.438 809.475, 627.011 807 C 627.583 804.525, 628.467 799.250, 628.974 795.278 C 629.482 791.306, 629.707 778.983, 629.476 767.895 C 629.145 752.030, 628.730 747.237, 627.528 745.402 C 626.687 744.120, 626 742.429, 626 741.646 C 626 740.863, 625.212 739.274, 624.250 738.117 C 623.286 736.957, 622.017 736.346, 621.425 736.756 M 504.666 748.072 C 502.887 749.160, 502.887 749.231, 504.666 750.448 C 505.675 751.137, 508.705 751.994, 511.399 752.352 C 514.094 752.710, 516.924 753.522, 517.689 754.157 C 518.454 754.792, 523.112 755.506, 528.040 755.745 C 533.441 756.006, 537 755.794, 537 755.211 C 537 754.679, 534.367 753.259, 531.150 752.056 C 527.932 750.853, 522.645 749.449, 519.400 748.936 C 516.155 748.424, 511.925 747.768, 510 747.478 C 508.075 747.188, 505.675 747.456, 504.666 748.072 M 759.062 775.608 C 755.522 776.382, 751.584 777.698, 750.312 778.531 C 749.041 779.364, 748 780.478, 748 781.007 C 748 781.563, 751.058 781.830, 755.262 781.641 C 759.256 781.462, 763.643 780.681, 765.012 779.907 C 766.380 779.133, 768.288 777.868, 769.250 777.095 C 770.212 776.322, 771 775.310, 771 774.845 C 771 774.380, 769.763 774.045, 768.250 774.100 C 766.737 774.156, 762.603 774.834, 759.062 775.608 M 459.146 791.593 C 459.365 792.771, 461.793 794.613, 465.500 796.414 C 468.800 798.016, 476.450 800.600, 482.500 802.156 C 488.550 803.712, 495.995 805.184, 499.045 805.428 C 502.095 805.672, 505.243 805.468, 506.040 804.975 C 507.257 804.223, 507.170 803.829, 505.495 802.525 C 504.398 801.671, 501.700 800.141, 499.500 799.127 C 497.300 798.113, 493.025 796.480, 490 795.500 C 486.975 794.519, 482.787 793.099, 480.692 792.344 C 478.598 791.588, 472.814 790.681, 467.839 790.328 C 459.305 789.722, 458.813 789.794, 459.146 791.593 M 754.643 827.107 C 752.522 827.605, 749.484 828.782, 747.893 829.722 C 746.302 830.662, 745 831.784, 745 832.216 C 745 832.647, 746.688 833.083, 748.750 833.184 C 750.813 833.285, 756.100 833.449, 760.500 833.548 C 764.900 833.647, 770.868 833.138, 773.762 832.416 C 776.656 831.694, 779.469 830.828, 780.012 830.493 C 780.555 830.157, 781 829.282, 781 828.548 C 781 827.814, 780.288 826.941, 779.418 826.607 C 778.548 826.273, 773.486 826.045, 768.168 826.100 C 762.851 826.156, 756.764 826.609, 754.643 827.107 M 474.535 841.943 C 474.215 842.461, 475.966 843.776, 478.427 844.865 C 480.887 845.953, 486.861 848.045, 491.700 849.514 C 496.540 850.982, 502.590 852.846, 505.145 853.655 C 507.700 854.463, 511.750 854.985, 514.145 854.813 L 518.500 854.500 515.500 852.861 C 513.850 851.960, 508.283 849.813, 503.128 848.090 C 497.974 846.366, 492.255 844.764, 490.420 844.529 C 488.585 844.294, 484.733 843.404, 481.860 842.551 C 478.987 841.698, 476.295 841, 475.878 841 C 475.460 841, 474.856 841.424, 474.535 841.943 M 750.500 880.636 C 749.400 880.879, 747.487 881.294, 746.250 881.558 C 745.013 881.822, 744 882.458, 744 882.972 C 744 883.486, 745.609 884.350, 747.575 884.893 C 749.541 885.436, 751.713 885.664, 752.402 885.399 C 753.091 885.135, 754.745 885.321, 756.078 885.812 C 757.410 886.304, 763.365 886.384, 769.311 885.992 C 775.257 885.599, 780.593 884.807, 781.169 884.231 C 781.897 883.503, 781.508 882.807, 779.889 881.941 C 778.477 881.185, 772.642 880.598, 765.032 880.445 C 758.139 880.307, 751.600 880.393, 750.500 880.636 M 448.500 889.458 C 447.950 889.666, 445.754 890.129, 443.620 890.488 C 441.466 890.850, 440.131 891.515, 440.620 891.984 C 441.104 892.449, 446 893.524, 451.500 894.373 C 457 895.223, 463.075 896.165, 465 896.467 C 466.925 896.769, 471.425 896.987, 475 896.951 C 478.575 896.915, 481.928 896.461, 482.450 895.943 C 483.049 895.348, 482.957 894.557, 482.200 893.800 C 481.540 893.140, 481 892.891, 481 893.246 C 481 893.601, 478.863 893.283, 476.250 892.537 C 473.637 891.792, 468.350 890.898, 464.500 890.550 C 460.650 890.202, 455.700 889.729, 453.500 889.499 C 451.300 889.269, 449.050 889.251, 448.500 889.458 M 460.750 935.716 C 459.238 935.945, 458 936.517, 458 936.986 C 458 937.455, 460.137 938.540, 462.750 939.396 C 465.363 940.252, 472.947 941.252, 479.603 941.618 C 488.249 942.093, 491.909 941.957, 492.414 941.140 C 492.843 940.445, 492.019 939.572, 490.310 938.914 C 488.765 938.319, 485.025 937.461, 482 937.008 C 478.975 936.554, 473.575 935.984, 470 935.741 C 466.425 935.498, 462.262 935.487, 460.750 935.716 M 735.131 936.079 C 731.628 936.533, 728.552 937.115, 728.295 937.371 C 728.039 937.628, 728.880 938.424, 730.164 939.141 C 731.515 939.895, 736.506 940.546, 742 940.686 C 747.225 940.819, 753.928 940.381, 756.895 939.714 C 759.862 939.046, 762.237 938.050, 762.173 937.500 C 762.109 936.950, 759.682 936.207, 756.779 935.849 C 753.875 935.491, 749.250 935.210, 746.500 935.226 C 743.750 935.241, 738.634 935.625, 735.131 936.079 M 698.413 988.137 C 698.198 988.487, 698.583 989.239, 699.270 989.809 C 699.956 990.378, 703.579 991.554, 707.321 992.422 C 711.063 993.290, 717.021 994, 720.562 994 C 724.103 994, 727 993.652, 727 993.227 C 727 992.802, 723.962 991.458, 720.250 990.242 C 716.405 988.982, 710.337 987.916, 706.152 987.765 C 702.110 987.619, 698.627 987.787, 698.413 988.137 M 430.250 992.820 C 429.012 992.995, 428 993.711, 428 994.409 C 428 995.107, 429.027 996.147, 430.283 996.719 C 431.539 997.291, 435.251 998.284, 438.533 998.926 C 441.815 999.568, 446.525 1000.502, 449 1001.003 C 451.475 1001.504, 457.550 1001.990, 462.500 1002.083 C 467.450 1002.176, 472.738 1002.195, 474.250 1002.126 C 475.950 1002.048, 477 1001.437, 477 1000.526 C 477 999.715, 475.762 998.425, 474.250 997.660 C 472.738 996.895, 469.250 995.778, 466.500 995.180 C 463.750 994.581, 458.125 993.755, 454 993.345 C 449.875 992.934, 443.350 992.576, 439.500 992.549 C 435.650 992.522, 431.488 992.644, 430.250 992.820 M 647.008 1038.954 C 646.041 1039.578, 645.866 1040.235, 646.508 1040.821 C 647.054 1041.318, 650.425 1042.397, 654 1043.219 C 657.575 1044.041, 663.650 1044.786, 667.500 1044.874 C 671.350 1044.963, 675.148 1044.610, 675.939 1044.091 C 677.068 1043.351, 676.638 1042.830, 673.939 1041.670 C 672.048 1040.857, 667.575 1039.732, 664 1039.169 C 660.425 1038.606, 655.475 1038.111, 653 1038.069 C 650.525 1038.027, 647.829 1038.425, 647.008 1038.954 M 429.750 1059.701 C 428.788 1059.946, 428 1060.768, 428 1061.528 C 428 1062.287, 431.262 1064.452, 435.250 1066.337 C 440.859 1068.990, 444.537 1069.965, 451.500 1070.645 C 456.450 1071.128, 461.813 1071.293, 463.418 1071.012 C 465.022 1070.730, 466.514 1069.962, 466.733 1069.304 C 466.952 1068.646, 465.414 1067.236, 463.315 1066.172 C 461.217 1065.107, 455.675 1063.321, 451 1062.203 C 446.325 1061.084, 440.025 1059.963, 437 1059.712 C 433.975 1059.460, 430.712 1059.455, 429.750 1059.701 M 625 1087.766 C 625 1088.354, 627.138 1089.291, 629.750 1089.849 C 632.362 1090.407, 638.438 1091.181, 643.250 1091.569 C 648.774 1092.015, 652 1091.914, 652 1091.296 C 652 1090.757, 650.226 1089.785, 648.057 1089.135 C 645.888 1088.486, 639.813 1087.671, 634.557 1087.326 C 628.055 1086.899, 625 1087.040, 625 1087.766 M 524.287 1108.160 C 523.677 1108.897, 522.513 1111.300, 521.700 1113.500 C 520.887 1115.700, 519.713 1119.975, 519.092 1123 C 518.430 1126.222, 518.145 1133.885, 518.404 1141.500 C 518.647 1148.650, 519.251 1156.873, 519.746 1159.774 C 520.242 1162.674, 521.166 1165.566, 521.800 1166.200 C 522.670 1167.070, 523.444 1166.908, 524.957 1165.539 C 526.059 1164.542, 527.212 1162.100, 527.519 1160.113 C 527.826 1158.126, 528.558 1153.800, 529.144 1150.500 C 529.731 1147.200, 530.197 1138.571, 530.181 1131.326 C 530.164 1123.899, 529.682 1117.274, 529.076 1116.141 C 528.484 1115.036, 528 1113.288, 528 1112.257 C 528 1111.226, 527.414 1109.581, 526.697 1108.601 C 525.626 1107.136, 525.198 1107.058, 524.287 1108.160 M 432.511 1118.982 C 432.122 1119.611, 432.569 1120.971, 433.503 1122.003 C 434.512 1123.119, 438.789 1124.723, 444.040 1125.956 C 448.900 1127.097, 455.837 1128.181, 459.454 1128.364 C 463.695 1128.579, 466.647 1128.245, 467.766 1127.424 C 469.345 1126.263, 469.231 1126.046, 466.500 1124.999 C 464.850 1124.366, 460.560 1122.819, 456.966 1121.561 C 453.372 1120.302, 446.558 1118.950, 441.825 1118.556 C 435.749 1118.049, 433.010 1118.175, 432.511 1118.982 M 618.017 1147.908 C 616.841 1148.699, 617.535 1149.349, 621.362 1151.042 C 624.018 1152.217, 629.185 1153.674, 632.845 1154.281 C 636.505 1154.887, 644.135 1155.349, 649.801 1155.308 C 655.466 1155.266, 660.386 1154.947, 660.734 1154.599 C 661.082 1154.251, 660.923 1153.523, 660.380 1152.980 C 659.837 1152.437, 656.793 1151.316, 653.616 1150.488 C 650.439 1149.661, 645.963 1148.746, 643.670 1148.455 C 641.376 1148.165, 635 1147.698, 629.500 1147.418 C 623.601 1147.118, 618.892 1147.319, 618.017 1147.908 M 450.695 1172.700 C 449.702 1172.957, 449.063 1173.693, 449.275 1174.334 C 449.487 1174.975, 451.874 1175.798, 454.580 1176.162 C 457.286 1176.527, 461.863 1176.864, 464.750 1176.912 C 467.637 1176.961, 470 1176.599, 470 1176.109 C 470 1175.618, 466.795 1174.493, 462.877 1173.609 C 458.960 1172.724, 455.022 1172.052, 454.127 1172.116 C 453.232 1172.180, 451.688 1172.443, 450.695 1172.700 M 614.750 1212.607 C 612.138 1213.437, 610 1214.688, 610 1215.386 C 610 1216.085, 612.138 1217.141, 614.750 1217.733 C 617.923 1218.453, 622.654 1218.514, 629 1217.918 C 634.225 1217.428, 639.737 1216.516, 641.250 1215.892 C 642.763 1215.268, 644 1214.389, 644 1213.938 C 644 1213.487, 643.529 1212.827, 642.953 1212.471 C 642.377 1212.115, 636.865 1211.661, 630.703 1211.461 C 622.621 1211.199, 618.177 1211.519, 614.750 1212.607 M 417.698 1214.636 C 417.314 1215.019, 417 1215.626, 417 1215.983 C 417 1216.340, 419.363 1217.582, 422.250 1218.744 C 425.137 1219.906, 431.460 1221.616, 436.299 1222.545 C 441.139 1223.475, 445.384 1223.949, 445.733 1223.601 C 446.081 1223.252, 445.947 1222.592, 445.433 1222.134 C 444.920 1221.676, 442.511 1220.531, 440.081 1219.591 C 437.650 1218.650, 432.475 1217.300, 428.581 1216.591 C 424.686 1215.881, 420.801 1214.994, 419.948 1214.619 C 419.094 1214.245, 418.082 1214.252, 417.698 1214.636 M 630 1265.995 C 624.775 1266.361, 619.200 1267.199, 617.611 1267.858 C 616.023 1268.517, 614.983 1269.316, 615.301 1269.635 C 615.620 1269.953, 618.045 1270.182, 620.690 1270.144 C 623.336 1270.106, 629.029 1269.625, 633.342 1269.076 C 637.655 1268.526, 642.102 1267.785, 643.224 1267.429 C 644.838 1266.917, 644.975 1266.598, 643.882 1265.906 C 643.122 1265.425, 641.825 1265.098, 641 1265.180 C 640.175 1265.262, 635.225 1265.629, 630 1265.995 M 459.620 1273.027 C 455.836 1273.485, 452.283 1274.317, 451.725 1274.875 C 451.039 1275.561, 451.548 1276.099, 453.296 1276.538 C 454.719 1276.895, 460.128 1276.927, 465.317 1276.610 C 470.507 1276.292, 475.483 1275.752, 476.376 1275.409 C 477.269 1275.066, 478 1274.384, 478 1273.893 C 478 1273.402, 476.706 1273, 475.125 1273 C 473.544 1273, 470.956 1272.819, 469.375 1272.597 C 467.794 1272.375, 463.404 1272.569, 459.620 1273.027 M 478.208 1312.212 C 473.217 1313.439, 470.067 1314.698, 470.293 1315.375 C 470.532 1316.086, 472.848 1316.391, 476.585 1316.204 C 479.838 1316.041, 484.975 1315.424, 488 1314.833 C 491.025 1314.241, 494.625 1313.312, 496 1312.768 C 498.378 1311.828, 498.402 1311.740, 496.500 1310.960 C 495.400 1310.509, 492.700 1310.148, 490.500 1310.157 C 488.300 1310.167, 482.769 1311.091, 478.208 1312.212 M 637 1319.993 C 633.425 1320.382, 628.587 1321.236, 626.250 1321.889 C 623.913 1322.543, 622 1323.510, 622 1324.039 C 622 1324.567, 623.427 1325, 625.172 1325 C 626.917 1325, 632.204 1324.302, 636.922 1323.449 C 641.640 1322.596, 646.162 1321.671, 646.972 1321.395 C 648.268 1320.953, 648.268 1320.781, 646.972 1319.962 C 646.162 1319.450, 645.050 1319.088, 644.500 1319.157 C 643.950 1319.227, 640.575 1319.603, 637 1319.993 M 507.500 1351.498 C 506.950 1351.685, 503.350 1352.783, 499.500 1353.939 C 495.650 1355.094, 491.825 1356.500, 491 1357.063 C 489.943 1357.785, 491.274 1357.892, 495.500 1357.425 C 498.800 1357.060, 502.175 1356.177, 503 1355.464 C 503.825 1354.751, 505.815 1354.017, 507.423 1353.834 C 509.030 1353.650, 510.530 1352.938, 510.756 1352.250 C 510.982 1351.563, 510.567 1351.036, 509.833 1351.079 C 509.100 1351.122, 508.050 1351.311, 507.500 1351.498 M 639.665 1363.507 C 637.006 1364.238, 634.569 1365.098, 634.249 1365.418 C 633.929 1365.738, 633.857 1366.190, 634.089 1366.423 C 634.322 1366.655, 637.434 1366.174, 641.006 1365.354 C 644.578 1364.534, 647.928 1363.444, 648.450 1362.932 C 649.042 1362.351, 648.476 1362.034, 646.950 1362.089 C 645.602 1362.139, 642.324 1362.777, 639.665 1363.507 M 524.500 1399.055 C 521.200 1400.694, 517.382 1402.897, 516.015 1403.949 C 514.648 1405.002, 513.819 1406.152, 514.172 1406.505 C 514.525 1406.858, 518.118 1405.607, 522.157 1403.725 C 526.196 1401.843, 530.625 1399.350, 532 1398.185 C 534.302 1396.234, 534.342 1396.067, 532.500 1396.071 C 531.400 1396.073, 527.800 1397.416, 524.500 1399.055 M 647.705 1407.188 C 645.617 1408.318, 644.158 1409.491, 644.462 1409.795 C 644.766 1410.099, 647.036 1409.338, 649.507 1408.104 C 651.978 1406.869, 654 1405.666, 654 1405.430 C 654 1405.193, 653.438 1405.030, 652.750 1405.067 C 652.063 1405.104, 649.792 1406.058, 647.705 1407.188 M 570.929 1471.976 C 568.964 1473.015, 566.772 1474.570, 566.056 1475.432 C 565.341 1476.294, 564.183 1477, 563.485 1477 C 562.786 1477, 561.955 1477.675, 561.638 1478.500 C 561.322 1479.325, 561.438 1480, 561.897 1480 C 562.355 1480, 563.874 1479.100, 565.273 1478 C 566.671 1476.900, 568.245 1476, 568.770 1476 C 569.295 1476, 571.424 1474.650, 573.500 1473 C 575.576 1471.350, 576.651 1470.020, 575.888 1470.044 C 575.124 1470.069, 572.893 1470.938, 570.929 1471.976 M 611 1484.322 C 611 1485.049, 611.713 1487.861, 612.585 1490.572 C 613.457 1493.282, 614.910 1496.963, 615.813 1498.750 C 616.716 1500.537, 617.842 1502, 618.315 1502 C 618.789 1502, 618.861 1500.088, 618.476 1497.750 C 618.091 1495.412, 617.080 1491.925, 616.229 1490 C 615.377 1488.075, 614.584 1486.162, 614.465 1485.750 C 614.347 1485.338, 614.194 1484.550, 614.125 1484 C 614.056 1483.450, 613.325 1483, 612.500 1483 C 611.675 1483, 611 1483.595, 611 1484.322" stroke="none" fill="#cce2f3" fill-rule="evenodd"/><path d="M 801.178 570.337 C 797.505 571.348, 792.925 572.896, 791 573.778 C 789.075 574.660, 785.475 575.950, 783 576.646 C 780.525 577.342, 777.445 577.932, 776.155 577.956 C 774.866 577.980, 770.591 578.916, 766.655 580.035 C 762.720 581.155, 757.034 582.785, 754.021 583.659 C 751.007 584.532, 747.182 585.434, 745.521 585.663 C 743.859 585.892, 741.600 586.479, 740.500 586.968 C 739.400 587.457, 736.025 588.396, 733 589.056 C 729.975 589.716, 722.775 591.773, 717 593.627 C 711.225 595.482, 705.712 596.999, 704.750 596.999 C 703.542 597, 703 596.212, 703 594.455 C 703 593.055, 704.105 590.805, 705.455 589.455 C 706.805 588.105, 708.380 587, 708.955 587 C 709.530 587, 710 586.395, 710 585.655 C 710 584.915, 708.995 583.453, 707.767 582.405 C 705.950 580.854, 705.786 580.825, 706.890 582.250 C 708.043 583.740, 708.024 584, 706.757 584 C 705.939 584, 704.184 584.854, 702.857 585.898 C 701.531 586.941, 697.307 588.582, 693.473 589.545 C 689.638 590.507, 682.675 591.362, 678 591.445 C 673.325 591.528, 668.375 591.274, 667 590.880 C 665.625 590.486, 661.893 589.933, 658.708 589.650 C 653.331 589.173, 652.666 589.354, 649.455 592.174 C 647.460 593.925, 645.361 594.969, 644.497 594.637 C 643.674 594.321, 643 593.647, 643 593.140 C 643 592.632, 641.855 591.929, 640.456 591.578 C 638.686 591.134, 635.873 591.899, 631.206 594.094 C 627.518 595.828, 622.025 598.841, 619 600.789 C 615.975 602.737, 611.724 606.057, 609.553 608.166 C 607.382 610.275, 605.194 612, 604.691 612 C 604.186 612, 604.075 610.415, 604.442 608.456 C 604.808 606.507, 604.828 604.032, 604.486 602.956 C 604.145 601.880, 603.333 600.990, 602.683 600.978 C 602.032 600.966, 600.375 600.076, 599 599 C 597.625 597.924, 595.263 597.034, 593.750 597.022 C 592.237 597.010, 591 596.550, 591 596 C 591 595.450, 590.072 595.928, 588.939 597.061 C 587.805 598.195, 587.032 599.883, 587.222 600.811 C 587.470 602.029, 588.535 602.474, 591.033 602.407 C 594.344 602.319, 594.495 602.467, 594.399 605.704 C 594.343 607.568, 593.331 610.295, 592.149 611.764 C 590.967 613.232, 590 615.011, 590 615.717 C 590 616.423, 589.650 617, 589.223 617 C 588.795 617, 587.557 616.389, 586.473 615.642 C 585.388 614.895, 581.800 613.967, 578.500 613.580 C 575.200 613.193, 570.925 612.641, 569 612.354 C 567.075 612.066, 558.300 611.880, 549.500 611.941 C 540.700 612.001, 528.100 612.453, 521.500 612.945 C 514.900 613.438, 507.700 614.151, 505.500 614.531 C 503.300 614.910, 495.875 616.106, 489 617.188 C 482.125 618.269, 474.250 619.366, 471.500 619.625 C 468.750 619.885, 465.375 620.637, 464 621.297 C 462.625 621.957, 461.158 622.948, 460.740 623.498 C 460.322 624.049, 460.221 625.524, 460.515 626.775 C 460.810 628.027, 461.979 629.979, 463.113 631.113 C 464.247 632.247, 466.730 633.825, 468.631 634.619 C 470.532 635.413, 472.341 636.724, 472.650 637.532 C 472.960 638.339, 473.863 639, 474.657 639 C 475.450 639, 477.336 639.640, 478.848 640.421 C 480.360 641.203, 482.925 642.054, 484.548 642.311 C 486.172 642.569, 488.512 643.107, 489.750 643.506 C 490.988 643.906, 492 644.631, 492 645.117 C 492 645.602, 493.935 646, 496.300 646 C 498.665 646, 501.073 646.473, 501.651 647.051 C 502.229 647.629, 505.807 648.403, 509.601 648.771 C 513.395 649.139, 518.300 649.391, 520.500 649.331 C 522.700 649.272, 528.550 648.914, 533.500 648.538 C 538.450 648.161, 543.850 647.683, 545.500 647.474 C 547.150 647.266, 551.200 646.580, 554.500 645.950 C 557.800 645.321, 564.775 644.467, 570 644.053 C 575.225 643.640, 580.076 643.512, 580.780 643.769 C 581.484 644.026, 581.861 644.971, 581.619 645.868 C 581.377 646.766, 580.635 651.202, 579.971 655.726 C 579.306 660.250, 578.254 664.351, 577.631 664.838 C 577.009 665.326, 574.250 666.005, 571.500 666.346 C 568.750 666.687, 561.775 667.689, 556 668.571 C 550.225 669.454, 541 670.610, 535.500 671.141 C 530 671.671, 520.384 672.237, 514.131 672.397 C 507.879 672.557, 501.129 672.356, 499.131 671.949 C 497.134 671.543, 491.900 670.439, 487.500 669.495 C 483.100 668.552, 479.050 667.439, 478.500 667.021 C 477.950 666.603, 475.700 665.903, 473.500 665.465 C 471.300 665.028, 467.925 664.558, 466 664.422 C 464.075 664.286, 457.355 664.118, 451.066 664.048 C 440.798 663.936, 439.425 664.131, 437.594 665.961 C 436.433 667.122, 436.082 668, 436.778 668 C 437.450 668, 438 668.564, 438 669.253 C 438 669.943, 439.238 671.740, 440.750 673.248 C 442.262 674.756, 443.950 676.449, 444.500 677.009 C 445.050 677.569, 448.370 680.271, 451.877 683.014 C 455.385 685.756, 458.731 688, 459.313 688 C 459.895 688, 461.300 688.843, 462.436 689.874 C 463.571 690.905, 466.637 692.921, 469.250 694.354 C 471.863 695.788, 474 696.755, 474 696.505 C 474 696.254, 475.238 696.544, 476.750 697.149 C 478.262 697.754, 481.750 699.131, 484.500 700.211 C 487.250 701.290, 490.850 702.561, 492.500 703.035 C 494.150 703.509, 498.875 704.855, 503 706.026 C 507.125 707.196, 515.137 709.008, 520.804 710.052 C 526.472 711.095, 531.482 712.180, 531.938 712.462 C 532.394 712.744, 536.082 713.504, 540.134 714.152 C 544.185 714.800, 550.875 715.450, 555 715.597 C 559.125 715.744, 564.535 716.052, 567.023 716.282 C 569.510 716.511, 572.499 717.294, 573.664 718.022 C 575.043 718.883, 575.972 720.754, 576.324 723.378 C 576.621 725.595, 576.644 727.768, 576.373 728.205 C 576.103 728.642, 574.986 729, 573.891 729 C 572.796 729, 570.543 728.298, 568.883 727.439 C 567.223 726.581, 565.332 726.063, 564.682 726.290 C 564.032 726.516, 561.710 726.077, 559.523 725.314 C 557.335 724.552, 553.619 723.733, 551.265 723.495 C 548.911 723.257, 546.118 722.598, 545.058 722.031 C 543.998 721.464, 541.842 721, 540.266 721 C 538.690 721, 536.864 720.464, 536.209 719.809 C 535.553 719.153, 532.876 718.516, 530.259 718.392 C 527.641 718.268, 521.450 717.655, 516.500 717.031 C 511.550 716.406, 504.800 715.683, 501.500 715.424 C 498.200 715.164, 490.325 714.770, 484 714.547 C 477.675 714.325, 466.650 714.585, 459.500 715.125 C 452.350 715.666, 443.350 716.578, 439.500 717.153 C 435.650 717.728, 430.704 718.505, 428.508 718.879 C 425.806 719.340, 424.404 720.139, 424.171 721.351 C 423.962 722.436, 424.550 723.335, 425.663 723.633 C 426.673 723.903, 428.786 725.846, 430.358 727.951 C 431.930 730.056, 434.180 732.246, 435.358 732.819 C 436.536 733.392, 440.425 735.195, 444 736.828 C 447.575 738.460, 453.425 741.136, 457 742.774 C 460.575 744.413, 464.625 746.124, 466 746.578 C 467.375 747.031, 468.725 747.451, 469 747.512 C 469.275 747.572, 471.242 748.382, 473.372 749.311 C 475.502 750.240, 477.645 751, 478.136 751 C 478.626 751, 479.809 751.397, 480.764 751.883 C 481.719 752.369, 483.625 753.216, 485 753.766 C 486.375 754.315, 491.100 755.909, 495.500 757.306 C 499.900 758.704, 506.650 760.628, 510.500 761.581 C 514.350 762.534, 518.175 763.290, 519 763.261 C 519.825 763.232, 522.664 763.819, 525.308 764.567 C 527.953 765.315, 531.440 765.662, 533.058 765.338 C 534.962 764.958, 536 765.159, 536 765.911 C 536 766.766, 540.007 766.922, 551.211 766.503 C 560.109 766.171, 566.691 765.500, 567.070 764.887 C 567.426 764.311, 569.018 763.988, 570.609 764.170 L 573.500 764.500 573.177 778 C 572.999 785.425, 572.646 792.239, 572.394 793.141 C 572.139 794.052, 570.581 794.981, 568.895 795.229 C 566.912 795.520, 565.045 795.036, 563.520 793.837 C 562.236 792.827, 560.963 792, 560.693 792 C 560.422 792, 557.343 790.228, 553.850 788.063 C 550.358 785.898, 545.025 782.936, 542 781.482 C 538.975 780.027, 530.875 776.107, 524 772.772 C 517.125 769.436, 509.814 765.845, 507.754 764.792 C 505.694 763.739, 503.557 763.156, 503.004 763.497 C 502.452 763.839, 502 763.740, 502 763.278 C 502 762.816, 500.538 761.828, 498.750 761.082 C 496.962 760.337, 495.275 759.635, 495 759.523 C 494.725 759.411, 492.749 758.540, 490.608 757.587 C 488.467 756.634, 485.686 756.113, 484.427 756.429 C 483.169 756.745, 480.870 756.517, 479.319 755.922 C 477.769 755.327, 474.700 754.686, 472.500 754.498 C 470.300 754.309, 462.875 753.659, 456 753.052 C 449.125 752.445, 441.137 752.237, 438.250 752.590 C 434.672 753.026, 433 752.875, 433 752.115 C 433 751.450, 431.064 751, 428.200 751 C 425.560 751, 422.950 751.450, 422.401 751.999 C 421.851 752.549, 418.049 753.455, 413.951 754.013 C 409.853 754.571, 403.125 755.853, 399 756.861 C 393.940 758.099, 391.399 759.214, 391.188 760.288 C 391.017 761.165, 391.631 763.033, 392.553 764.441 C 393.475 765.848, 395.097 767, 396.158 767 C 397.218 767, 400.587 768.848, 403.646 771.108 C 406.704 773.367, 411.729 776.542, 414.813 778.165 C 417.897 779.787, 422.666 782.728, 425.412 784.700 C 428.157 786.673, 434.026 790.068, 438.452 792.245 C 442.878 794.423, 447.625 796.858, 449 797.657 C 450.375 798.455, 453.075 799.767, 455 800.572 C 456.925 801.377, 460.075 802.754, 462 803.634 C 463.925 804.513, 466.654 805.831, 468.064 806.563 C 469.474 807.295, 471.892 808.123, 473.437 808.403 C 474.981 808.683, 477.080 809.668, 478.101 810.592 C 479.122 811.515, 480.754 812.347, 481.728 812.440 C 482.703 812.533, 485.446 813.173, 487.825 813.863 C 490.204 814.553, 492.904 814.946, 493.825 814.735 C 494.746 814.525, 496.850 815.018, 498.499 815.831 C 500.911 817.020, 507.959 817.380, 534.499 817.673 C 552.650 817.873, 567.978 818.207, 568.561 818.415 C 569.305 818.679, 569.315 820.472, 568.596 824.396 C 568.032 827.478, 567.217 830, 566.785 830 C 566.353 830, 566 830.705, 566 831.567 C 566 832.595, 565.398 832.952, 564.250 832.605 C 563.288 832.313, 558.740 830.898, 554.144 829.460 C 549.548 828.022, 543.473 826.430, 540.644 825.921 C 537.815 825.413, 531.225 824.553, 526 824.010 C 520.775 823.467, 514.991 822.808, 513.146 822.546 C 511.301 822.283, 508.998 821.817, 508.028 821.509 C 507.058 821.201, 504.517 820.902, 502.382 820.844 C 500.247 820.787, 494.450 819.633, 489.500 818.281 C 484.550 816.928, 478.925 815.479, 477 815.059 C 475.075 814.640, 471.475 813.738, 469 813.055 C 466.525 812.372, 463.687 811.385, 462.694 810.863 C 461.701 810.340, 456.891 809.076, 452.006 808.054 C 447.121 807.031, 442.655 805.905, 442.082 805.551 C 441.509 805.197, 436.194 804.324, 430.270 803.613 C 424.347 802.901, 415.096 802.456, 409.713 802.623 C 404.331 802.790, 399.400 803.253, 398.756 803.651 C 398.112 804.049, 396.579 804.482, 395.350 804.613 C 394.121 804.744, 391.404 805.664, 389.311 806.657 C 387.219 807.650, 385.055 808.480, 384.503 808.501 C 383.952 808.523, 382.488 808.900, 381.250 809.338 C 380.012 809.776, 379 810.506, 379 810.959 C 379 811.412, 380.012 812.037, 381.250 812.348 C 382.488 812.658, 383.870 812.902, 384.323 812.889 C 384.775 812.876, 386.216 814.020, 387.525 815.433 C 388.834 816.845, 390.794 818, 391.881 818 C 392.968 818, 394.456 818.599, 395.188 819.331 C 395.921 820.064, 397.706 820.960, 399.155 821.324 C 400.605 821.688, 405.326 823.660, 409.646 825.707 C 413.966 827.754, 417.725 829.453, 418 829.482 C 418.275 829.512, 420.750 830.575, 423.500 831.845 C 426.250 833.115, 429.694 834.795, 431.154 835.577 C 432.614 836.360, 434.541 837, 435.436 837 C 436.331 837, 437.311 837.648, 437.615 838.439 C 437.919 839.230, 439.580 840.188, 441.306 840.567 C 443.033 840.946, 447.158 842.576, 450.473 844.189 C 453.788 845.801, 457.281 847.543, 458.236 848.060 C 459.191 848.577, 460.472 849, 461.082 849 C 461.692 849, 463.386 849.837, 464.846 850.860 C 466.306 851.882, 471.100 853.893, 475.500 855.328 C 479.900 856.763, 486.200 858.700, 489.500 859.633 C 492.800 860.565, 496.063 861.759, 496.750 862.287 C 497.438 862.814, 498 862.895, 498 862.467 C 498 862.040, 498.788 862.382, 499.750 863.227 C 500.712 864.072, 502.400 865.034, 503.500 865.365 C 504.600 865.697, 508.425 866.420, 512 866.973 C 515.575 867.526, 522.550 868.224, 527.500 868.524 C 532.450 868.824, 541 868.675, 546.500 868.193 C 552 867.712, 557.228 866.996, 558.119 866.602 C 559.267 866.095, 559.898 866.500, 560.289 867.999 C 560.593 869.161, 559.950 873.349, 558.861 877.306 C 557.772 881.262, 556.320 885.072, 555.634 885.770 C 554.628 886.796, 553.795 886.744, 551.299 885.499 C 549.600 884.652, 547.658 883.293, 546.983 882.479 C 546.308 881.666, 545.338 881, 544.829 881 C 544.320 881, 542.041 880.100, 539.764 879 C 537.487 877.900, 535.146 876.990, 534.562 876.978 C 533.978 876.966, 532.375 876.076, 531 875 C 529.625 873.924, 527.352 873.034, 525.950 873.022 C 524.547 873.010, 522.957 872.557, 522.415 872.015 C 521.873 871.473, 518.971 870.520, 515.965 869.898 C 512.959 869.275, 508.475 868.398, 506 867.950 C 503.525 867.502, 499.475 866.687, 497 866.139 C 494.525 865.591, 489.800 864.685, 486.500 864.125 C 483.200 863.566, 476.225 862.803, 471 862.429 C 465.775 862.056, 461.028 861.376, 460.451 860.920 C 459.874 860.463, 456.735 859.842, 453.476 859.540 C 450.217 859.239, 446.864 858.784, 446.025 858.529 C 445.186 858.274, 442.119 857.841, 439.208 857.566 C 436.298 857.291, 433.490 856.803, 432.970 856.482 C 432.450 856.160, 429.431 855.218, 426.262 854.388 C 423.093 853.557, 418.700 852.683, 416.500 852.444 C 414.300 852.205, 409.350 851.726, 405.500 851.380 C 401.650 851.034, 398.266 850.385, 397.980 849.938 C 397.693 849.491, 395.143 848.910, 392.312 848.647 C 389.481 848.384, 386.905 848.428, 386.587 848.746 C 386.270 849.063, 383.420 849.392, 380.255 849.476 C 377.090 849.561, 373.262 850.152, 371.750 850.790 C 369.398 851.783, 369 852.533, 369 855.975 C 369 859.633, 369.704 860.732, 376.750 868.069 C 381.012 872.508, 386.862 877.491, 389.750 879.143 C 392.637 880.795, 395 882.520, 395 882.975 C 395 883.431, 396.688 884.737, 398.750 885.876 C 400.813 887.016, 407.450 890.437, 413.500 893.479 C 420.397 896.947, 427.269 899.586, 431.925 900.555 C 436.009 901.404, 443.884 902.283, 449.425 902.507 C 454.966 902.732, 467.825 902.501, 478 901.994 C 488.175 901.487, 500.100 901.017, 504.500 900.949 C 508.900 900.882, 515.875 901.076, 520 901.381 C 524.125 901.686, 530.128 902.575, 533.340 903.357 C 536.551 904.139, 539.679 905.279, 540.290 905.890 C 540.900 906.500, 542.830 907, 544.578 907 C 546.325 907, 548.333 907.697, 549.040 908.548 C 550.095 909.819, 550.035 910.703, 548.707 913.489 C 547.515 915.988, 546.484 916.846, 544.794 916.746 C 543.532 916.670, 540.925 915.645, 539 914.466 C 537.075 913.288, 531.225 910.926, 526 909.218 C 517.963 906.591, 514.038 905.963, 500.514 905.143 C 491.721 904.610, 484.102 904.437, 483.583 904.758 C 483.063 905.079, 473.382 905.484, 462.069 905.658 C 450.756 905.832, 435.200 906.682, 427.500 907.548 C 419.800 908.414, 408.100 909.702, 401.500 910.409 C 394.900 911.117, 386.575 912.444, 383 913.357 C 379.425 914.270, 373.011 915.277, 368.748 915.594 C 361.484 916.135, 360.955 916.332, 360.356 918.717 C 359.882 920.606, 360.205 921.542, 361.609 922.348 C 362.649 922.945, 365.975 924.275, 369 925.303 C 372.025 926.332, 374.650 927.584, 374.833 928.087 C 375.017 928.589, 375.877 929, 376.745 929 C 377.614 929, 380.839 929.727, 383.912 930.615 C 386.985 931.503, 390.625 932.682, 392 933.235 C 393.375 933.788, 397.595 934.590, 401.378 935.018 C 405.161 935.446, 408.598 936.350, 409.016 937.026 C 409.434 937.703, 410.210 937.988, 410.740 937.661 C 411.270 937.333, 414.358 937.760, 417.602 938.610 C 420.846 939.459, 425.846 940.831, 428.713 941.659 C 431.581 942.486, 434.346 942.904, 434.857 942.588 C 435.369 942.272, 437.498 942.728, 439.589 943.602 C 441.680 944.475, 444.315 945.365, 445.445 945.578 C 446.575 945.791, 451.967 947.397, 457.427 949.145 C 464.767 951.496, 466.847 952.512, 465.408 953.045 C 464.338 953.441, 457.171 954.546, 449.481 955.501 C 441.791 956.455, 434.913 957.709, 434.196 958.286 C 433.478 958.863, 427.178 959.679, 420.196 960.100 C 413.213 960.520, 400.750 961.550, 392.500 962.389 C 384.250 963.227, 375.162 964.367, 372.305 964.920 C 369.447 965.474, 365.510 966.596, 363.555 967.413 C 360.664 968.620, 360.006 969.421, 360.033 971.699 C 360.052 973.240, 360.914 975.516, 361.949 976.757 C 362.985 977.999, 366.083 980.057, 368.834 981.332 C 371.586 982.606, 375.464 985.078, 377.453 986.825 C 379.442 988.571, 381.859 990, 382.823 990 C 383.788 990, 386.314 990.885, 388.436 991.968 C 390.559 993.050, 392.621 993.734, 393.019 993.488 C 393.416 993.243, 394.769 993.932, 396.024 995.021 C 397.279 996.109, 398.800 997.053, 399.403 997.118 C 400.006 997.184, 400.885 997.168, 401.355 997.083 C 401.826 996.999, 402.726 997.322, 403.355 997.801 C 403.985 998.281, 406.975 999.613, 410 1000.761 C 413.025 1001.909, 418.720 1003.807, 422.655 1004.978 C 426.590 1006.149, 431.990 1007.325, 434.655 1007.591 C 437.320 1007.857, 442.039 1008.227, 445.143 1008.412 C 448.246 1008.598, 451.328 1009.084, 451.990 1009.494 C 452.652 1009.903, 462.097 1010.457, 472.978 1010.725 C 489.240 1011.125, 493.745 1010.925, 498.285 1009.606 C 501.322 1008.723, 505.340 1008, 507.213 1008 C 509.086 1008, 511.371 1008.563, 512.291 1009.250 C 513.771 1010.356, 513.815 1011, 512.674 1014.822 C 511.965 1017.199, 510.787 1019.513, 510.058 1019.964 C 509.329 1020.415, 507.498 1020.430, 505.990 1019.997 C 504.482 1019.565, 497.230 1019.090, 489.874 1018.943 C 482.518 1018.795, 462.684 1018.788, 445.798 1018.926 C 428.912 1019.064, 414.650 1018.902, 414.104 1018.564 C 413.559 1018.227, 410.050 1017.718, 406.306 1017.432 C 402.563 1017.146, 396.275 1016.757, 392.334 1016.567 C 388.392 1016.377, 384.644 1015.898, 384.004 1015.503 C 383.364 1015.107, 376.893 1014.755, 369.624 1014.720 C 356.866 1014.658, 356.218 1014.757, 350.963 1017.578 C 347.969 1019.185, 345.365 1021.310, 345.177 1022.299 C 344.989 1023.289, 345.547 1025.186, 346.418 1026.515 C 347.289 1027.844, 351.263 1031.046, 355.251 1033.630 C 359.238 1036.214, 366.202 1040.751, 370.726 1043.711 C 375.250 1046.672, 379.715 1049.858, 380.648 1050.791 C 381.581 1051.724, 383.279 1053.035, 384.422 1053.704 C 385.565 1054.373, 387.625 1055.479, 389 1056.162 C 390.375 1056.844, 392.850 1058.324, 394.500 1059.450 C 396.150 1060.576, 397.725 1061.499, 398 1061.502 C 398.275 1061.504, 401.875 1063.127, 406 1065.109 C 410.125 1067.090, 416.200 1069.857, 419.500 1071.257 C 422.800 1072.657, 429.325 1074.916, 434 1076.276 C 438.675 1077.636, 445.425 1079.411, 449 1080.220 C 452.575 1081.030, 457.750 1081.567, 460.500 1081.414 C 463.250 1081.261, 470.161 1080.862, 475.857 1080.529 C 482.281 1080.153, 488.478 1079.140, 492.173 1077.861 C 495.451 1076.727, 498.376 1076.042, 498.674 1076.340 C 498.971 1076.638, 498.632 1079.158, 497.919 1081.941 C 497.205 1084.723, 496.122 1087, 495.511 1087 C 494.900 1087, 493.945 1086.545, 493.389 1085.989 C 492.810 1085.410, 484.170 1084.800, 473.131 1084.561 C 459.058 1084.255, 452.622 1084.499, 449.192 1085.470 C 446.611 1086.200, 438.425 1087.110, 431 1087.493 C 423.575 1087.876, 416.600 1088.217, 415.500 1088.251 C 414.400 1088.285, 405.175 1088.028, 395 1087.679 C 384.825 1087.329, 372.225 1087.012, 367 1086.974 C 361.740 1086.935, 355.268 1087.523, 352.500 1088.290 C 349.750 1089.053, 346.938 1089.487, 346.250 1089.255 C 345.429 1088.978, 345 1089.893, 345 1091.925 C 345 1094.598, 345.541 1095.233, 349 1096.617 C 351.200 1097.497, 353 1098.529, 353 1098.911 C 353 1099.293, 355.363 1100.432, 358.250 1101.444 C 361.138 1102.455, 365.841 1104.542, 368.702 1106.081 C 371.562 1107.620, 375.387 1109.316, 377.202 1109.850 C 379.016 1110.384, 383.875 1112.020, 388 1113.484 C 392.125 1114.949, 397.750 1117.204, 400.500 1118.496 C 403.250 1119.789, 407.075 1121.521, 409 1122.346 C 410.925 1123.171, 413.850 1124.168, 415.500 1124.561 C 417.150 1124.954, 418.995 1125.663, 419.601 1126.137 C 420.206 1126.610, 422.859 1127.293, 425.495 1127.654 C 428.131 1128.016, 432.135 1129.291, 434.394 1130.489 C 436.652 1131.687, 439.850 1133.010, 441.500 1133.430 C 443.150 1133.850, 445.625 1134.381, 447 1134.610 C 448.375 1134.839, 451.525 1135.415, 454 1135.890 C 456.475 1136.365, 459.850 1136.789, 461.500 1136.834 C 463.150 1136.878, 469.450 1137.166, 475.500 1137.474 C 481.550 1137.781, 487.512 1138.259, 488.750 1138.536 C 490.468 1138.919, 491 1139.743, 491 1142.019 C 491 1144.143, 490.518 1145, 489.321 1145 C 488.398 1145, 486.148 1144.550, 484.321 1144 C 482.494 1143.450, 479.313 1142.463, 477.250 1141.807 C 475.188 1141.151, 471.700 1140.479, 469.500 1140.314 C 467.300 1140.149, 462.350 1139.811, 458.500 1139.563 C 454.650 1139.316, 448.350 1139.081, 444.500 1139.042 C 440.650 1139.003, 432.325 1139.379, 426 1139.877 C 417.763 1140.526, 410.954 1141.824, 402 1144.452 C 395.125 1146.470, 388.719 1148.544, 387.764 1149.061 C 386.809 1149.577, 384.996 1150, 383.736 1150 C 382.476 1150, 380.332 1150.781, 378.973 1151.735 C 377.613 1152.690, 374.025 1154.685, 371 1156.170 C 367.975 1157.655, 364.526 1159.686, 363.335 1160.685 C 362.145 1161.683, 360.243 1164.182, 359.110 1166.237 L 357.049 1169.974 359.942 1171.470 C 362.448 1172.766, 363.284 1172.779, 366.176 1171.571 C 368.025 1170.798, 373.751 1170.061, 379.008 1169.919 C 384.228 1169.777, 391.650 1170.012, 395.500 1170.441 C 399.350 1170.870, 407 1172.332, 412.500 1173.690 C 418 1175.048, 423.861 1176.503, 425.524 1176.923 C 427.186 1177.344, 429.436 1178.146, 430.524 1178.707 C 431.611 1179.267, 434.482 1180.029, 436.905 1180.399 C 439.327 1180.770, 441.802 1181.386, 442.405 1181.768 C 443.007 1182.150, 444.625 1182.549, 446 1182.654 C 447.375 1182.760, 454.376 1183.745, 461.558 1184.844 C 468.740 1185.943, 475.265 1186.807, 476.058 1186.763 C 476.851 1186.720, 480.762 1186.756, 484.750 1186.842 C 490.458 1186.966, 492 1187.319, 492 1188.500 C 492 1189.652, 490.722 1190, 486.500 1190 C 483.475 1190, 481 1189.573, 481 1189.051 C 481 1188.521, 477.146 1188.132, 472.250 1188.168 C 467.438 1188.204, 461.699 1188.051, 459.498 1187.829 C 457.297 1187.607, 455.035 1187.140, 454.471 1186.791 C 453.907 1186.442, 446.258 1186.307, 437.473 1186.489 C 428.688 1186.671, 415.200 1187.311, 407.500 1187.911 C 399.800 1188.510, 390.350 1189.402, 386.500 1189.893 C 382.650 1190.383, 377.025 1191.310, 374 1191.953 C 370.975 1192.595, 365.688 1194.077, 362.250 1195.245 C 357.659 1196.806, 356 1197.852, 356 1199.185 C 356 1200.183, 356.432 1201, 356.961 1201 C 357.490 1201, 358.840 1201.985, 359.961 1203.189 C 361.082 1204.392, 362 1205.029, 362 1204.605 C 362 1204.180, 363.688 1205.158, 365.750 1206.780 C 367.813 1208.401, 373.834 1211.814, 379.130 1214.364 C 384.427 1216.914, 389.194 1219, 389.725 1219 C 390.255 1219, 393.347 1219.919, 396.595 1221.042 C 399.843 1222.165, 405.592 1223.982, 409.372 1225.079 C 413.151 1226.177, 417.651 1227.810, 419.372 1228.709 C 421.092 1229.609, 425.875 1231.191, 430 1232.225 C 434.125 1233.260, 441.314 1234.724, 445.976 1235.478 C 450.638 1236.232, 454.688 1236.801, 454.976 1236.743 C 455.264 1236.684, 457.305 1237.207, 459.511 1237.905 C 462.298 1238.786, 467.483 1239.016, 476.511 1238.658 C 483.655 1238.375, 490.175 1238.050, 491 1237.935 C 491.825 1237.821, 492.950 1237.394, 493.500 1236.987 C 494.050 1236.580, 495.400 1236.590, 496.500 1237.009 C 498.273 1237.684, 498.159 1237.847, 495.500 1238.446 C 493.850 1238.817, 491.825 1239.477, 491 1239.912 C 490.175 1240.347, 483.912 1240.791, 477.083 1240.897 C 467.725 1241.044, 463.208 1241.582, 458.750 1243.084 C 455.497 1244.180, 449.160 1245.529, 444.668 1246.083 C 440.175 1246.636, 429.525 1248.467, 421 1250.152 C 412.475 1251.837, 404.150 1253.793, 402.500 1254.499 C 400.850 1255.205, 397.250 1256.352, 394.500 1257.048 C 391.750 1257.744, 386.125 1259.632, 382 1261.244 C 377.875 1262.856, 373.923 1264.653, 373.218 1265.237 C 372.215 1266.067, 372.678 1266.976, 375.335 1269.399 C 377.362 1271.248, 381.514 1273.367, 385.617 1274.646 C 389.403 1275.826, 395.682 1277.739, 399.571 1278.896 C 403.460 1280.053, 408.271 1281, 410.262 1281 C 412.253 1281, 414.122 1281.389, 414.416 1281.864 C 414.709 1282.339, 416.761 1282.795, 418.975 1282.879 C 421.189 1282.962, 423.788 1283.047, 424.750 1283.068 C 425.712 1283.089, 432.125 1283.598, 439 1284.200 C 445.875 1284.802, 456 1285.199, 461.500 1285.083 C 467 1284.967, 473.300 1284.686, 475.500 1284.460 L 479.500 1284.049 474.590 1285.988 C 471.890 1287.055, 467.165 1288.489, 464.090 1289.175 C 461.016 1289.861, 452.333 1293.477, 444.795 1297.211 C 437.257 1300.945, 430.282 1304.009, 429.295 1304.020 C 428.308 1304.030, 424.756 1305.718, 421.401 1307.770 C 418.047 1309.821, 413.210 1313.049, 410.651 1314.943 C 408.093 1316.836, 406 1318.738, 406 1319.169 C 406 1319.601, 407.044 1320.638, 408.319 1321.473 C 409.594 1322.309, 412.632 1323.416, 415.069 1323.933 C 417.506 1324.450, 421.525 1325.394, 424 1326.032 C 426.807 1326.755, 431.699 1326.952, 437 1326.557 C 441.675 1326.208, 454.500 1325.282, 465.500 1324.499 C 476.500 1323.716, 487.075 1322.571, 489 1321.955 C 490.925 1321.339, 493.400 1320.475, 494.500 1320.036 C 495.600 1319.596, 500.722 1318.483, 505.881 1317.562 C 511.041 1316.641, 517.116 1315.022, 519.381 1313.964 C 521.647 1312.907, 524.606 1311.920, 525.958 1311.771 C 527.895 1311.558, 528.787 1312.244, 530.160 1315 C 531.119 1316.925, 531.926 1318.838, 531.952 1319.250 C 531.978 1319.662, 530.650 1320, 529 1320 C 527.350 1320, 526 1320.364, 526 1320.808 C 526 1321.253, 522.288 1322.101, 517.750 1322.693 C 513.212 1323.286, 506.575 1324.646, 503 1325.716 C 499.425 1326.785, 493.700 1329.087, 490.279 1330.830 C 486.857 1332.574, 483.467 1334, 482.745 1334 C 482.023 1334, 479.094 1335.463, 476.236 1337.250 C 473.378 1339.037, 466.956 1342.750, 461.966 1345.500 C 455.102 1349.283, 450.836 1352.599, 444.446 1359.121 C 437.541 1366.169, 436 1368.305, 436 1370.826 C 436 1373.582, 436.387 1373.982, 439.649 1374.594 C 441.655 1374.970, 447.247 1374.998, 452.074 1374.655 C 456.901 1374.313, 462.796 1373.596, 465.175 1373.062 C 467.554 1372.529, 475.125 1371.196, 482 1370.101 C 488.875 1369.006, 499.675 1366.505, 506 1364.543 C 512.325 1362.581, 518.400 1360.555, 519.500 1360.041 C 520.600 1359.528, 523.750 1358.246, 526.500 1357.193 C 529.250 1356.140, 533.975 1354.475, 537 1353.491 C 540.025 1352.508, 543.078 1351.253, 543.784 1350.701 C 544.659 1350.018, 545.828 1350.105, 547.450 1350.973 C 548.760 1351.674, 550.036 1353.029, 550.285 1353.983 C 550.644 1355.357, 547.935 1357.111, 537.268 1362.415 C 529.859 1366.098, 522.830 1370.031, 521.648 1371.155 C 520.467 1372.279, 516.855 1375.067, 513.622 1377.349 C 510.389 1379.632, 507.021 1381.950, 506.137 1382.500 C 505.253 1383.050, 503.936 1384.287, 503.209 1385.250 C 502.481 1386.212, 501.447 1387, 500.910 1387 C 500.372 1387, 498.710 1388.237, 497.216 1389.750 C 495.722 1391.263, 493.150 1393.361, 491.500 1394.413 C 489.850 1395.466, 485.506 1399.250, 481.847 1402.824 C 478.188 1406.398, 474.184 1411.344, 472.950 1413.815 C 471.320 1417.078, 470.978 1418.746, 471.701 1419.905 C 472.248 1420.782, 473.777 1422.056, 475.098 1422.735 C 476.419 1423.415, 479.438 1423.977, 481.807 1423.985 C 484.177 1423.993, 490.375 1422.615, 495.581 1420.923 C 500.788 1419.230, 506.704 1417.691, 508.728 1417.503 C 510.753 1417.315, 512.898 1416.492, 513.495 1415.675 C 514.093 1414.858, 516.363 1413.689, 518.541 1413.078 C 520.718 1412.466, 525.650 1410.196, 529.500 1408.033 C 533.350 1405.870, 538.805 1402.983, 541.623 1401.619 C 544.441 1400.254, 549.391 1397.429, 552.623 1395.342 C 555.855 1393.254, 560.014 1390.720, 561.864 1389.710 C 563.715 1388.700, 565.838 1388.108, 566.583 1388.393 C 567.327 1388.679, 568.636 1390.587, 569.491 1392.634 C 570.358 1394.708, 570.666 1396.734, 570.187 1397.213 C 569.714 1397.686, 567.566 1398.308, 565.414 1398.596 C 563.261 1398.884, 558.462 1400.024, 554.750 1401.130 C 551.038 1402.235, 548 1403.558, 548 1404.070 C 548 1404.581, 547.363 1405, 546.583 1405 C 545.804 1405, 545.017 1405.338, 544.833 1405.750 C 544.650 1406.162, 542.843 1407.737, 540.817 1409.250 C 538.791 1410.763, 536.653 1412, 536.067 1412 C 535.480 1412, 535 1412.675, 535 1413.500 C 535 1414.325, 534.506 1415, 533.901 1415 C 533.297 1415, 531.513 1416.237, 529.936 1417.750 C 528.359 1419.263, 525.591 1421.731, 523.785 1423.236 C 521.978 1424.741, 519.365 1426.991, 517.977 1428.236 C 516.590 1429.481, 514.659 1432.181, 513.687 1434.235 C 512.715 1436.290, 510.115 1440.056, 507.910 1442.604 C 505.704 1445.153, 504.035 1447.944, 504.201 1448.806 C 504.367 1449.668, 505.906 1450.737, 507.620 1451.181 C 509.334 1451.625, 515.858 1451.540, 522.118 1450.992 C 528.378 1450.444, 534.400 1449.955, 535.500 1449.904 C 536.600 1449.854, 540.824 1448.662, 544.887 1447.255 C 548.950 1445.848, 555.265 1443.053, 558.920 1441.044 C 562.575 1439.035, 567.472 1436.628, 569.802 1435.696 C 572.132 1434.764, 575.821 1432.876, 577.999 1431.500 C 580.178 1430.125, 582.628 1429, 583.445 1429 C 584.262 1429, 585.395 1429.870, 585.965 1430.934 C 586.534 1431.998, 587 1433.763, 587 1434.857 C 587 1436.278, 585.930 1437.182, 583.250 1438.026 C 581.188 1438.676, 576.350 1441.030, 572.500 1443.258 C 568.650 1445.485, 563.025 1448.890, 560 1450.823 C 556.975 1452.756, 552.813 1455.928, 550.750 1457.872 C 548.688 1459.816, 547 1461.808, 547 1462.300 C 547 1462.792, 544.759 1465.209, 542.020 1467.672 C 539.280 1470.135, 534.727 1475.710, 531.900 1480.060 C 529.073 1484.411, 526.454 1487.781, 526.080 1487.550 C 525.706 1487.319, 524.940 1487.888, 524.377 1488.815 C 523.815 1489.742, 523.387 1492.036, 523.427 1493.914 L 523.500 1497.327 530.552 1497.103 C 534.431 1496.980, 539.156 1496.496, 541.052 1496.029 C 542.948 1495.562, 548.550 1493.737, 553.500 1491.973 C 558.450 1490.209, 564.175 1487.916, 566.222 1486.877 C 568.269 1485.838, 571.419 1483.718, 573.222 1482.167 C 575.025 1480.615, 578.975 1477.776, 582 1475.857 C 585.025 1473.937, 589.402 1471.160, 591.727 1469.684 L 595.955 1467.001 597.484 1469.335 C 598.325 1470.619, 599.446 1474.781, 599.975 1478.585 C 600.504 1482.388, 601.235 1487.412, 601.600 1489.750 C 601.965 1492.088, 602.595 1494, 603 1494 C 603.405 1494, 604.477 1496.638, 605.381 1499.862 C 606.286 1503.086, 607.920 1506.755, 609.013 1508.015 C 610.106 1509.275, 611 1511.115, 611 1512.103 C 611 1513.092, 611.589 1514.260, 612.309 1514.700 C 613.029 1515.140, 614.208 1516.963, 614.930 1518.750 C 615.652 1520.537, 616.638 1522, 617.121 1522 C 617.605 1522, 618.002 1522.563, 618.005 1523.250 C 618.007 1523.938, 619.357 1525.938, 621.005 1527.696 C 622.652 1529.453, 624 1531.259, 624 1531.709 C 624 1532.159, 626.441 1534.433, 629.425 1536.763 C 632.408 1539.093, 635.661 1541, 636.653 1541 C 637.645 1541, 640.149 1539.148, 642.217 1536.885 C 644.286 1534.622, 646.846 1531.360, 647.906 1529.635 C 648.966 1527.911, 650.281 1524.025, 650.828 1521 C 651.375 1517.975, 651.509 1515.050, 651.126 1514.500 C 650.743 1513.950, 650.285 1509.675, 650.108 1505 C 649.930 1500.325, 649.443 1495.825, 649.024 1495 C 648.606 1494.175, 647.942 1491.700, 647.549 1489.500 C 647.156 1487.300, 646.094 1483.925, 645.188 1482 C 644.283 1480.075, 642.896 1477.743, 642.106 1476.817 C 641.316 1475.891, 639.732 1472.955, 638.585 1470.291 C 637.438 1467.627, 635.456 1463.780, 634.180 1461.742 C 632.904 1459.704, 632.174 1457.527, 632.559 1456.905 C 633.039 1456.129, 635.021 1456.013, 638.879 1456.537 C 641.971 1456.956, 653.950 1457.345, 665.500 1457.400 C 682.123 1457.479, 687.959 1457.145, 693.500 1455.799 C 697.350 1454.863, 703.237 1453.364, 706.582 1452.468 C 711.292 1451.206, 713.045 1450.194, 714.350 1447.984 C 716.024 1445.151, 716.012 1445.112, 712.768 1442.716 C 710.971 1441.388, 707.476 1439.518, 705.003 1438.560 C 702.530 1437.602, 700.280 1436.522, 700.003 1436.159 C 699.726 1435.797, 697.806 1434.717, 695.736 1433.760 C 693.666 1432.802, 690.066 1431.727, 687.736 1431.371 C 685.406 1431.014, 682.285 1430.109, 680.800 1429.361 C 679.314 1428.612, 675.189 1428, 671.633 1428 C 667.592 1428, 665.021 1427.562, 664.777 1426.832 C 664.486 1425.957, 663.276 1425.937, 659.944 1426.753 C 657.500 1427.351, 650.325 1427.900, 644 1427.972 C 637.675 1428.044, 630.797 1428.246, 628.715 1428.420 C 626.633 1428.595, 624.645 1429.021, 624.298 1429.369 C 623.951 1429.716, 621.717 1430, 619.333 1430 C 616.950 1430, 615 1429.622, 615 1429.160 C 615 1428.698, 616.688 1427.817, 618.750 1427.202 C 620.813 1426.587, 624.862 1425.530, 627.750 1424.853 C 630.638 1424.176, 633 1423.314, 633 1422.939 C 633 1422.563, 634.688 1421.979, 636.750 1421.641 C 638.813 1421.303, 643.875 1419.292, 648 1417.171 C 652.125 1415.051, 657.750 1412.476, 660.500 1411.450 C 663.250 1410.424, 669.100 1407.341, 673.500 1404.600 C 677.900 1401.859, 683.148 1398.346, 685.162 1396.794 C 687.176 1395.242, 690.384 1393.320, 692.291 1392.523 C 694.197 1391.726, 696.037 1390.346, 696.379 1389.455 C 696.720 1388.565, 697 1387.043, 697 1386.073 C 697 1385.103, 696.149 1383.540, 695.109 1382.599 C 693.844 1381.454, 690.785 1380.707, 685.859 1380.340 C 681.812 1380.038, 677.150 1379.813, 675.500 1379.839 C 673.850 1379.865, 669.350 1380.294, 665.500 1380.793 C 661.650 1381.291, 654 1382.728, 648.500 1383.986 C 643 1385.243, 638.072 1386.661, 637.550 1387.136 C 637.027 1387.611, 635.596 1388, 634.368 1388 C 633.141 1388, 628.393 1389.373, 623.818 1391.050 C 619.243 1392.728, 613.578 1395.022, 611.230 1396.149 C 608.881 1397.276, 606.357 1397.967, 605.621 1397.685 C 604.885 1397.402, 603.989 1395.333, 603.630 1393.086 C 603.270 1390.839, 602.532 1389, 601.988 1389 C 601.445 1389, 601 1388.137, 601 1387.083 C 601 1385.589, 602.116 1384.926, 606.049 1384.083 C 608.826 1383.487, 611.864 1382.997, 612.799 1382.994 C 613.735 1382.990, 615.789 1382.315, 617.364 1381.494 C 618.940 1380.672, 621.752 1380, 623.614 1380 C 625.476 1380, 627 1379.570, 627 1379.045 C 627 1378.520, 628.688 1377.810, 630.750 1377.467 C 632.813 1377.124, 637.200 1375.956, 640.500 1374.870 C 643.800 1373.785, 647.850 1372.531, 649.500 1372.084 C 651.150 1371.637, 656.438 1369.670, 661.250 1367.714 C 666.063 1365.757, 670.007 1364.459, 670.015 1364.828 C 670.024 1365.198, 670.384 1364.943, 670.816 1364.263 C 671.248 1363.583, 676.469 1361.015, 682.418 1358.557 C 688.366 1356.099, 695.179 1353.796, 697.556 1353.439 C 699.934 1353.083, 702.592 1352.003, 703.464 1351.040 C 704.338 1350.074, 704.766 1348.553, 704.417 1347.645 C 704.070 1346.740, 703.356 1346, 702.831 1346 C 702.306 1346, 699.522 1344.886, 696.645 1343.525 C 693.768 1342.164, 688.283 1340.522, 684.457 1339.876 C 680.631 1339.230, 671.209 1338.819, 663.520 1338.963 C 655.830 1339.107, 648.509 1339.616, 647.250 1340.095 C 645.992 1340.574, 639.683 1341.464, 633.231 1342.074 C 626.779 1342.684, 619.250 1343.874, 616.500 1344.719 C 613.750 1345.564, 609.572 1347.116, 607.217 1348.168 C 604.861 1349.220, 600.450 1350.579, 597.415 1351.189 C 593.853 1351.904, 591.553 1351.953, 590.928 1351.328 C 590.394 1350.794, 589.682 1347.398, 589.344 1343.779 L 588.730 1337.201 594.115 1336.736 C 597.077 1336.481, 603.775 1335.761, 609 1335.137 C 614.225 1334.512, 622.775 1333.500, 628 1332.888 C 633.225 1332.276, 642 1330.912, 647.500 1329.857 C 653 1328.802, 661.550 1326.562, 666.500 1324.879 C 671.450 1323.197, 679.325 1320.320, 684 1318.488 C 688.675 1316.655, 695.434 1313.658, 699.019 1311.828 C 703.442 1309.570, 707.564 1306.315, 711.833 1301.707 C 716.302 1296.883, 718.037 1294.273, 717.814 1292.707 C 717.543 1290.801, 716.790 1290.459, 712.291 1290.199 C 709.426 1290.034, 704.732 1290.596, 701.859 1291.449 C 698.987 1292.302, 693.043 1293, 688.650 1293 C 684.258 1293, 677.705 1293.515, 674.089 1294.145 C 669.187 1294.999, 664.842 1295.004, 657.008 1294.168 C 649.830 1293.402, 642.063 1293.337, 632.500 1293.963 C 624.800 1294.467, 614.900 1295.157, 610.500 1295.496 C 606.100 1295.834, 600.925 1296.498, 599 1296.970 C 597.075 1297.443, 592.520 1298.692, 588.878 1299.745 C 583.650 1301.257, 581.913 1301.410, 580.628 1300.470 C 579.733 1299.815, 579 1298.118, 579 1296.699 C 579 1295.279, 578.550 1293.840, 578 1293.500 C 577.450 1293.160, 577 1290.482, 577 1287.548 C 577 1283.412, 577.393 1282.050, 578.750 1281.485 C 579.712 1281.084, 587.250 1280.606, 595.500 1280.423 C 603.750 1280.240, 612.750 1279.818, 615.500 1279.485 C 618.250 1279.153, 624.775 1278.450, 630 1277.925 C 635.225 1277.399, 645.575 1276.260, 653 1275.393 C 660.425 1274.525, 668.525 1273.350, 671 1272.780 C 673.475 1272.210, 678.495 1270.902, 682.155 1269.872 C 685.816 1268.842, 689.573 1268, 690.504 1268 C 691.436 1268, 693.616 1267.359, 695.349 1266.576 C 697.082 1265.792, 700.885 1264.667, 703.799 1264.076 C 706.714 1263.484, 710.440 1263, 712.081 1263 C 713.915 1263, 715.304 1262.372, 715.688 1261.369 C 716.033 1260.473, 715.498 1258.223, 714.500 1256.369 C 713.502 1254.516, 711.946 1253, 711.043 1253 C 710.139 1253, 708.973 1252.588, 708.450 1252.083 C 707.928 1251.579, 705.402 1250.061, 702.838 1248.709 C 700.171 1247.304, 695.249 1245.898, 691.338 1245.424 C 687.577 1244.969, 678.200 1244.728, 670.500 1244.887 C 659.744 1245.110, 655.457 1244.812, 652 1243.603 C 649.525 1242.737, 646.269 1242.023, 644.764 1242.015 C 643.260 1242.007, 639.885 1241.485, 637.264 1240.856 C 634.644 1240.227, 628.940 1238.652, 624.589 1237.356 C 620.238 1236.060, 615.132 1235, 613.243 1235 C 611.353 1235, 607.489 1234.329, 604.654 1233.508 C 601.042 1232.462, 596.358 1232.132, 589 1232.403 C 583.225 1232.616, 577.487 1233.115, 576.250 1233.512 C 574.191 1234.172, 574 1233.918, 574 1230.516 L 574 1226.799 578.250 1227.371 C 580.587 1227.686, 585.650 1228.400, 589.500 1228.957 C 593.350 1229.515, 601.900 1230.029, 608.500 1230.101 C 615.100 1230.172, 623.192 1229.921, 626.482 1229.544 C 629.773 1229.167, 632.923 1228.500, 633.482 1228.060 C 634.042 1227.621, 636.750 1226.783, 639.500 1226.197 C 642.250 1225.611, 646.300 1224.878, 648.500 1224.569 C 650.700 1224.260, 653.775 1223.765, 655.333 1223.469 C 656.891 1223.173, 669.716 1218.637, 683.833 1213.388 C 697.950 1208.140, 713.325 1202.355, 718 1200.533 C 725.774 1197.503, 726.526 1196.970, 726.800 1194.285 C 727.066 1191.689, 726.607 1191.127, 722.833 1189.425 C 720.485 1188.366, 718.325 1187.467, 718.032 1187.427 C 717.740 1187.387, 715.025 1187.023, 712 1186.618 C 708.975 1186.213, 701.775 1185.882, 696 1185.883 C 690.225 1185.884, 680.550 1186.042, 674.500 1186.234 C 666.653 1186.483, 661.635 1186.116, 656.993 1184.954 C 653.414 1184.058, 648.914 1182.623, 646.993 1181.765 C 645.072 1180.907, 639.450 1178.640, 634.500 1176.728 C 629.550 1174.815, 623.700 1172.765, 621.500 1172.172 C 619.300 1171.579, 615.943 1170.825, 614.041 1170.496 C 612.138 1170.167, 609.987 1169.404, 609.260 1168.801 C 608.437 1168.118, 603.524 1167.775, 596.220 1167.891 C 586.783 1168.042, 583.763 1168.460, 580.719 1170.039 C 578.640 1171.118, 575.993 1172, 574.838 1172 C 573.006 1172, 572.809 1171.564, 573.293 1168.581 C 573.598 1166.700, 574.584 1164.038, 575.483 1162.666 C 576.940 1160.442, 578.014 1160.104, 585.309 1159.569 C 589.814 1159.239, 595.750 1159.089, 598.500 1159.235 C 601.250 1159.381, 603.764 1159.858, 604.087 1160.296 C 604.410 1160.733, 608.010 1161.304, 612.087 1161.565 C 616.164 1161.825, 622.875 1162.240, 627 1162.486 C 631.125 1162.733, 638.775 1163.391, 644 1163.948 C 649.225 1164.505, 657.325 1165.202, 662 1165.497 C 666.675 1165.791, 674.325 1166.242, 679 1166.499 C 683.675 1166.756, 691.100 1167.286, 695.500 1167.677 C 699.900 1168.067, 708.900 1168.283, 715.500 1168.155 C 722.100 1168.028, 730.875 1167.465, 735 1166.905 C 739.125 1166.344, 743.962 1165.666, 745.750 1165.398 C 747.778 1165.093, 749 1164.337, 749 1163.389 C 749 1162.553, 748.516 1160.964, 747.924 1159.858 C 747.333 1158.753, 743.949 1156.548, 740.406 1154.958 C 736.862 1153.368, 733.698 1151.377, 733.374 1150.534 C 733.051 1149.690, 732.254 1149, 731.604 1149 C 730.955 1149, 728.640 1148.085, 726.461 1146.967 C 724.283 1145.848, 721.825 1144.790, 721 1144.614 C 720.175 1144.439, 716.900 1143.104, 713.721 1141.648 C 710.543 1140.191, 707.393 1138.986, 706.721 1138.968 C 706.050 1138.951, 704.626 1138.276, 703.559 1137.468 C 702.491 1136.661, 700.984 1136, 700.210 1136 C 699.436 1136, 697.384 1135.369, 695.651 1134.598 C 693.918 1133.827, 689.800 1131.964, 686.500 1130.459 C 683.200 1128.954, 676 1125.605, 670.500 1123.017 C 665 1120.429, 657.350 1117.494, 653.500 1116.494 C 649.650 1115.494, 645.774 1114.059, 644.886 1113.306 C 643.999 1112.553, 641.749 1111.776, 639.886 1111.579 C 638.024 1111.382, 632 1110.669, 626.500 1109.994 C 621 1109.319, 608.466 1108.645, 598.647 1108.495 C 584.405 1108.278, 580.493 1107.921, 579.300 1106.728 C 578.116 1105.544, 578.043 1104.789, 578.949 1103.096 C 579.578 1101.920, 579.850 1100.566, 579.554 1100.087 C 579.257 1099.607, 580.131 1096.692, 581.495 1093.608 C 582.904 1090.422, 584.617 1088, 585.462 1088 C 586.281 1088, 589.779 1089.296, 593.238 1090.880 C 596.696 1092.464, 601.995 1094.261, 605.013 1094.873 C 608.031 1095.486, 613.650 1096.447, 617.500 1097.010 C 621.350 1097.572, 628.100 1098.475, 632.500 1099.016 C 636.900 1099.556, 644.325 1100.228, 649 1100.508 C 653.675 1100.788, 660.374 1101.250, 663.887 1101.534 C 667.400 1101.819, 670.694 1102.311, 671.207 1102.628 C 671.721 1102.945, 675.147 1103.841, 678.820 1104.618 C 682.494 1105.394, 686.850 1106.253, 688.500 1106.525 C 690.150 1106.797, 693.662 1107.516, 696.304 1108.123 C 698.946 1108.729, 701.343 1108.991, 701.629 1108.704 C 701.916 1108.417, 703.478 1108.564, 705.101 1109.029 C 706.724 1109.495, 712.653 1110.192, 718.276 1110.579 C 723.899 1110.966, 733.268 1111.331, 739.095 1111.391 C 746.737 1111.470, 750.151 1111.118, 751.345 1110.128 C 752.255 1109.373, 753 1107.685, 753 1106.378 C 753 1105.070, 752.663 1103.990, 752.250 1103.977 C 751.837 1103.964, 749.700 1102.330, 747.500 1100.345 C 745.300 1098.360, 740.125 1095.077, 736 1093.050 C 731.875 1091.022, 727.600 1088.848, 726.500 1088.217 C 725.400 1087.586, 722.387 1086.154, 719.805 1085.035 C 717.223 1083.916, 714.635 1083, 714.055 1083 C 713.475 1083, 713 1082.660, 713 1082.244 C 713 1081.828, 711.538 1080.883, 709.750 1080.143 C 707.962 1079.404, 705.150 1078.218, 703.500 1077.509 C 701.850 1076.800, 697.982 1075.045, 694.904 1073.610 C 691.825 1072.174, 688.531 1071, 687.582 1071 C 686.633 1071, 685.182 1070.325, 684.357 1069.500 C 683.532 1068.675, 681.819 1068, 680.551 1068 C 679.283 1068, 677.685 1067.325, 677 1066.500 C 676.315 1065.675, 674.663 1065, 673.328 1065 C 671.993 1065, 669.550 1064.301, 667.899 1063.448 C 666.248 1062.594, 663.400 1061.704, 661.571 1061.469 C 659.742 1061.235, 657.036 1060.584, 655.557 1060.022 C 654.079 1059.460, 651.967 1059, 650.863 1059 C 649.760 1059, 648.182 1058.325, 647.357 1057.500 C 646.532 1056.675, 644.652 1055.947, 643.179 1055.882 C 641.705 1055.816, 640.172 1055.813, 639.771 1055.874 C 639.371 1055.936, 636.671 1055.382, 633.771 1054.644 C 630.704 1053.864, 621.812 1053.208, 612.508 1053.076 C 603.712 1052.951, 596.307 1052.640, 596.052 1052.385 C 595.796 1052.130, 596.426 1050.364, 597.451 1048.461 C 598.476 1046.557, 599.592 1045, 599.930 1045 C 600.268 1045, 601.393 1043.425, 602.430 1041.500 C 603.467 1039.575, 605.032 1038.005, 605.907 1038.011 C 606.783 1038.017, 611.325 1039.812, 616 1042 C 620.675 1044.188, 625.028 1045.983, 625.674 1045.989 C 626.320 1045.995, 630.149 1047.321, 634.183 1048.937 C 638.216 1050.552, 642.863 1052.146, 644.508 1052.479 C 646.154 1052.812, 653.152 1053.487, 660.061 1053.979 C 666.969 1054.471, 673.044 1054.989, 673.561 1055.130 C 674.077 1055.271, 683.500 1055.056, 694.500 1054.653 C 705.500 1054.250, 716.525 1053.505, 719 1052.997 C 721.475 1052.489, 728 1051.602, 733.500 1051.026 C 739 1050.450, 746.425 1049.324, 750 1048.524 C 753.575 1047.725, 760.325 1046.569, 765 1045.955 C 769.675 1045.341, 774.918 1044.608, 776.651 1044.326 C 778.943 1043.954, 779.923 1043.184, 780.244 1041.503 C 780.487 1040.231, 780.284 1038.473, 779.793 1037.595 C 779.302 1036.718, 778.338 1036, 777.650 1036 C 776.963 1036, 775.867 1035.467, 775.216 1034.816 C 774.564 1034.164, 773.237 1033.512, 772.266 1033.366 C 771.295 1033.220, 766.466 1031.728, 761.536 1030.050 C 756.607 1028.373, 751.512 1027, 750.215 1027 C 748.918 1027, 747.182 1026.325, 746.357 1025.500 C 745.532 1024.675, 743.569 1024, 741.994 1024 C 740.419 1024, 738.051 1023.590, 736.732 1023.088 C 735.413 1022.587, 732.745 1021.924, 730.803 1021.615 C 728.862 1021.307, 726.057 1020.592, 724.571 1020.027 C 723.086 1019.462, 720.554 1019, 718.946 1019 C 717.338 1019, 712.598 1018.061, 708.413 1016.913 C 704.228 1015.764, 698.486 1013.584, 695.652 1012.068 C 692.818 1010.552, 687.800 1008.544, 684.500 1007.605 C 681.200 1006.667, 676.311 1005.247, 673.635 1004.449 C 670.960 1003.652, 667.697 1003, 666.385 1003 C 665.073 1003, 664 1002.580, 664 1002.067 C 664 1001.554, 662.987 1000.789, 661.750 1000.367 C 660.513 999.944, 658.375 999.518, 657 999.419 C 655.625 999.321, 650 998.900, 644.500 998.484 C 639 998.067, 633.941 997.286, 633.258 996.747 C 632.306 995.997, 632.677 994.918, 634.842 992.134 C 636.396 990.135, 637.953 987.712, 638.302 986.750 C 638.652 985.788, 639.866 985, 641.001 985 C 642.136 985, 644.625 985.652, 646.532 986.449 C 648.439 987.246, 650 987.712, 650 987.485 C 650 987.257, 652.104 987.973, 654.675 989.075 C 657.247 990.177, 659.908 990.865, 660.590 990.604 C 661.271 990.342, 663.477 990.968, 665.490 991.995 C 667.504 993.022, 670.363 993.827, 671.844 993.785 C 673.325 993.743, 676.032 994.483, 677.861 995.428 C 679.690 996.374, 681.403 996.930, 681.668 996.665 C 681.933 996.400, 683.579 996.609, 685.325 997.130 C 687.071 997.650, 692.100 998.561, 696.500 999.154 C 700.900 999.746, 705.904 1000.355, 707.619 1000.506 C 709.335 1000.658, 711.759 1001.106, 713.005 1001.502 C 714.252 1001.897, 721.232 1002.337, 728.517 1002.478 C 735.801 1002.619, 742.316 1003.077, 742.994 1003.496 C 743.672 1003.915, 749.463 1003.936, 755.863 1003.542 C 762.263 1003.149, 767.950 1002.490, 768.500 1002.079 C 769.050 1001.667, 772.200 1000.757, 775.500 1000.057 C 778.800 999.356, 784.200 997.874, 787.500 996.763 C 790.800 995.651, 794.288 994.056, 795.250 993.216 C 796.212 992.377, 797 990.705, 797 989.500 C 797 988.295, 796.212 986.654, 795.250 985.853 C 794.288 985.051, 791.475 983.424, 789 982.236 C 786.525 981.048, 780.675 978.934, 776 977.539 C 771.325 976.144, 764.800 974.048, 761.500 972.881 C 758.200 971.714, 752.350 969.859, 748.500 968.758 C 744.650 967.657, 740.306 966.136, 738.846 965.378 C 737.386 964.620, 735.445 964, 734.534 964 C 733.622 964, 730.541 963.302, 727.688 962.448 C 724.835 961.594, 720.700 960.093, 718.500 959.111 C 716.300 958.129, 712.925 956.763, 711 956.076 C 709.075 955.389, 704.350 954.233, 700.500 953.507 C 696.650 952.782, 691.475 951.740, 689 951.194 C 686.525 950.647, 679.601 950.183, 673.612 950.162 C 667.156 950.140, 662.282 949.682, 661.637 949.037 C 660.854 948.254, 660.943 947.327, 661.953 945.725 C 662.724 944.501, 664.063 942.150, 664.928 940.500 C 665.792 938.850, 666.593 937.332, 666.707 937.127 C 666.821 936.921, 668.676 937.672, 670.831 938.795 C 672.985 939.918, 676.267 941.301, 678.124 941.869 C 679.981 942.437, 684.875 944.089, 689 945.540 C 693.125 946.991, 698.300 948.389, 700.500 948.646 C 702.700 948.904, 705.625 949.504, 707 949.981 C 708.375 950.458, 712.200 951.087, 715.500 951.381 C 718.800 951.674, 732.975 951.298, 747 950.545 C 761.025 949.792, 775.875 948.897, 780 948.555 C 784.125 948.213, 794.250 947.493, 802.500 946.955 C 810.750 946.416, 819.413 945.709, 821.750 945.383 C 824.087 945.057, 826 944.415, 826 943.956 C 826 943.498, 828.030 942.818, 830.512 942.446 C 832.993 942.074, 836.143 940.889, 837.512 939.812 C 838.880 938.736, 840 936.993, 840 935.940 C 840 934.802, 838.478 933.092, 836.250 931.727 C 834.188 930.463, 831.263 928.892, 829.750 928.236 C 828.237 927.580, 827 926.583, 827 926.021 C 827 925.460, 826.482 925, 825.849 925 C 825.216 925, 820.379 922.953, 815.099 920.450 C 809.820 917.948, 804.712 915.473, 803.750 914.950 C 802.788 914.428, 801.212 913.582, 800.250 913.072 C 799.288 912.562, 796.165 911.437, 793.312 910.572 C 790.459 909.707, 787.167 909, 785.996 909 C 784.826 909, 783.047 908.560, 782.043 908.023 C 781.039 907.486, 778.706 906.817, 776.859 906.537 C 775.011 906.257, 771.475 905.586, 769 905.046 C 766.525 904.505, 758.875 903.397, 752 902.582 C 741.946 901.390, 735.097 901.279, 717 902.018 C 704.625 902.523, 692.332 903.393, 689.683 903.950 C 687.034 904.508, 684.537 905.168, 684.135 905.416 C 683.733 905.665, 682.833 905.515, 682.133 905.082 C 681.121 904.456, 681.194 903.284, 682.493 899.311 C 683.390 896.569, 685.022 892.848, 686.121 891.041 C 688.036 887.892, 688.311 887.782, 692.809 888.379 C 695.389 888.721, 700.650 889.468, 704.500 890.038 C 708.350 890.608, 718.025 891.274, 726 891.517 C 733.975 891.760, 743.697 892.036, 747.604 892.129 C 751.511 892.222, 755.111 892.057, 755.604 891.762 C 756.097 891.467, 763.146 891.231, 771.268 891.238 C 779.391 891.244, 786.274 891.635, 786.565 892.105 C 786.855 892.575, 789.885 892.682, 793.297 892.343 C 796.708 892.003, 799.950 891.397, 800.500 890.995 C 801.050 890.593, 805.100 889.963, 809.500 889.594 C 813.900 889.224, 819.975 888.475, 823 887.928 C 826.025 887.382, 833.675 886.240, 840 885.391 C 846.325 884.542, 853.750 883.544, 856.500 883.173 C 861.338 882.522, 861.489 882.403, 861.175 879.500 C 860.997 877.850, 860.165 875.052, 859.327 873.282 C 858.488 871.512, 855.360 867.687, 852.374 864.782 C 849.388 861.877, 845.735 859.093, 844.257 858.595 C 842.779 858.097, 840.879 856.907, 840.035 855.949 C 839.191 854.992, 835.800 853.413, 832.500 852.440 C 829.200 851.468, 825.974 850.271, 825.332 849.781 C 824.689 849.292, 820.461 848.006, 815.935 846.925 C 811.409 845.845, 807.494 845.173, 807.234 845.432 C 806.974 845.692, 806.066 845.209, 805.216 844.359 C 803.856 842.999, 799.925 842.900, 772.484 843.540 C 754.761 843.953, 740.617 843.885, 739.720 843.383 C 738.728 842.828, 742.295 842.474, 749.321 842.430 C 755.469 842.392, 764.550 842.086, 769.500 841.751 C 774.450 841.416, 779.625 840.724, 781 840.213 C 782.375 839.702, 787.888 838.712, 793.250 838.013 C 798.612 837.314, 803 836.390, 803 835.959 C 803 835.528, 804.913 834.861, 807.250 834.475 C 809.587 834.090, 815.935 832.025, 821.356 829.887 C 826.777 827.749, 831.817 826, 832.557 826 C 833.296 826, 834.260 825.411, 834.700 824.691 C 835.140 823.971, 836.962 822.792, 838.750 822.070 C 840.538 821.348, 842 820.348, 842 819.847 C 842 819.347, 842.788 818.636, 843.750 818.267 C 844.712 817.898, 847.075 816.573, 849 815.323 C 850.925 814.072, 853.513 812.034, 854.750 810.795 C 855.987 809.556, 857 807.620, 857 806.494 C 857 805.367, 856.325 803.481, 855.499 802.303 C 854.674 801.124, 851.862 799.504, 849.249 798.702 C 846.637 797.900, 841.575 796.762, 838 796.173 C 834.425 795.584, 828.575 794.639, 825 794.074 C 821.425 793.508, 812.425 792.845, 805 792.601 C 797.575 792.357, 788.125 791.629, 784 790.985 C 779.875 790.340, 773.575 790.081, 770 790.410 C 766.425 790.738, 762.263 790.998, 760.750 790.987 C 759.237 790.977, 758 791.425, 758 791.984 C 758 792.543, 756.387 793, 754.417 793 C 752.446 793, 747.462 794.350, 743.341 796 C 739.220 797.650, 735.243 799, 734.502 799 C 733.761 799, 728.058 800.862, 721.828 803.138 C 715.597 805.414, 710.275 807.600, 710 807.997 C 709.725 808.394, 707.869 809.301, 705.876 810.014 C 703.883 810.727, 701.520 811.030, 700.626 810.687 C 699.515 810.260, 699 808.846, 699 806.223 C 699 804.110, 699.563 801.614, 700.250 800.675 C 701.126 799.479, 703.896 798.693, 709.500 798.050 C 713.900 797.545, 720.526 796.645, 724.225 796.051 C 727.923 795.456, 732.198 794.481, 733.725 793.885 C 735.251 793.288, 737.850 792.575, 739.500 792.301 C 741.150 792.026, 743.235 791.409, 744.134 790.928 C 745.033 790.447, 749.983 788.974, 755.134 787.653 C 760.285 786.333, 766.300 784.933, 768.500 784.543 C 770.700 784.153, 773.850 783.209, 775.500 782.444 C 777.150 781.680, 782.325 780.349, 787 779.488 C 791.675 778.626, 801.350 777.449, 808.500 776.873 C 815.650 776.297, 832.975 775.752, 847 775.663 L 872.500 775.500 872.839 773.101 C 873.026 771.781, 872.616 769.651, 871.929 768.367 C 871.242 767.084, 869.926 765.794, 869.005 765.501 C 868.083 765.209, 865.568 763.371, 863.415 761.418 C 861.262 759.464, 857.700 756.606, 855.500 755.065 C 853.300 753.525, 849.387 751.305, 846.805 750.132 C 844.223 748.959, 841.458 748, 840.662 748 C 839.866 748, 838.973 747.372, 838.678 746.604 C 838.384 745.836, 835.973 744.494, 833.321 743.622 C 830.670 742.750, 825.350 741.610, 821.500 741.091 C 817.650 740.571, 809.550 740.121, 803.500 740.092 C 797.450 740.062, 786.875 740.481, 780 741.023 C 773.125 741.564, 764.350 742.687, 760.500 743.518 C 756.650 744.349, 747.200 746.113, 739.500 747.437 C 731.800 748.761, 723.250 750.363, 720.500 750.997 C 717.750 751.631, 714.150 752.749, 712.500 753.482 C 710.850 754.215, 707.475 754.968, 705 755.157 L 700.500 755.500 699.793 748.413 C 699.404 744.515, 699.439 740.015, 699.870 738.413 C 700.524 735.985, 701.141 735.525, 703.577 735.650 C 705.185 735.733, 708.975 736.191, 712 736.669 C 715.319 737.193, 726.225 737.085, 739.500 736.398 C 751.600 735.771, 766 734.548, 771.500 733.680 C 777 732.811, 785.536 730.926, 790.469 729.491 C 795.401 728.056, 799.901 726.517, 800.469 726.071 C 801.036 725.625, 803.300 724.694, 805.500 724.002 C 807.700 723.310, 812.425 721.143, 816 719.187 C 819.575 717.232, 825.742 713.464, 829.705 710.816 C 833.668 708.167, 837.310 706, 837.800 706 C 838.289 706, 839.505 705.100, 840.500 704 C 841.495 702.900, 842.739 702, 843.264 702 C 843.789 702, 845.286 700.987, 846.592 699.750 C 847.897 698.513, 848.973 697.007, 848.983 696.405 C 848.992 695.803, 849.900 694.495, 851 693.500 C 852.100 692.505, 853 690.915, 853 689.967 C 853 689.020, 852.321 687.681, 851.491 686.992 C 850.410 686.095, 845.690 685.781, 834.873 685.884 C 826.563 685.963, 819.255 686.347, 818.632 686.736 C 818.009 687.125, 813.225 687.758, 808 688.141 C 802.775 688.524, 785.450 689.537, 769.500 690.392 C 753.550 691.248, 738.250 692.226, 735.500 692.566 C 732.750 692.906, 726.675 694.299, 722 695.662 C 717.325 697.025, 711.025 698.773, 708 699.548 C 704.975 700.322, 701.712 700.710, 700.750 700.410 C 699.435 700.001, 699 698.784, 699 695.516 C 699 692.927, 699.506 690.997, 700.250 690.748 C 700.938 690.517, 703.075 690.624, 705 690.985 C 706.925 691.345, 713.225 691.556, 719 691.453 C 724.775 691.351, 734.900 690.725, 741.500 690.062 C 748.100 689.400, 755.300 688.381, 757.500 687.798 C 759.700 687.216, 763.332 685.933, 765.571 684.948 C 767.811 683.963, 771.411 682.868, 773.571 682.515 C 775.732 682.161, 779.525 681.183, 782 680.342 C 784.475 679.500, 788.075 678.134, 790 677.307 C 791.925 676.480, 795.075 675.008, 797 674.036 C 798.925 673.065, 802.300 671.257, 804.500 670.018 C 806.700 668.779, 809.625 667.015, 811 666.097 C 812.375 665.179, 814.650 663.852, 816.056 663.149 C 817.463 662.445, 821.779 658.636, 825.648 654.685 C 829.518 650.733, 834.105 645.520, 835.842 643.100 C 837.579 640.680, 839 637.844, 839 636.799 C 839 635.551, 837.725 634.365, 835.287 633.347 C 832.671 632.254, 828.904 631.866, 822.537 632.035 C 817.567 632.167, 812.150 632.217, 810.500 632.146 C 808.850 632.075, 803.225 632.724, 798 633.589 C 792.775 634.454, 786.250 635.761, 783.500 636.494 C 780.561 637.278, 766.958 638.291, 750.500 638.952 C 735.100 639.570, 720.328 640.509, 717.674 641.038 C 715.019 641.567, 710.407 642, 707.424 642 L 702 642 702 636.598 C 702 631.438, 702.141 631.146, 705.149 630.098 C 706.881 629.494, 711.944 629.003, 716.399 629.006 C 720.855 629.009, 730.800 628.295, 738.500 627.419 C 746.200 626.543, 756.100 624.753, 760.500 623.441 C 764.900 622.129, 770.750 620.289, 773.500 619.352 C 776.250 618.415, 778.725 617.328, 779 616.936 C 779.275 616.545, 781.228 615.505, 783.339 614.626 C 785.451 613.747, 788.477 611.935, 790.064 610.600 C 791.651 609.265, 795.548 606.912, 798.724 605.372 C 802.449 603.566, 807.131 599.896, 811.909 595.036 C 815.984 590.891, 819.972 586.739, 820.772 585.809 C 821.572 584.878, 822.851 582.914, 823.613 581.444 C 824.376 579.974, 825 577.923, 825 576.886 C 825 575.849, 824.559 575, 824.019 575 C 823.480 575, 822.753 573.863, 822.404 572.474 C 822.055 571.084, 820.924 569.495, 819.891 568.942 C 818.858 568.389, 815.727 568.063, 812.934 568.218 C 810.141 568.373, 804.851 569.327, 801.178 570.337 M 756.308 611.363 C 753.452 612.566, 750.790 613.877, 750.391 614.276 C 749.993 614.674, 750.529 614.964, 751.583 614.920 C 752.638 614.876, 755.717 614.088, 758.428 613.170 C 761.138 612.251, 763.538 610.938, 763.761 610.250 C 763.984 609.563, 763.567 609.039, 762.833 609.087 C 762.100 609.135, 759.164 610.159, 756.308 611.363 M 522.250 637.662 C 521.563 637.940, 521 638.579, 521 639.083 C 521 639.587, 524.712 639.995, 529.250 639.989 C 533.788 639.983, 539.188 639.699, 541.250 639.358 C 543.313 639.017, 545 638.347, 545 637.869 C 545 637.391, 540.163 637.036, 534.250 637.079 C 528.337 637.122, 522.938 637.385, 522.250 637.662 M 756 674.036 C 752.425 674.462, 747.250 675.700, 744.500 676.788 C 741.750 677.875, 739.500 679.380, 739.500 680.133 C 739.500 681.103, 740.808 681.469, 744 681.392 C 746.475 681.332, 751.650 680.740, 755.500 680.075 C 759.350 679.410, 764.413 677.994, 766.750 676.928 C 769.087 675.862, 771 674.542, 771 673.995 C 771 673.448, 769.087 673.059, 766.750 673.131 C 764.413 673.204, 759.575 673.611, 756 674.036 M 510 697.420 C 510 697.650, 512.138 698.542, 514.750 699.401 C 517.362 700.259, 521.300 701.224, 523.500 701.544 C 525.700 701.864, 529.075 702.545, 531 703.057 C 532.925 703.570, 535.288 703.991, 536.250 703.994 C 537.212 703.997, 538 703.585, 538 703.078 C 538 702.570, 536.387 701.623, 534.415 700.972 C 532.444 700.321, 527.831 699.161, 524.166 698.394 C 520.500 697.628, 515.813 697, 513.750 697 C 511.688 697, 510 697.189, 510 697.420 M 769.500 719.032 C 766.200 719.421, 760.907 720.732, 757.738 721.946 C 754.569 723.160, 752.201 724.516, 752.476 724.961 C 752.751 725.406, 754.444 725.988, 756.238 726.254 C 758.032 726.521, 763.936 725.668, 769.358 724.359 C 774.780 723.050, 779.900 721.596, 780.736 721.128 C 781.573 720.660, 781.862 720.052, 781.378 719.777 C 780.895 719.502, 779.375 719.062, 778 718.801 C 776.625 718.539, 772.800 718.643, 769.500 719.032 M 621.425 736.756 C 620.833 737.165, 619.599 738.850, 618.681 740.500 C 617.764 742.150, 616.148 745.586, 615.091 748.135 C 614.034 750.684, 612.273 756.534, 611.176 761.135 C 610.079 765.736, 608.666 771.975, 608.036 775 C 607.406 778.025, 606.320 787.925, 605.623 797 C 604.835 807.262, 604.628 818.226, 605.074 826 C 605.469 832.875, 606.276 840.952, 606.867 843.948 C 607.572 847.519, 608.843 850.276, 610.555 851.948 L 613.168 854.500 614.834 852.073 C 615.750 850.739, 617.547 846.914, 618.826 843.573 C 620.106 840.233, 622.236 831.650, 623.561 824.500 C 624.885 817.350, 626.438 809.475, 627.011 807 C 627.583 804.525, 628.467 799.250, 628.974 795.278 C 629.482 791.306, 629.707 778.983, 629.476 767.895 C 629.145 752.030, 628.730 747.237, 627.528 745.402 C 626.687 744.120, 626 742.429, 626 741.646 C 626 740.863, 625.212 739.274, 624.250 738.117 C 623.286 736.957, 622.017 736.346, 621.425 736.756 M 504.666 748.072 C 502.887 749.160, 502.887 749.231, 504.666 750.448 C 505.675 751.137, 508.705 751.994, 511.399 752.352 C 514.094 752.710, 516.924 753.522, 517.689 754.157 C 518.454 754.792, 523.112 755.506, 528.040 755.745 C 533.441 756.006, 537 755.794, 537 755.211 C 537 754.679, 534.367 753.259, 531.150 752.056 C 527.932 750.853, 522.645 749.449, 519.400 748.936 C 516.155 748.424, 511.925 747.768, 510 747.478 C 508.075 747.188, 505.675 747.456, 504.666 748.072 M 759.062 775.608 C 755.522 776.382, 751.584 777.698, 750.312 778.531 C 749.041 779.364, 748 780.478, 748 781.007 C 748 781.563, 751.058 781.830, 755.262 781.641 C 759.256 781.462, 763.643 780.681, 765.012 779.907 C 766.380 779.133, 768.288 777.868, 769.250 777.095 C 770.212 776.322, 771 775.310, 771 774.845 C 771 774.380, 769.763 774.045, 768.250 774.100 C 766.737 774.156, 762.603 774.834, 759.062 775.608 M 459.146 791.593 C 459.365 792.771, 461.793 794.613, 465.500 796.414 C 468.800 798.016, 476.450 800.600, 482.500 802.156 C 488.550 803.712, 495.995 805.184, 499.045 805.428 C 502.095 805.672, 505.243 805.468, 506.040 804.975 C 507.257 804.223, 507.170 803.829, 505.495 802.525 C 504.398 801.671, 501.700 800.141, 499.500 799.127 C 497.300 798.113, 493.025 796.480, 490 795.500 C 486.975 794.519, 482.787 793.099, 480.692 792.344 C 478.598 791.588, 472.814 790.681, 467.839 790.328 C 459.305 789.722, 458.813 789.794, 459.146 791.593 M 754.643 827.107 C 752.522 827.605, 749.484 828.782, 747.893 829.722 C 746.302 830.662, 745 831.784, 745 832.216 C 745 832.647, 746.688 833.083, 748.750 833.184 C 750.813 833.285, 756.100 833.449, 760.500 833.548 C 764.900 833.647, 770.868 833.138, 773.762 832.416 C 776.656 831.694, 779.469 830.828, 780.012 830.493 C 780.555 830.157, 781 829.282, 781 828.548 C 781 827.814, 780.288 826.941, 779.418 826.607 C 778.548 826.273, 773.486 826.045, 768.168 826.100 C 762.851 826.156, 756.764 826.609, 754.643 827.107 M 697.139 842.032 C 696.512 843.829, 696 845.906, 696 846.649 C 696 847.546, 697.274 848, 699.790 848 C 701.874 848, 706.171 847.325, 709.339 846.500 C 712.506 845.675, 718.788 844.947, 723.299 844.882 C 727.809 844.817, 732.850 844.449, 734.500 844.066 C 737.287 843.417, 737.140 843.314, 732.440 842.616 C 729.656 842.203, 724.931 841.920, 721.940 841.989 C 718.948 842.057, 714.250 841.653, 711.500 841.090 C 708.750 840.527, 704.650 839.774, 702.389 839.416 C 698.428 838.790, 698.235 838.886, 697.139 842.032 M 474.535 841.943 C 474.215 842.461, 475.966 843.776, 478.427 844.865 C 480.887 845.953, 486.861 848.045, 491.700 849.514 C 496.540 850.982, 502.590 852.846, 505.145 853.655 C 507.700 854.463, 511.750 854.985, 514.145 854.813 L 518.500 854.500 515.500 852.861 C 513.850 851.960, 508.283 849.813, 503.128 848.090 C 497.974 846.366, 492.255 844.764, 490.420 844.529 C 488.585 844.294, 484.733 843.404, 481.860 842.551 C 478.987 841.698, 476.295 841, 475.878 841 C 475.460 841, 474.856 841.424, 474.535 841.943 M 750.500 880.636 C 749.400 880.879, 747.487 881.294, 746.250 881.558 C 745.013 881.822, 744 882.458, 744 882.972 C 744 883.486, 745.609 884.350, 747.575 884.893 C 749.541 885.436, 751.713 885.664, 752.402 885.399 C 753.091 885.135, 754.745 885.321, 756.078 885.812 C 757.410 886.304, 763.365 886.384, 769.311 885.992 C 775.257 885.599, 780.593 884.807, 781.169 884.231 C 781.897 883.503, 781.508 882.807, 779.889 881.941 C 778.477 881.185, 772.642 880.598, 765.032 880.445 C 758.139 880.307, 751.600 880.393, 750.500 880.636 M 448.500 889.458 C 447.950 889.666, 445.754 890.129, 443.620 890.488 C 441.466 890.850, 440.131 891.515, 440.620 891.984 C 441.104 892.449, 446 893.524, 451.500 894.373 C 457 895.223, 463.075 896.165, 465 896.467 C 466.925 896.769, 471.425 896.987, 475 896.951 C 478.575 896.915, 481.928 896.461, 482.450 895.943 C 483.049 895.348, 482.957 894.557, 482.200 893.800 C 481.540 893.140, 481 892.891, 481 893.246 C 481 893.601, 478.863 893.283, 476.250 892.537 C 473.637 891.792, 468.350 890.898, 464.500 890.550 C 460.650 890.202, 455.700 889.729, 453.500 889.499 C 451.300 889.269, 449.050 889.251, 448.500 889.458 M 460.750 935.716 C 459.238 935.945, 458 936.517, 458 936.986 C 458 937.455, 460.137 938.540, 462.750 939.396 C 465.363 940.252, 472.947 941.252, 479.603 941.618 C 488.249 942.093, 491.909 941.957, 492.414 941.140 C 492.843 940.445, 492.019 939.572, 490.310 938.914 C 488.765 938.319, 485.025 937.461, 482 937.008 C 478.975 936.554, 473.575 935.984, 470 935.741 C 466.425 935.498, 462.262 935.487, 460.750 935.716 M 735.131 936.079 C 731.628 936.533, 728.552 937.115, 728.295 937.371 C 728.039 937.628, 728.880 938.424, 730.164 939.141 C 731.515 939.895, 736.506 940.546, 742 940.686 C 747.225 940.819, 753.928 940.381, 756.895 939.714 C 759.862 939.046, 762.237 938.050, 762.173 937.500 C 762.109 936.950, 759.682 936.207, 756.779 935.849 C 753.875 935.491, 749.250 935.210, 746.500 935.226 C 743.750 935.241, 738.634 935.625, 735.131 936.079 M 526.250 952.732 C 523.913 952.943, 522 953.485, 522 953.936 C 522 954.388, 523.314 955.302, 524.921 955.967 C 526.527 956.633, 528.614 957.025, 529.558 956.839 C 530.502 956.652, 531.648 955.487, 532.105 954.250 C 532.687 952.673, 532.571 952.052, 531.718 952.175 C 531.048 952.271, 528.587 952.522, 526.250 952.732 M 698.413 988.137 C 698.198 988.487, 698.583 989.239, 699.270 989.809 C 699.956 990.378, 703.579 991.554, 707.321 992.422 C 711.063 993.290, 717.021 994, 720.562 994 C 724.103 994, 727 993.652, 727 993.227 C 727 992.802, 723.962 991.458, 720.250 990.242 C 716.405 988.982, 710.337 987.916, 706.152 987.765 C 702.110 987.619, 698.627 987.787, 698.413 988.137 M 430.250 992.820 C 429.012 992.995, 428 993.711, 428 994.409 C 428 995.107, 429.027 996.147, 430.283 996.719 C 431.539 997.291, 435.251 998.284, 438.533 998.926 C 441.815 999.568, 446.525 1000.502, 449 1001.003 C 451.475 1001.504, 457.550 1001.990, 462.500 1002.083 C 467.450 1002.176, 472.738 1002.195, 474.250 1002.126 C 475.950 1002.048, 477 1001.437, 477 1000.526 C 477 999.715, 475.762 998.425, 474.250 997.660 C 472.738 996.895, 469.250 995.778, 466.500 995.180 C 463.750 994.581, 458.125 993.755, 454 993.345 C 449.875 992.934, 443.350 992.576, 439.500 992.549 C 435.650 992.522, 431.488 992.644, 430.250 992.820 M 647.008 1038.954 C 646.041 1039.578, 645.866 1040.235, 646.508 1040.821 C 647.054 1041.318, 650.425 1042.397, 654 1043.219 C 657.575 1044.041, 663.650 1044.786, 667.500 1044.874 C 671.350 1044.963, 675.148 1044.610, 675.939 1044.091 C 677.068 1043.351, 676.638 1042.830, 673.939 1041.670 C 672.048 1040.857, 667.575 1039.732, 664 1039.169 C 660.425 1038.606, 655.475 1038.111, 653 1038.069 C 650.525 1038.027, 647.829 1038.425, 647.008 1038.954 M 429.750 1059.701 C 428.788 1059.946, 428 1060.768, 428 1061.528 C 428 1062.287, 431.262 1064.452, 435.250 1066.337 C 440.859 1068.990, 444.537 1069.965, 451.500 1070.645 C 456.450 1071.128, 461.813 1071.293, 463.418 1071.012 C 465.022 1070.730, 466.514 1069.962, 466.733 1069.304 C 466.952 1068.646, 465.414 1067.236, 463.315 1066.172 C 461.217 1065.107, 455.675 1063.321, 451 1062.203 C 446.325 1061.084, 440.025 1059.963, 437 1059.712 C 433.975 1059.460, 430.712 1059.455, 429.750 1059.701 M 625 1087.766 C 625 1088.354, 627.138 1089.291, 629.750 1089.849 C 632.362 1090.407, 638.438 1091.181, 643.250 1091.569 C 648.774 1092.015, 652 1091.914, 652 1091.296 C 652 1090.757, 650.226 1089.785, 648.057 1089.135 C 645.888 1088.486, 639.813 1087.671, 634.557 1087.326 C 628.055 1086.899, 625 1087.040, 625 1087.766 M 524.287 1108.160 C 523.677 1108.897, 522.513 1111.300, 521.700 1113.500 C 520.887 1115.700, 519.713 1119.975, 519.092 1123 C 518.430 1126.222, 518.145 1133.885, 518.404 1141.500 C 518.647 1148.650, 519.251 1156.873, 519.746 1159.774 C 520.242 1162.674, 521.166 1165.566, 521.800 1166.200 C 522.670 1167.070, 523.444 1166.908, 524.957 1165.539 C 526.059 1164.542, 527.212 1162.100, 527.519 1160.113 C 527.826 1158.126, 528.558 1153.800, 529.144 1150.500 C 529.731 1147.200, 530.197 1138.571, 530.181 1131.326 C 530.164 1123.899, 529.682 1117.274, 529.076 1116.141 C 528.484 1115.036, 528 1113.288, 528 1112.257 C 528 1111.226, 527.414 1109.581, 526.697 1108.601 C 525.626 1107.136, 525.198 1107.058, 524.287 1108.160 M 432.511 1118.982 C 432.122 1119.611, 432.569 1120.971, 433.503 1122.003 C 434.512 1123.119, 438.789 1124.723, 444.040 1125.956 C 448.900 1127.097, 455.837 1128.181, 459.454 1128.364 C 463.695 1128.579, 466.647 1128.245, 467.766 1127.424 C 469.345 1126.263, 469.231 1126.046, 466.500 1124.999 C 464.850 1124.366, 460.560 1122.819, 456.966 1121.561 C 453.372 1120.302, 446.558 1118.950, 441.825 1118.556 C 435.749 1118.049, 433.010 1118.175, 432.511 1118.982 M 618.017 1147.908 C 616.841 1148.699, 617.535 1149.349, 621.362 1151.042 C 624.018 1152.217, 629.185 1153.674, 632.845 1154.281 C 636.505 1154.887, 644.135 1155.349, 649.801 1155.308 C 655.466 1155.266, 660.386 1154.947, 660.734 1154.599 C 661.082 1154.251, 660.923 1153.523, 660.380 1152.980 C 659.837 1152.437, 656.793 1151.316, 653.616 1150.488 C 650.439 1149.661, 645.963 1148.746, 643.670 1148.455 C 641.376 1148.165, 635 1147.698, 629.500 1147.418 C 623.601 1147.118, 618.892 1147.319, 618.017 1147.908 M 450.695 1172.700 C 449.702 1172.957, 449.063 1173.693, 449.275 1174.334 C 449.487 1174.975, 451.874 1175.798, 454.580 1176.162 C 457.286 1176.527, 461.863 1176.864, 464.750 1176.912 C 467.637 1176.961, 470 1176.599, 470 1176.109 C 470 1175.618, 466.795 1174.493, 462.877 1173.609 C 458.960 1172.724, 455.022 1172.052, 454.127 1172.116 C 453.232 1172.180, 451.688 1172.443, 450.695 1172.700 M 614.750 1212.607 C 612.138 1213.437, 610 1214.688, 610 1215.386 C 610 1216.085, 612.138 1217.141, 614.750 1217.733 C 617.923 1218.453, 622.654 1218.514, 629 1217.918 C 634.225 1217.428, 639.737 1216.516, 641.250 1215.892 C 642.763 1215.268, 644 1214.389, 644 1213.938 C 644 1213.487, 643.529 1212.827, 642.953 1212.471 C 642.377 1212.115, 636.865 1211.661, 630.703 1211.461 C 622.621 1211.199, 618.177 1211.519, 614.750 1212.607 M 417.698 1214.636 C 417.314 1215.019, 417 1215.626, 417 1215.983 C 417 1216.340, 419.363 1217.582, 422.250 1218.744 C 425.137 1219.906, 431.460 1221.616, 436.299 1222.545 C 441.139 1223.475, 445.384 1223.949, 445.733 1223.601 C 446.081 1223.252, 445.947 1222.592, 445.433 1222.134 C 444.920 1221.676, 442.511 1220.531, 440.081 1219.591 C 437.650 1218.650, 432.475 1217.300, 428.581 1216.591 C 424.686 1215.881, 420.801 1214.994, 419.948 1214.619 C 419.094 1214.245, 418.082 1214.252, 417.698 1214.636 M 630 1265.995 C 624.775 1266.361, 619.200 1267.199, 617.611 1267.858 C 616.023 1268.517, 614.983 1269.316, 615.301 1269.635 C 615.620 1269.953, 618.045 1270.182, 620.690 1270.144 C 623.336 1270.106, 629.029 1269.625, 633.342 1269.076 C 637.655 1268.526, 642.102 1267.785, 643.224 1267.429 C 644.838 1266.917, 644.975 1266.598, 643.882 1265.906 C 643.122 1265.425, 641.825 1265.098, 641 1265.180 C 640.175 1265.262, 635.225 1265.629, 630 1265.995 M 459.620 1273.027 C 455.836 1273.485, 452.283 1274.317, 451.725 1274.875 C 451.039 1275.561, 451.548 1276.099, 453.296 1276.538 C 454.719 1276.895, 460.128 1276.927, 465.317 1276.610 C 470.507 1276.292, 475.483 1275.752, 476.376 1275.409 C 477.269 1275.066, 478 1274.384, 478 1273.893 C 478 1273.402, 476.706 1273, 475.125 1273 C 473.544 1273, 470.956 1272.819, 469.375 1272.597 C 467.794 1272.375, 463.404 1272.569, 459.620 1273.027 M 478.208 1312.212 C 473.217 1313.439, 470.067 1314.698, 470.293 1315.375 C 470.532 1316.086, 472.848 1316.391, 476.585 1316.204 C 479.838 1316.041, 484.975 1315.424, 488 1314.833 C 491.025 1314.241, 494.625 1313.312, 496 1312.768 C 498.378 1311.828, 498.402 1311.740, 496.500 1310.960 C 495.400 1310.509, 492.700 1310.148, 490.500 1310.157 C 488.300 1310.167, 482.769 1311.091, 478.208 1312.212 M 637 1319.993 C 633.425 1320.382, 628.587 1321.236, 626.250 1321.889 C 623.913 1322.543, 622 1323.510, 622 1324.039 C 622 1324.567, 623.427 1325, 625.172 1325 C 626.917 1325, 632.204 1324.302, 636.922 1323.449 C 641.640 1322.596, 646.162 1321.671, 646.972 1321.395 C 648.268 1320.953, 648.268 1320.781, 646.972 1319.962 C 646.162 1319.450, 645.050 1319.088, 644.500 1319.157 C 643.950 1319.227, 640.575 1319.603, 637 1319.993 M 507.500 1351.498 C 506.950 1351.685, 503.350 1352.783, 499.500 1353.939 C 495.650 1355.094, 491.825 1356.500, 491 1357.063 C 489.943 1357.785, 491.274 1357.892, 495.500 1357.425 C 498.800 1357.060, 502.175 1356.177, 503 1355.464 C 503.825 1354.751, 505.815 1354.017, 507.423 1353.834 C 509.030 1353.650, 510.530 1352.938, 510.756 1352.250 C 510.982 1351.563, 510.567 1351.036, 509.833 1351.079 C 509.100 1351.122, 508.050 1351.311, 507.500 1351.498 M 639.665 1363.507 C 637.006 1364.238, 634.569 1365.098, 634.249 1365.418 C 633.929 1365.738, 633.857 1366.190, 634.089 1366.423 C 634.322 1366.655, 637.434 1366.174, 641.006 1365.354 C 644.578 1364.534, 647.928 1363.444, 648.450 1362.932 C 649.042 1362.351, 648.476 1362.034, 646.950 1362.089 C 645.602 1362.139, 642.324 1362.777, 639.665 1363.507 M 524.500 1399.055 C 521.200 1400.694, 517.382 1402.897, 516.015 1403.949 C 514.648 1405.002, 513.819 1406.152, 514.172 1406.505 C 514.525 1406.858, 518.118 1405.607, 522.157 1403.725 C 526.196 1401.843, 530.625 1399.350, 532 1398.185 C 534.302 1396.234, 534.342 1396.067, 532.500 1396.071 C 531.400 1396.073, 527.800 1397.416, 524.500 1399.055 M 647.705 1407.188 C 645.617 1408.318, 644.158 1409.491, 644.462 1409.795 C 644.766 1410.099, 647.036 1409.338, 649.507 1408.104 C 651.978 1406.869, 654 1405.666, 654 1405.430 C 654 1405.193, 653.438 1405.030, 652.750 1405.067 C 652.063 1405.104, 649.792 1406.058, 647.705 1407.188 M 570.929 1471.976 C 568.964 1473.015, 566.772 1474.570, 566.056 1475.432 C 565.341 1476.294, 564.183 1477, 563.485 1477 C 562.786 1477, 561.955 1477.675, 561.638 1478.500 C 561.322 1479.325, 561.438 1480, 561.897 1480 C 562.355 1480, 563.874 1479.100, 565.273 1478 C 566.671 1476.900, 568.245 1476, 568.770 1476 C 569.295 1476, 571.424 1474.650, 573.500 1473 C 575.576 1471.350, 576.651 1470.020, 575.888 1470.044 C 575.124 1470.069, 572.893 1470.938, 570.929 1471.976 M 611 1484.322 C 611 1485.049, 611.713 1487.861, 612.585 1490.572 C 613.457 1493.282, 614.910 1496.963, 615.813 1498.750 C 616.716 1500.537, 617.842 1502, 618.315 1502 C 618.789 1502, 618.861 1500.088, 618.476 1497.750 C 618.091 1495.412, 617.080 1491.925, 616.229 1490 C 615.377 1488.075, 614.584 1486.162, 614.465 1485.750 C 614.347 1485.338, 614.194 1484.550, 614.125 1484 C 614.056 1483.450, 613.325 1483, 612.500 1483 C 611.675 1483, 611 1483.595, 611 1484.322" stroke="none" fill="#fb44f3" fill-rule="evenodd"/></svg>