<svg xmlns="http://www.w3.org/2000/svg" width="1301" height="2022" viewBox="0 0 1301 2022" version="1.1"><path d="M 734.687 480.805 C 733.209 482.347, 732 484.147, 732 484.805 C 732 485.462, 731.550 486, 731 486 C 730.450 486, 730 487.006, 730 488.236 C 730 489.465, 731.233 492.953, 732.740 495.986 C 734.246 499.019, 736.046 501.860, 736.740 502.300 C 737.433 502.740, 738 503.668, 738 504.363 C 738 505.057, 739.262 506.835, 740.805 508.313 C 742.347 509.791, 744.078 511, 744.650 511 C 745.222 511, 746.536 511.935, 747.570 513.078 C 748.604 514.220, 751.487 516.036, 753.975 517.113 C 756.464 518.189, 759.281 519.504, 760.236 520.035 C 761.191 520.566, 763.274 521, 764.864 521 C 766.454 521, 768.315 520.325, 769 519.500 C 769.685 518.675, 770.793 518, 771.462 518 C 772.131 518, 773.192 516.875, 773.818 515.500 C 774.445 514.125, 775.417 513, 775.979 513 C 776.540 513, 777 511.664, 777 510.030 C 777 508.397, 776.054 505.360, 774.899 503.280 C 773.743 501.201, 772.168 498.790, 771.399 497.921 C 770.629 497.053, 770 495.890, 770 495.337 C 770 494.783, 768.654 493.131, 767.009 491.665 C 765.363 490.199, 761.932 487.408, 759.383 485.463 C 756.835 483.517, 752.921 481.042, 750.687 479.963 C 748.448 478.881, 744.549 478, 741.999 478 C 738.237 478, 736.873 478.523, 734.687 480.805 M 519.500 482 C 519.160 482.550, 517.839 483, 516.563 483 C 515.288 483, 513.685 483.675, 513 484.500 C 512.315 485.325, 511.182 486, 510.481 486 C 509.781 486, 505.786 489.637, 501.604 494.083 C 497.422 498.529, 494 503.002, 494 504.024 C 494 505.046, 493.550 506.160, 493 506.500 C 492.450 506.840, 492 509.713, 492 512.885 C 492 517.793, 492.385 519.012, 494.583 521.076 C 496.762 523.121, 498.132 523.490, 503.333 523.435 C 507.839 523.387, 510.443 522.784, 513 521.197 C 514.925 520.002, 517.440 518.608, 518.588 518.099 C 519.736 517.589, 523.224 514.357, 526.338 510.916 C 529.452 507.475, 532 504.061, 532 503.330 C 532 502.598, 532.450 502, 533 502 C 533.550 502, 534 500.902, 534 499.559 C 534 498.216, 534.450 496.840, 535 496.500 C 535.550 496.160, 536 494.109, 536 491.941 C 536 489.773, 535.602 488, 535.117 488 C 534.631 488, 534.014 487.162, 533.746 486.138 C 533.479 485.114, 531.782 483.539, 529.976 482.638 C 528.170 481.737, 525.213 481, 523.405 481 C 521.597 481, 519.840 481.450, 519.500 482 M 738.682 484.705 C 738.407 485.151, 737.856 487.312, 737.458 489.508 L 736.734 493.500 739.409 491.037 C 740.938 489.628, 741.958 487.734, 741.792 486.615 C 741.631 485.538, 740.979 484.485, 740.342 484.276 C 739.705 484.066, 738.958 484.259, 738.682 484.705 M 514.975 489.565 C 514.439 490.976, 514 492.551, 514 493.065 C 514 493.579, 514.425 494, 514.944 494 C 515.464 494, 517.111 492.949, 518.604 491.664 C 520.170 490.317, 521.016 488.835, 520.601 488.164 C 520.206 487.524, 518.997 487, 517.916 487 C 516.726 487, 515.566 488.012, 514.975 489.565" stroke="none" fill="#05080b" fill-rule="evenodd"/><path d="M 532.500 460.709 C 529.750 461.544, 525.700 462.952, 523.500 463.837 C 521.300 464.723, 516.800 467.001, 513.500 468.900 C 510.200 470.799, 505.700 473.731, 503.500 475.416 C 501.300 477.101, 497.475 480.554, 495 483.089 C 492.525 485.623, 489.038 489.382, 487.250 491.442 C 485.462 493.501, 484 495.594, 484 496.093 C 484 496.592, 483.599 497, 483.108 497 C 482.618 497, 481.934 498.125, 481.589 499.500 C 481.244 500.875, 480.520 502, 479.981 502 C 479.441 502, 479 502.675, 479 503.500 C 479 504.325, 478.660 505, 478.244 505 C 477.828 505, 476.980 506.238, 476.359 507.750 C 475.738 509.262, 474.503 512.835, 473.615 515.688 C 472.695 518.643, 472 524.319, 472 528.879 C 472 533.281, 472.450 537.160, 473 537.500 C 473.550 537.840, 474 539.079, 474 540.252 C 474 541.526, 476.209 544.527, 479.479 547.693 C 482.492 550.612, 485.812 553, 486.857 553 C 487.901 553, 490.371 553.675, 492.346 554.500 C 494.320 555.325, 498.313 555.991, 501.218 555.980 C 504.123 555.969, 509.216 555.567, 512.535 555.086 C 515.854 554.606, 520.804 553.172, 523.535 551.900 C 526.266 550.627, 531.511 547.450, 535.191 544.838 C 538.871 542.226, 545.396 536.720, 549.691 532.602 C 553.986 528.484, 559.189 522.726, 561.253 519.807 C 563.317 516.888, 566.129 512.793, 567.503 510.706 C 568.876 508.619, 570 506.475, 570 505.942 C 570 505.409, 570.397 504.191, 570.883 503.236 C 571.369 502.281, 572.244 500.375, 572.827 499 C 573.411 497.625, 574.177 494.164, 574.530 491.308 C 574.883 488.453, 574.849 483.101, 574.454 479.415 C 573.845 473.728, 573.223 472.146, 570.345 468.960 C 568.480 466.896, 564.225 463.810, 560.891 462.103 C 555.417 459.301, 553.986 459.009, 546.164 459.096 C 541.399 459.148, 535.250 459.874, 532.500 460.709 M 706.696 460.904 C 704.604 461.898, 701.337 464.219, 699.437 466.061 C 697.536 467.904, 695.537 471.006, 694.996 472.956 C 694.454 474.905, 694.009 480.137, 694.006 484.583 C 694.003 489.029, 694.523 495.329, 695.162 498.583 C 695.801 501.837, 697.601 506.381, 699.162 508.680 C 700.723 510.979, 702 513.198, 702 513.611 C 702 514.024, 704.532 517.667, 707.626 521.707 C 710.720 525.746, 716.007 531.429, 719.376 534.335 C 722.744 537.241, 727.750 541.014, 730.500 542.719 C 733.250 544.423, 737.145 546.727, 739.155 547.839 C 741.165 548.950, 745.890 550.678, 749.655 551.679 C 754.708 553.023, 759.641 553.457, 768.500 553.336 C 775.901 553.235, 782.033 552.629, 784.500 551.754 C 787.616 550.650, 789.218 549.149, 791.750 544.963 C 793.538 542.007, 795 538.331, 795 536.794 C 795 535.257, 795.450 534, 796 534 C 796.550 534, 797 531.552, 797 528.559 C 797 525.566, 796.550 522.840, 796 522.500 C 795.450 522.160, 794.997 520.446, 794.994 518.691 C 794.990 516.936, 794.315 514.211, 793.494 512.636 C 792.672 511.060, 792 509.148, 792 508.386 C 792 507.624, 791.660 507, 791.244 507 C 790.828 507, 789.856 505.538, 789.084 503.750 C 788.311 501.962, 786.401 498.860, 784.840 496.856 C 783.278 494.852, 782 492.929, 782 492.582 C 782 492.236, 778.166 488.288, 773.481 483.809 C 768.795 479.330, 764.108 475.178, 763.066 474.583 C 762.024 473.987, 758.715 472.038, 755.714 470.250 C 752.712 468.462, 749.749 467, 749.128 467 C 748.508 467, 748 466.586, 748 466.079 C 748 465.573, 746.650 464.862, 745 464.500 C 743.350 464.138, 742 463.502, 742 463.088 C 742 462.673, 739.413 461.754, 736.250 461.045 C 733.087 460.336, 726 459.607, 720.500 459.426 C 712.439 459.161, 709.762 459.448, 706.696 460.904 M 734.687 480.805 C 733.209 482.347, 732 484.147, 732 484.805 C 732 485.462, 731.550 486, 731 486 C 730.450 486, 730 487.006, 730 488.236 C 730 489.465, 731.233 492.953, 732.740 495.986 C 734.246 499.019, 736.046 501.860, 736.740 502.300 C 737.433 502.740, 738 503.668, 738 504.363 C 738 505.057, 739.262 506.835, 740.805 508.313 C 742.347 509.791, 744.078 511, 744.650 511 C 745.222 511, 746.536 511.935, 747.570 513.078 C 748.604 514.220, 751.487 516.036, 753.975 517.113 C 756.464 518.189, 759.281 519.504, 760.236 520.035 C 761.191 520.566, 763.274 521, 764.864 521 C 766.454 521, 768.315 520.325, 769 519.500 C 769.685 518.675, 770.793 518, 771.462 518 C 772.131 518, 773.192 516.875, 773.818 515.500 C 774.445 514.125, 775.417 513, 775.979 513 C 776.540 513, 777 511.664, 777 510.030 C 777 508.397, 776.054 505.360, 774.899 503.280 C 773.743 501.201, 772.168 498.790, 771.399 497.921 C 770.629 497.053, 770 495.890, 770 495.337 C 770 494.783, 768.654 493.131, 767.009 491.665 C 765.363 490.199, 761.932 487.408, 759.383 485.463 C 756.835 483.517, 752.921 481.042, 750.687 479.963 C 748.448 478.881, 744.549 478, 741.999 478 C 738.237 478, 736.873 478.523, 734.687 480.805 M 519.500 482 C 519.160 482.550, 517.839 483, 516.563 483 C 515.288 483, 513.685 483.675, 513 484.500 C 512.315 485.325, 511.182 486, 510.481 486 C 509.781 486, 505.786 489.637, 501.604 494.083 C 497.422 498.529, 494 503.002, 494 504.024 C 494 505.046, 493.550 506.160, 493 506.500 C 492.450 506.840, 492 509.713, 492 512.885 C 492 517.793, 492.385 519.012, 494.583 521.076 C 496.762 523.121, 498.132 523.490, 503.333 523.435 C 507.839 523.387, 510.443 522.784, 513 521.197 C 514.925 520.002, 517.440 518.608, 518.588 518.099 C 519.736 517.589, 523.224 514.357, 526.338 510.916 C 529.452 507.475, 532 504.061, 532 503.330 C 532 502.598, 532.450 502, 533 502 C 533.550 502, 534 500.902, 534 499.559 C 534 498.216, 534.450 496.840, 535 496.500 C 535.550 496.160, 536 494.109, 536 491.941 C 536 489.773, 535.602 488, 535.117 488 C 534.631 488, 534.014 487.162, 533.746 486.138 C 533.479 485.114, 531.782 483.539, 529.976 482.638 C 528.170 481.737, 525.213 481, 523.405 481 C 521.597 481, 519.840 481.450, 519.500 482 M 738.682 484.705 C 738.407 485.151, 737.856 487.312, 737.458 489.508 L 736.734 493.500 739.409 491.037 C 740.938 489.628, 741.958 487.734, 741.792 486.615 C 741.631 485.538, 740.979 484.485, 740.342 484.276 C 739.705 484.066, 738.958 484.259, 738.682 484.705 M 514.975 489.565 C 514.439 490.976, 514 492.551, 514 493.065 C 514 493.579, 514.425 494, 514.944 494 C 515.464 494, 517.111 492.949, 518.604 491.664 C 520.170 490.317, 521.016 488.835, 520.601 488.164 C 520.206 487.524, 518.997 487, 517.916 487 C 516.726 487, 515.566 488.012, 514.975 489.565" stroke="none" fill="#43cada" fill-rule="evenodd"/></svg>