<svg xmlns="http://www.w3.org/2000/svg" width="1301" height="2022" viewBox="0 0 1301 2022" version="1.1"><path d="M 569.174 463.314 C 566.180 466.502, 566.422 467.487, 569.455 464.455 C 572.728 461.181, 579.483 461.054, 583.615 464.188 L 586.500 466.376 584.076 463.688 C 582.041 461.432, 580.823 461, 576.500 461 C 572.408 461, 570.901 461.476, 569.174 463.314 M 680.924 463.688 L 678.500 466.376 681.385 464.188 C 685.517 461.054, 692.272 461.181, 695.545 464.455 C 696.895 465.805, 698 466.558, 698 466.129 C 698 465.700, 696.958 464.370, 695.686 463.174 C 692.116 459.821, 684.162 460.098, 680.924 463.688 M 665.630 464.250 C 664.845 467.179, 664.954 474.030, 665.820 476.213 C 666.194 477.155, 666.500 474.342, 666.500 469.963 C 666.500 465.583, 666.440 462, 666.367 462 C 666.293 462, 665.962 463.012, 665.630 464.250 M 587.836 469.416 C 588.106 472.803, 587.637 474.321, 585.473 477.071 L 582.773 480.500 585.886 477.234 C 588.288 474.716, 589 473.070, 589 470.043 C 589 467.884, 588.663 465.909, 588.250 465.654 C 587.837 465.400, 587.651 467.092, 587.836 469.416 M 676.667 465.667 C 676.300 466.033, 676 468.051, 676 470.151 C 676 473.058, 676.743 474.748, 679.114 477.234 L 682.227 480.500 679.527 477.071 C 677.344 474.297, 676.893 472.815, 677.171 469.321 C 677.360 466.944, 677.474 465, 677.424 465 C 677.374 465, 677.033 465.300, 676.667 465.667 M 574.441 468.096 C 574.068 468.699, 574.418 469.846, 575.218 470.646 C 576.490 471.918, 576.828 471.912, 577.922 470.594 C 578.610 469.765, 578.882 468.618, 578.527 468.044 C 577.682 466.676, 575.299 466.707, 574.441 468.096 M 686.441 468.096 C 686.068 468.699, 686.418 469.846, 687.218 470.646 C 688.490 471.918, 688.828 471.912, 689.922 470.594 C 690.610 469.765, 690.882 468.618, 690.527 468.044 C 689.682 466.676, 687.299 466.707, 686.441 468.096 M 567 473.871 C 567 474.300, 568.042 475.630, 569.314 476.826 C 572.884 480.179, 580.838 479.902, 584.076 476.312 L 586.500 473.624 583.615 475.812 C 579.483 478.946, 572.728 478.819, 569.455 475.545 C 568.105 474.195, 567 473.442, 567 473.871 M 695.286 475.699 C 692.282 478.820, 685.425 478.876, 681.385 475.812 L 678.500 473.624 680.924 476.312 C 682.959 478.568, 684.177 479, 688.500 479 C 692.700 479, 694.085 478.539, 695.996 476.504 C 697.286 475.131, 698.152 473.871, 697.921 473.703 C 697.689 473.536, 696.504 474.434, 695.286 475.699" stroke="none" fill="#4a6939" fill-rule="evenodd"/><path d="" stroke="none" fill="#2a3d21" fill-rule="evenodd"/><path d="M 569.455 464.455 C 563.955 469.954, 568.033 478, 576.320 478 C 582.521 478, 586 475.125, 586 470 C 586 464.875, 582.521 462, 576.320 462 C 572.970 462, 571.319 462.590, 569.455 464.455 M 681.635 464.073 C 679.602 465.671, 679 467.027, 679 470 C 679 475.125, 682.479 478, 688.680 478 C 694.160 478, 698 474.704, 698 470 C 698 462.875, 687.837 459.194, 681.635 464.073 M 574.441 468.096 C 574.068 468.699, 574.418 469.846, 575.218 470.646 C 576.490 471.918, 576.828 471.912, 577.922 470.594 C 578.610 469.765, 578.882 468.618, 578.527 468.044 C 577.682 466.676, 575.299 466.707, 574.441 468.096 M 686.441 468.096 C 686.068 468.699, 686.418 469.846, 687.218 470.646 C 688.490 471.918, 688.828 471.912, 689.922 470.594 C 690.610 469.765, 690.882 468.618, 690.527 468.044 C 689.682 466.676, 687.299 466.707, 686.441 468.096" stroke="none" fill="#afff87" fill-rule="evenodd"/><path d="M 566.414 445.939 C 561.842 448.142, 557.007 452.698, 554.900 456.788 C 554.132 458.279, 553.052 459.821, 552.502 460.213 C 551.951 460.605, 551.500 464.655, 551.500 469.213 C 551.500 475.776, 551.966 478.445, 553.739 482.043 C 558.311 491.320, 565.723 496, 575.841 496 C 587.641 496, 597.099 489.084, 600.409 478.033 C 603.856 466.526, 601.051 457.616, 591.384 449.357 C 585.776 444.566, 585.599 444.498, 578.100 444.235 C 572.193 444.029, 569.590 444.408, 566.414 445.939 M 678.984 446.006 C 677.068 447.110, 674.600 448.486, 673.500 449.064 C 670.907 450.427, 666.779 456.365, 664.668 461.770 C 661.222 470.592, 663.260 481.246, 669.619 487.645 C 680.028 498.121, 694.096 498.823, 705.610 489.443 C 713.580 482.951, 716.382 467.739, 711.403 458 C 709.027 453.351, 702.379 447.242, 698.854 446.468 C 697.297 446.126, 695.766 445.431, 695.452 444.923 C 694.334 443.113, 682.677 443.880, 678.984 446.006 M 569.500 447.168 C 552.472 453.510, 547.659 474.044, 560.188 486.898 C 564.664 491.489, 568.702 493, 576.500 493 C 584.305 493, 588.940 491.266, 593.087 486.794 C 597.384 482.162, 598.868 478.975, 599.588 472.836 C 600.781 462.672, 595.903 453.304, 587.140 448.927 C 581.902 446.311, 573.933 445.517, 569.500 447.168 M 680.202 447.625 C 668.154 452.037, 661.617 467.950, 666.989 479.786 C 670.665 487.885, 679.919 494, 688.500 494 C 700.724 494, 711.888 482.544, 711.888 470 C 711.888 453.839, 695.271 442.105, 680.202 447.625 M 566.895 464.626 C 564.931 466.993, 565.190 473.623, 567.330 475.737 C 569.041 477.428, 569.050 477.377, 567.563 474.500 C 565.643 470.786, 565.623 469.247, 567.447 465.750 C 569.071 462.636, 568.876 462.239, 566.895 464.626 M 697.437 465.500 C 698.290 467.150, 698.988 469.175, 698.988 470 C 698.988 470.825, 698.290 472.850, 697.437 474.500 C 695.950 477.377, 695.959 477.428, 697.670 475.737 C 698.788 474.633, 699.455 472.488, 699.455 470 C 699.455 467.512, 698.788 465.367, 697.670 464.263 C 695.959 462.572, 695.950 462.623, 697.437 465.500" stroke="none" fill="#181b17" fill-rule="evenodd"/><path d="M 568.018 449.077 C 562.545 451.559, 560.466 453.359, 557.286 458.363 C 550.225 469.479, 555.061 484.860, 567.429 490.619 C 573.483 493.438, 577.832 493.608, 584.332 491.278 C 599.214 485.943, 603.788 466.993, 593.118 454.872 C 586.571 447.433, 576.677 445.149, 568.018 449.077 M 679.429 449.381 C 665.160 456.025, 661.458 473.948, 671.994 485.378 C 676.159 489.896, 683.132 493.020, 689 492.995 C 697.501 492.959, 707.863 484.873, 710.135 476.500 C 712.336 468.386, 709.433 458.228, 703.362 452.805 C 700.150 449.937, 692.705 447.045, 688.500 447.032 C 686.300 447.025, 682.218 448.082, 679.429 449.381 M 570.299 459.960 C 566.854 462.060, 564 466.609, 564 470 C 564 473.391, 566.854 477.940, 570.299 480.040 C 581.041 486.590, 594.071 473.930, 586.921 463.889 C 582.777 458.069, 576.019 456.471, 570.299 459.960 M 682.457 459.863 C 673.678 465.217, 673.977 475.834, 683.039 480.520 C 686.713 482.420, 690.331 482.398, 694.094 480.451 C 697.626 478.625, 700.993 473.525, 700.993 470 C 700.993 466.475, 697.626 461.375, 694.094 459.549 C 690.117 457.492, 686.170 457.599, 682.457 459.863" stroke="none" fill="#e0edd9" fill-rule="evenodd"/></svg>