<svg xmlns="http://www.w3.org/2000/svg" width="1301" height="2022" viewBox="0 0 1301 2022" version="1.1"><path d="M 745.450 473.383 C 742.695 475.238, 739.148 478.622, 737.568 480.902 C 733.344 486.997, 730.718 498.436, 732.793 501.700 C 734.380 504.196, 746.610 492.463, 749.158 486 C 750.868 481.662, 751.973 474.101, 751.202 472.016 C 750.492 470.099, 750.236 470.160, 745.450 473.383 M 517 473.782 C 517 478.705, 519.615 486.837, 522.569 491.099 C 524.150 493.380, 527.706 496.973, 530.472 499.083 L 535.500 502.920 536.199 500.327 C 536.921 497.649, 535.886 490.383, 534.158 486 C 532.637 482.141, 528.594 477.181, 524.351 473.970 C 519.331 470.171, 517 470.111, 517 473.782" stroke="none" fill="#0a0c0a" fill-rule="evenodd"/><path d="M 529.477 449.988 C 510.388 452.794, 494.939 462.815, 486.567 477.821 C 480.025 489.546, 475.060 508.217, 475.018 521.250 L 475 527 482.869 527 C 510.341 527, 537.926 515.940, 555.638 497.824 C 565.226 488.018, 570.611 480.305, 575.867 468.855 C 582.272 454.901, 582.448 455.661, 572.232 453.139 C 557.737 449.561, 540.848 448.316, 529.477 449.988 M 717.500 449.598 C 706.834 450.663, 688 454.766, 688 456.025 C 688 457.138, 691.341 464.834, 695.417 473.107 C 707.141 496.906, 730.053 515.422, 756.558 522.520 C 764.481 524.642, 783.243 527.152, 788.623 526.810 C 793.285 526.514, 793.513 526.361, 793.806 523.350 C 794.244 518.839, 791.339 500.309, 789.014 492.781 C 786.276 483.915, 778.014 470.411, 771.923 464.843 C 765.940 459.376, 757.152 454.479, 748.607 451.853 C 742.546 449.990, 725.759 448.773, 717.500 449.598 M 745.450 473.383 C 742.695 475.238, 739.148 478.622, 737.568 480.902 C 733.344 486.997, 730.718 498.436, 732.793 501.700 C 734.380 504.196, 746.610 492.463, 749.158 486 C 750.868 481.662, 751.973 474.101, 751.202 472.016 C 750.492 470.099, 750.236 470.160, 745.450 473.383 M 517 473.782 C 517 478.705, 519.615 486.837, 522.569 491.099 C 524.150 493.380, 527.706 496.973, 530.472 499.083 L 535.500 502.920 536.199 500.327 C 536.921 497.649, 535.886 490.383, 534.158 486 C 532.637 482.141, 528.594 477.181, 524.351 473.970 C 519.331 470.171, 517 470.111, 517 473.782" stroke="none" fill="#c4db04" fill-rule="evenodd"/></svg>