<svg xmlns="http://www.w3.org/2000/svg" width="1301" height="2022" viewBox="0 0 1301 2022" version="1.1"><path d="M 518.645 459.189 C 511.981 469.583, 513.455 505.658, 520.657 508.422 C 523.025 509.331, 525.776 505.004, 526.859 498.666 C 528.897 486.751, 529.055 483.309, 527.994 473.946 C 526.399 459.858, 522.331 453.438, 518.645 459.189 M 743.728 461.672 C 741.718 466.028, 741.500 468.065, 741.500 482.500 C 741.500 495.510, 741.836 499.371, 743.299 503.162 C 746.349 511.064, 749.860 510.483, 752.556 501.630 C 756.021 490.253, 755.382 469.534, 751.308 461.200 C 748.635 455.731, 746.406 455.870, 743.728 461.672" stroke="none" fill="#dc082f" fill-rule="evenodd"/><path d="M 536.247 452.034 C 512.725 454.994, 495.301 465.014, 483.885 482.145 C 474.589 496.095, 468.955 527.086, 474.370 534.491 C 476.216 537.016, 485.608 535.002, 495.500 529.959 C 506.648 524.276, 517.405 515.327, 542.674 490.716 C 554.678 479.024, 567.987 466.594, 572.250 463.094 C 576.513 459.594, 580 456.350, 580 455.885 C 580 455.033, 579.399 454.845, 570.802 453.015 C 563.858 451.537, 544.553 450.989, 536.247 452.034 M 707.500 451.616 C 700.834 452.311, 689 455.083, 689 455.950 C 689 456.397, 690.651 458.022, 692.669 459.561 C 699.089 464.458, 705.952 470.779, 728.695 492.741 C 740.903 504.530, 753.675 516.410, 757.077 519.141 C 767.044 527.139, 777.471 532.746, 785.845 534.609 C 792.921 536.183, 793.396 536.179, 794.605 534.525 C 798.208 529.598, 797.131 511.061, 792.466 497.708 C 784.098 473.758, 766.902 458.779, 741.831 453.600 C 734.004 451.983, 714.682 450.867, 707.500 451.616 M 518.645 459.189 C 511.981 469.583, 513.455 505.658, 520.657 508.422 C 523.025 509.331, 525.776 505.004, 526.859 498.666 C 528.897 486.751, 529.055 483.309, 527.994 473.946 C 526.399 459.858, 522.331 453.438, 518.645 459.189 M 743.728 461.672 C 741.718 466.028, 741.500 468.065, 741.500 482.500 C 741.500 495.510, 741.836 499.371, 743.299 503.162 C 746.349 511.064, 749.860 510.483, 752.556 501.630 C 756.021 490.253, 755.382 469.534, 751.308 461.200 C 748.635 455.731, 746.406 455.870, 743.728 461.672" stroke="none" fill="#fbaa04" fill-rule="evenodd"/></svg>