<svg xmlns="http://www.w3.org/2000/svg" width="1301" height="2022" viewBox="0 0 1301 2022" version="1.1"><path d="M 617.070 445.583 C 616.951 452.534, 614.811 461.393, 612.683 463.750 C 610.289 466.401, 604.277 466.885, 603.362 464.500 C 602.611 462.544, 599.562 462.581, 597.571 464.571 C 593.709 468.434, 597.052 472, 604.537 472 C 609.136 472, 610.448 471.546, 613.441 468.918 C 617.595 465.270, 619.013 460.896, 618.924 452 C 618.849 444.500, 617.188 438.749, 617.070 445.583 M 649.757 444 C 648.695 447.638, 648.850 457.918, 650.030 462.168 C 650.601 464.225, 652.590 467.189, 654.559 468.918 C 657.552 471.546, 658.864 472, 663.463 472 C 670.948 472, 674.291 468.434, 670.429 464.571 C 668.438 462.581, 665.389 462.544, 664.638 464.500 C 663.724 466.882, 657.716 466.400, 655.283 463.750 C 653.383 461.680, 651.478 453.623, 650.732 444.500 C 650.491 441.553, 650.474 441.544, 649.757 444 M 628.774 533.268 C 628.201 543.198, 625.246 550.457, 618.255 559.111 C 612.158 566.659, 608.560 568.419, 600.684 567.705 C 593.715 567.073, 589.649 564.559, 589.178 560.591 C 588.744 556.939, 590.579 555, 594.467 555 C 597.832 555, 601 552.491, 601 549.826 C 601 547.302, 597.554 545, 593.775 545 C 590.964 545, 589.569 545.727, 587.199 548.426 C 582.846 553.384, 582.321 557.072, 585.162 562.736 C 588.580 569.550, 591.668 571.394, 600.392 571.834 C 606.244 572.130, 608.454 571.805, 611.591 570.186 C 617.299 567.242, 622.301 561.499, 626.504 553.068 C 629.790 546.475, 630.269 544.542, 630.742 535.962 C 631.075 529.924, 630.894 526.053, 630.262 525.662 C 629.622 525.267, 629.074 528.071, 628.774 533.268 M 637.545 526.341 C 637.089 527.354, 636.972 532.138, 637.285 536.972 C 637.769 544.435, 638.409 546.873, 641.528 553.131 C 645.701 561.503, 650.713 567.248, 656.409 570.186 C 659.546 571.805, 661.756 572.130, 667.608 571.834 C 676.332 571.394, 679.420 569.550, 682.838 562.736 C 685.679 557.072, 685.154 553.384, 680.801 548.426 C 678.382 545.671, 677.060 545, 674.051 545 C 670.164 545, 667 547.322, 667 550.174 C 667 552.570, 670.376 555, 673.706 555 C 677.432 555, 679.250 556.988, 678.822 560.591 C 678.351 564.559, 674.285 567.073, 667.316 567.705 C 659.440 568.419, 655.842 566.659, 649.745 559.111 C 642.889 550.625, 639.868 543.246, 639.052 533 C 638.593 527.242, 638.107 525.094, 637.545 526.341" stroke="none" fill="#75ac55" fill-rule="evenodd"/><path d="M 494.437 384.953 C 484.854 387.025, 467.663 395.600, 460.970 401.646 C 454.275 407.694, 449.168 415.365, 445.399 425.035 C 439.439 440.325, 438.994 443.562, 437.920 479.500 C 436.645 522.160, 436.457 526.775, 435.565 537.259 C 434.733 547.030, 429.512 567.141, 426.049 573.914 C 421.560 582.694, 407.184 593.867, 396.256 597.069 C 382.583 601.076, 354.329 588.573, 348.132 575.774 C 344.280 567.815, 345.950 558.096, 352.166 552.298 C 361.599 543.499, 379.870 546.112, 385.536 557.069 C 389.244 564.240, 385.806 569.298, 376.434 570.458 C 369.149 571.360, 368 572.241, 368 576.922 C 368 581.803, 369.437 583, 375.299 583 C 381.990 583, 386.317 580.690, 390.482 574.892 C 393.649 570.484, 394 569.343, 394 563.448 C 394 556.243, 392.720 552.932, 387.389 546.349 C 382.844 540.735, 377.491 539, 364.723 539 C 353.146 539, 349.652 540.252, 344.531 546.235 C 339.187 552.478, 337.672 556.580, 337.198 566.096 C 336.657 576.968, 338.312 581.053, 347.038 590.382 C 358.936 603.101, 371.963 609.599, 387.111 610.371 C 404.041 611.234, 414.518 607.154, 427.341 594.703 C 434.510 587.741, 436.423 585.149, 439.986 577.575 C 445.350 566.172, 449.535 547.860, 451.515 527.130 C 452.336 518.534, 453.442 509.025, 453.974 506 C 454.505 502.975, 455.645 496, 456.507 490.500 C 460.660 464.015, 468.619 441.208, 478.438 427.654 C 481.675 423.186, 491.118 416.587, 498.634 413.541 C 516.867 406.153, 513.790 406.715, 532.962 407.269 C 551.875 407.817, 562.853 409.949, 575.461 415.525 C 589.013 421.519, 606.430 437, 599.621 437 C 598.927 437, 596.479 438.610, 594.180 440.578 C 590.489 443.737, 590 444.654, 590 448.409 C 590 453.848, 588.738 454.494, 575 456.088 C 569.225 456.757, 564.020 457.673, 563.434 458.122 C 562.848 458.572, 559.698 459.239, 556.434 459.606 C 553.170 459.973, 550.050 460.618, 549.500 461.040 C 548.950 461.462, 545.800 462.131, 542.500 462.526 C 533.542 463.600, 512.670 472.741, 505.597 478.688 C 494.390 488.110, 481 505.988, 481 511.529 C 481 512.338, 480.550 513, 480 513 C 479.450 513, 479 514.125, 479 515.500 C 479 516.875, 478.550 518, 478 518 C 477.450 518, 477 519.773, 477 521.941 C 477 524.109, 476.550 526.160, 476 526.500 C 475.443 526.844, 475 531.469, 475 536.935 L 475 546.752 486.250 558.203 C 492.438 564.501, 499.975 571.495, 503 573.745 C 509.298 578.430, 532.669 589.418, 540.889 591.559 C 547.433 593.264, 593.655 593.519, 627 592.035 C 638.275 591.533, 668.875 590.818, 695 590.446 L 742.500 589.770 750 586.824 C 759.314 583.165, 770.878 576.461, 777.638 570.801 C 780.463 568.436, 784.829 564.925, 787.340 563 C 789.911 561.028, 792.562 557.899, 793.410 555.835 C 794.238 553.819, 795.385 551.880, 795.958 551.526 C 797.229 550.740, 797.272 543.657, 796.055 535.243 C 795.426 530.896, 793.372 525.402, 789.325 517.243 C 784.222 506.956, 782.445 504.446, 774.991 497 C 765.628 487.647, 764.331 486.650, 752.578 479.774 C 742.247 473.729, 733.098 469.371, 727.732 467.936 C 725.404 467.314, 722.985 466.383, 722.356 465.868 C 721.727 465.352, 718.901 464.657, 716.077 464.323 C 713.252 463.988, 710.703 463.329, 710.412 462.857 C 710.120 462.386, 708.585 462, 707 462 C 705.415 462, 703.840 461.550, 703.500 461 C 703.160 460.450, 701.585 460, 700 460 C 698.415 460, 696.840 459.550, 696.500 459 C 696.160 458.450, 694.135 458, 692 458 C 689.865 458, 687.840 457.550, 687.500 457 C 687.160 456.450, 684.626 456, 681.870 456 C 676.032 456, 674.565 454.870, 673.731 449.731 C 673.049 445.528, 671.824 443.995, 667.265 441.637 C 665.539 440.744, 663.847 439.562, 663.506 439.009 C 661.298 435.436, 677.597 421.249, 690.431 415.573 C 703.149 409.948, 714.080 407.818, 733.038 407.269 C 752.210 406.715, 749.133 406.153, 767.366 413.541 C 774.882 416.587, 784.325 423.186, 787.562 427.654 C 797.381 441.208, 805.340 464.015, 809.493 490.500 C 810.355 496, 811.495 502.975, 812.026 506 C 812.558 509.025, 813.664 518.534, 814.485 527.130 C 816.465 547.860, 820.650 566.172, 826.014 577.575 C 829.577 585.149, 831.490 587.741, 838.659 594.703 C 851.482 607.154, 861.959 611.234, 878.889 610.371 C 894.037 609.599, 907.064 603.101, 918.962 590.382 C 927.688 581.053, 929.343 576.968, 928.802 566.096 C 928.328 556.580, 926.813 552.478, 921.469 546.235 C 916.348 540.252, 912.854 539, 901.277 539 C 888.509 539, 883.156 540.735, 878.611 546.349 C 873.280 552.932, 872 556.243, 872 563.448 C 872 569.343, 872.351 570.484, 875.518 574.892 C 879.683 580.690, 884.010 583, 890.701 583 C 896.563 583, 898 581.803, 898 576.922 C 898 572.241, 896.851 571.360, 889.566 570.458 C 880.194 569.298, 876.756 564.240, 880.464 557.069 C 886.130 546.112, 904.401 543.499, 913.834 552.298 C 920.050 558.096, 921.720 567.815, 917.868 575.774 C 911.671 588.573, 883.417 601.076, 869.744 597.069 C 858.816 593.867, 844.440 582.694, 839.951 573.914 C 836.488 567.141, 831.267 547.030, 830.435 537.259 C 829.543 526.775, 829.355 522.160, 828.080 479.500 C 827.006 443.562, 826.561 440.325, 820.601 425.035 C 813.467 406.734, 802.642 396.667, 780.500 387.741 C 772.585 384.551, 772.324 384.517, 756 384.568 C 742.973 384.609, 737.184 385.094, 728.500 386.869 C 718.129 388.989, 696.686 395.386, 694.500 397.011 C 693.950 397.421, 692.481 398.068, 691.235 398.450 C 688.896 399.167, 669.216 411.290, 663.008 415.837 C 657.841 419.622, 648.270 429.574, 647.518 431.944 C 646.903 433.880, 646.105 434, 633.857 434 C 621.013 434, 620.821 433.967, 618.674 431.360 C 614.697 426.530, 606.546 418.469, 602.992 415.851 C 598.305 412.399, 576.973 399.002, 576.151 398.994 C 575.793 398.990, 574.319 398.372, 572.876 397.618 C 567.921 395.033, 548.492 389.122, 538 387.007 C 526.390 384.667, 501.244 383.482, 494.437 384.953 M 617.070 445.583 C 616.951 452.534, 614.811 461.393, 612.683 463.750 C 610.289 466.401, 604.277 466.885, 603.362 464.500 C 602.611 462.544, 599.562 462.581, 597.571 464.571 C 593.709 468.434, 597.052 472, 604.537 472 C 609.136 472, 610.448 471.546, 613.441 468.918 C 617.595 465.270, 619.013 460.896, 618.924 452 C 618.849 444.500, 617.188 438.749, 617.070 445.583 M 649.757 444 C 648.695 447.638, 648.850 457.918, 650.030 462.168 C 650.601 464.225, 652.590 467.189, 654.559 468.918 C 657.552 471.546, 658.864 472, 663.463 472 C 670.948 472, 674.291 468.434, 670.429 464.571 C 668.438 462.581, 665.389 462.544, 664.638 464.500 C 663.724 466.882, 657.716 466.400, 655.283 463.750 C 653.383 461.680, 651.478 453.623, 650.732 444.500 C 650.491 441.553, 650.474 441.544, 649.757 444 M 628.774 533.268 C 628.201 543.198, 625.246 550.457, 618.255 559.111 C 612.158 566.659, 608.560 568.419, 600.684 567.705 C 593.715 567.073, 589.649 564.559, 589.178 560.591 C 588.744 556.939, 590.579 555, 594.467 555 C 597.832 555, 601 552.491, 601 549.826 C 601 547.302, 597.554 545, 593.775 545 C 590.964 545, 589.569 545.727, 587.199 548.426 C 582.846 553.384, 582.321 557.072, 585.162 562.736 C 588.580 569.550, 591.668 571.394, 600.392 571.834 C 606.244 572.130, 608.454 571.805, 611.591 570.186 C 617.299 567.242, 622.301 561.499, 626.504 553.068 C 629.790 546.475, 630.269 544.542, 630.742 535.962 C 631.075 529.924, 630.894 526.053, 630.262 525.662 C 629.622 525.267, 629.074 528.071, 628.774 533.268 M 637.545 526.341 C 637.089 527.354, 636.972 532.138, 637.285 536.972 C 637.769 544.435, 638.409 546.873, 641.528 553.131 C 645.701 561.503, 650.713 567.248, 656.409 570.186 C 659.546 571.805, 661.756 572.130, 667.608 571.834 C 676.332 571.394, 679.420 569.550, 682.838 562.736 C 685.679 557.072, 685.154 553.384, 680.801 548.426 C 678.382 545.671, 677.060 545, 674.051 545 C 670.164 545, 667 547.322, 667 550.174 C 667 552.570, 670.376 555, 673.706 555 C 677.432 555, 679.250 556.988, 678.822 560.591 C 678.351 564.559, 674.285 567.073, 667.316 567.705 C 659.440 568.419, 655.842 566.659, 649.745 559.111 C 642.889 550.625, 639.868 543.246, 639.052 533 C 638.593 527.242, 638.107 525.094, 637.545 526.341" stroke="none" fill="#9bdb73" fill-rule="evenodd"/></svg>