<svg xmlns="http://www.w3.org/2000/svg" width="1301" height="2022" viewBox="0 0 1301 2022" version="1.1"><path d="M 612 438 C 610.900 439.100, 610 440.450, 610 441 C 610 442.297, 613.703 446, 615 446 C 616.297 446, 620 442.297, 620 441 C 620 439.703, 616.297 436, 615 436 C 614.450 436, 613.100 436.900, 612 438 M 645 438 C 643.900 439.100, 643 440.450, 643 441 C 643 442.297, 646.703 446, 648 446 C 649.297 446, 653 442.297, 653 441 C 653 439.703, 649.297 436, 648 436 C 647.450 436, 646.100 436.900, 645 438 M 596.400 443.765 C 594.536 445.009, 592.975 448.770, 593.621 450.455 C 594.324 452.286, 597.134 454, 599.434 454 C 601.426 454, 605 450.468, 605 448.500 C 605 444.949, 599.314 441.819, 596.400 443.765 M 660 445 C 658.900 446.100, 658 447.675, 658 448.500 C 658 450.468, 661.574 454, 663.566 454 C 667.990 454, 670.713 450.224, 668.847 446.678 C 666.632 442.469, 663.185 441.815, 660 445 M 605.217 464.561 C 600.666 467.748, 598.492 475.754, 601.250 479.163 C 605.862 484.862, 613.487 485.667, 618.202 480.952 C 620.952 478.202, 621.198 477.448, 620.723 473.235 C 619.790 464.955, 611.374 460.248, 605.217 464.561 M 645.917 465.782 C 643.526 467.919, 642.681 469.649, 642.277 473.235 C 641.802 477.448, 642.048 478.202, 644.798 480.952 C 649.513 485.667, 657.138 484.862, 661.750 479.163 C 663.436 477.079, 663.327 472.532, 661.506 469.011 C 658.132 462.487, 651.210 461.053, 645.917 465.782 M 543.445 466.174 C 542.668 468.620, 545.244 471.227, 547.559 470.339 C 549.186 469.715, 550.385 466.431, 549.506 465.009 C 548.321 463.092, 544.170 463.890, 543.445 466.174 M 716.529 467.954 C 715.420 469.748, 717.036 473.140, 718.835 472.793 C 721.066 472.364, 721.073 467.638, 718.843 467.208 C 717.932 467.033, 716.890 467.368, 716.529 467.954 M 495.011 493.487 C 493.229 495.634, 494.548 498.203, 497.235 497.820 C 499.798 497.455, 500.873 494.168, 498.848 492.885 C 496.974 491.697, 496.425 491.783, 495.011 493.487 M 764.362 494.500 C 763.464 496.839, 764.731 499, 767 499 C 769.544 499, 770.651 496.489, 768.989 494.487 C 767.402 492.574, 765.098 492.580, 764.362 494.500 M 621.571 498.571 C 619.471 500.672, 619.592 502.320, 622.004 504.504 C 626.073 508.186, 631.684 502.084, 627.800 498.200 C 626.139 496.539, 623.443 496.700, 621.571 498.571 M 635.200 498.200 C 631.316 502.084, 636.927 508.186, 640.996 504.504 C 643.408 502.320, 643.529 500.672, 641.429 498.571 C 639.557 496.700, 636.861 496.539, 635.200 498.200 M 594.490 521.195 C 592.303 523.794, 591.908 525.052, 592.370 527.945 C 594.036 538.358, 610 537.050, 610 526.500 C 610 518.242, 599.885 514.782, 594.490 521.195 M 655.455 520.455 C 649.917 525.992, 653.873 535, 661.844 535 C 666.828 535, 669.895 532.537, 670.630 527.945 C 671.942 519.740, 661.381 514.528, 655.455 520.455 M 622.571 550.571 C 620.316 552.827, 620.630 556.628, 623.223 558.443 C 624.445 559.299, 625.795 560, 626.223 560 C 627.578 560, 631 556.061, 631 554.500 C 631 552.595, 627.452 549, 625.571 549 C 624.786 549, 623.436 549.707, 622.571 550.571 M 634 551 C 632.900 552.100, 632 553.675, 632 554.500 C 632 556.061, 635.422 560, 636.777 560 C 637.205 560, 638.555 559.299, 639.777 558.443 C 642.370 556.628, 642.684 552.827, 640.429 550.571 C 638.322 548.465, 636.408 548.592, 634 551 M 514.750 570.080 C 512.138 571.601, 512.563 575.668, 515.537 577.616 C 517.961 579.204, 518.185 579.175, 520.537 576.965 C 523.518 574.164, 523.565 573.565, 521 571 C 518.778 568.778, 517.347 568.567, 514.750 570.080 M 742 571 C 739.435 573.565, 739.482 574.164, 742.463 576.965 C 744.815 579.175, 745.039 579.204, 747.463 577.616 C 750.533 575.604, 750.857 571.529, 748.066 570.035 C 745.318 568.565, 744.269 568.731, 742 571 M 587.643 571.028 C 583.522 572.263, 581 574.910, 581 578 C 581 582.308, 583.918 584.161, 590.141 583.806 C 595.191 583.518, 595.602 583.292, 597.269 579.882 C 599.366 575.595, 598.769 573.449, 594.928 571.463 C 591.775 569.832, 591.656 569.825, 587.643 571.028 M 667.869 571.497 C 664.219 573.497, 663.667 575.662, 665.731 579.882 C 667.398 583.292, 667.809 583.518, 672.859 583.806 C 679.395 584.179, 682.259 582.207, 681.799 577.650 C 681.259 572.319, 673.015 568.677, 667.869 571.497 M 544 579 C 541.472 581.528, 541.473 583.213, 544.004 585.504 C 548.134 589.242, 554.177 583.063, 550.435 578.928 C 548.212 576.472, 546.509 576.491, 544 579 M 712.565 578.928 C 710.361 581.364, 711.290 584.719, 714.583 586.220 C 716.541 587.112, 717.367 586.978, 718.996 585.504 C 721.527 583.213, 721.528 581.528, 719 579 C 716.491 576.491, 714.788 576.472, 712.565 578.928" stroke="none" fill="#75ad55" fill-rule="evenodd"/><path d="M 495.924 397.608 C 492.841 400.925, 482.735 408.134, 477.398 410.823 C 473.885 412.593, 454.455 417.951, 441.566 420.704 C 438.430 421.373, 437.481 422.108, 436.888 424.327 C 435.594 429.166, 436.981 433.884, 440.484 436.556 C 444.363 439.515, 452.098 439.868, 459.297 437.414 C 466.800 434.858, 469.317 436.282, 476.714 447.269 C 480.132 452.346, 484.248 459.425, 485.861 463 C 489.603 471.296, 494 484.729, 494 487.864 C 494 489.285, 492.144 492.457, 489.507 495.544 C 485.232 500.547, 481 508.527, 481 511.583 C 481 512.362, 480.550 513, 480 513 C 479.450 513, 479 514.125, 479 515.500 C 479 518.722, 477.290 518.732, 464.398 515.582 C 458.954 514.251, 452.706 512.773, 450.512 512.297 C 445.282 511.161, 443.733 508.277, 444.547 501.195 C 445.286 494.778, 443.777 491.947, 438.069 489.035 C 434.359 487.142, 434.064 487.129, 432.080 488.772 C 430.126 490.391, 423.058 505.985, 423.018 508.767 C 423.008 509.463, 420.525 514.968, 417.500 521 C 410.779 534.402, 410.620 536.255, 415.960 538.980 C 421.711 541.914, 424.049 541.559, 428.412 537.090 C 430.679 534.768, 433.564 532.929, 435.511 532.564 C 439.217 531.869, 450.107 534.580, 462.292 539.232 C 469.670 542.049, 470.812 542.933, 483.792 555.889 C 491.331 563.414, 499.975 571.431, 503 573.704 C 509.250 578.400, 532.582 589.396, 540.889 591.559 C 547.433 593.264, 593.655 593.519, 627 592.035 C 638.275 591.533, 668.875 590.818, 695 590.446 L 742.500 589.770 750 586.824 C 759.314 583.165, 770.878 576.461, 777.638 570.801 C 780.463 568.436, 784.829 564.925, 787.340 563 C 789.850 561.075, 792.636 557.925, 793.530 556 C 797.135 548.241, 797.225 548.162, 805.968 545.101 C 826.685 537.849, 830.375 537.728, 836.588 544.090 C 840.951 548.559, 843.289 548.914, 849.040 545.980 C 854.380 543.255, 854.221 541.402, 847.500 528 C 844.475 521.968, 841.992 516.463, 841.982 515.767 C 841.942 512.985, 834.874 497.391, 832.920 495.772 C 830.936 494.129, 830.641 494.142, 826.931 496.035 C 821.223 498.947, 819.714 501.778, 820.453 508.195 C 821.269 515.288, 819.718 518.168, 814.488 519.274 C 812.294 519.738, 806.973 521.024, 802.661 522.132 C 798.350 523.240, 794.256 523.928, 793.562 523.662 C 792.869 523.396, 790.333 519.259, 787.926 514.468 C 785.149 508.940, 781.269 503.294, 777.305 499.012 L 771.058 492.265 773.633 484.383 C 777.517 472.491, 781.423 464.463, 788.286 454.269 C 795.683 443.282, 798.200 441.858, 805.703 444.414 C 812.902 446.868, 820.637 446.515, 824.516 443.556 C 828.019 440.884, 829.406 436.166, 828.112 431.327 C 827.519 429.108, 826.570 428.373, 823.434 427.704 C 810.460 424.933, 791.112 419.589, 787.602 417.808 C 781.872 414.900, 775.255 410.263, 770.218 405.628 L 765.936 401.687 763.041 404.461 C 756.674 410.561, 756.895 416.394, 763.691 421.578 C 768.045 424.899, 770.991 429.642, 770.996 433.338 C 771.006 440.911, 752.303 467.205, 743.764 471.622 C 741.282 472.905, 740.471 472.803, 735.044 470.519 C 731.753 469.133, 728.484 467.997, 727.780 467.994 C 727.076 467.990, 725.150 467.282, 723.500 466.420 C 721.850 465.558, 718.349 464.596, 715.721 464.283 C 713.092 463.970, 710.703 463.329, 710.412 462.857 C 710.120 462.386, 708.636 462, 707.114 462 C 704.430 462, 704.310 461.766, 703.166 454.250 C 702.518 449.988, 701.990 444.767, 701.993 442.648 C 702 438.956, 701.811 439.175, 697.411 447.964 C 692.631 457.511, 690.987 459.098, 687.881 457.158 C 686.861 456.521, 683.964 456, 681.442 456 C 676.006 456, 674.554 454.799, 673.712 449.610 C 673.366 447.480, 672.277 445.122, 671.292 444.369 C 667.204 441.246, 661.832 437.998, 660.706 437.968 C 659.053 437.925, 656 435.510, 656 434.247 C 656 432.634, 653.052 431.902, 650.993 433.004 C 648.391 434.396, 621.272 434.315, 620.804 432.913 C 620.373 431.618, 613 432.749, 613 434.111 C 613 434.600, 611.624 435, 609.943 435 C 604.261 435, 598.137 437.191, 594.059 440.682 C 590.495 443.733, 590 444.674, 590 448.409 C 590 451.830, 589.560 452.875, 587.750 453.752 C 584.003 455.566, 576.333 456.106, 575.118 454.642 C 574.527 453.930, 571.559 448.545, 568.522 442.676 C 563.032 432.065, 563 432.028, 562.997 436.252 C 562.992 442.583, 560.023 458.365, 558.675 459.222 C 558.029 459.633, 555.839 459.976, 553.809 459.985 C 551.779 459.993, 549.867 460.406, 549.561 460.902 C 549.254 461.397, 546.190 462.117, 542.752 462.500 C 539.313 462.883, 534.510 464.061, 532.077 465.119 C 526.217 467.665, 522.377 466.412, 515.161 459.601 C 506.084 451.032, 493.996 432.027, 494.004 426.338 C 494.009 422.642, 496.955 417.899, 501.309 414.578 C 505.312 411.524, 507.485 407.103, 506.503 404.008 C 505.767 401.690, 500.247 395, 499.071 395 C 498.674 395, 497.258 396.174, 495.924 397.608 M 612 438 C 610.900 439.100, 610 440.450, 610 441 C 610 442.297, 613.703 446, 615 446 C 616.297 446, 620 442.297, 620 441 C 620 439.703, 616.297 436, 615 436 C 614.450 436, 613.100 436.900, 612 438 M 645 438 C 643.900 439.100, 643 440.450, 643 441 C 643 442.297, 646.703 446, 648 446 C 649.297 446, 653 442.297, 653 441 C 653 439.703, 649.297 436, 648 436 C 647.450 436, 646.100 436.900, 645 438 M 596.400 443.765 C 594.536 445.009, 592.975 448.770, 593.621 450.455 C 594.324 452.286, 597.134 454, 599.434 454 C 601.426 454, 605 450.468, 605 448.500 C 605 444.949, 599.314 441.819, 596.400 443.765 M 660 445 C 658.900 446.100, 658 447.675, 658 448.500 C 658 450.468, 661.574 454, 663.566 454 C 667.990 454, 670.713 450.224, 668.847 446.678 C 666.632 442.469, 663.185 441.815, 660 445 M 605.217 464.561 C 600.666 467.748, 598.492 475.754, 601.250 479.163 C 605.862 484.862, 613.487 485.667, 618.202 480.952 C 620.952 478.202, 621.198 477.448, 620.723 473.235 C 619.790 464.955, 611.374 460.248, 605.217 464.561 M 645.917 465.782 C 643.526 467.919, 642.681 469.649, 642.277 473.235 C 641.802 477.448, 642.048 478.202, 644.798 480.952 C 649.513 485.667, 657.138 484.862, 661.750 479.163 C 663.436 477.079, 663.327 472.532, 661.506 469.011 C 658.132 462.487, 651.210 461.053, 645.917 465.782 M 543.445 466.174 C 542.668 468.620, 545.244 471.227, 547.559 470.339 C 549.186 469.715, 550.385 466.431, 549.506 465.009 C 548.321 463.092, 544.170 463.890, 543.445 466.174 M 716.529 467.954 C 715.420 469.748, 717.036 473.140, 718.835 472.793 C 721.066 472.364, 721.073 467.638, 718.843 467.208 C 717.932 467.033, 716.890 467.368, 716.529 467.954 M 495.011 493.487 C 493.229 495.634, 494.548 498.203, 497.235 497.820 C 499.798 497.455, 500.873 494.168, 498.848 492.885 C 496.974 491.697, 496.425 491.783, 495.011 493.487 M 764.362 494.500 C 763.464 496.839, 764.731 499, 767 499 C 769.544 499, 770.651 496.489, 768.989 494.487 C 767.402 492.574, 765.098 492.580, 764.362 494.500 M 621.571 498.571 C 619.471 500.672, 619.592 502.320, 622.004 504.504 C 626.073 508.186, 631.684 502.084, 627.800 498.200 C 626.139 496.539, 623.443 496.700, 621.571 498.571 M 635.200 498.200 C 631.316 502.084, 636.927 508.186, 640.996 504.504 C 643.408 502.320, 643.529 500.672, 641.429 498.571 C 639.557 496.700, 636.861 496.539, 635.200 498.200 M 594.490 521.195 C 592.303 523.794, 591.908 525.052, 592.370 527.945 C 594.036 538.358, 610 537.050, 610 526.500 C 610 518.242, 599.885 514.782, 594.490 521.195 M 655.455 520.455 C 649.917 525.992, 653.873 535, 661.844 535 C 666.828 535, 669.895 532.537, 670.630 527.945 C 671.942 519.740, 661.381 514.528, 655.455 520.455 M 622.571 550.571 C 620.316 552.827, 620.630 556.628, 623.223 558.443 C 624.445 559.299, 625.795 560, 626.223 560 C 627.578 560, 631 556.061, 631 554.500 C 631 552.595, 627.452 549, 625.571 549 C 624.786 549, 623.436 549.707, 622.571 550.571 M 634 551 C 632.900 552.100, 632 553.675, 632 554.500 C 632 556.061, 635.422 560, 636.777 560 C 637.205 560, 638.555 559.299, 639.777 558.443 C 642.370 556.628, 642.684 552.827, 640.429 550.571 C 638.322 548.465, 636.408 548.592, 634 551 M 514.750 570.080 C 512.138 571.601, 512.563 575.668, 515.537 577.616 C 517.961 579.204, 518.185 579.175, 520.537 576.965 C 523.518 574.164, 523.565 573.565, 521 571 C 518.778 568.778, 517.347 568.567, 514.750 570.080 M 742 571 C 739.435 573.565, 739.482 574.164, 742.463 576.965 C 744.815 579.175, 745.039 579.204, 747.463 577.616 C 750.533 575.604, 750.857 571.529, 748.066 570.035 C 745.318 568.565, 744.269 568.731, 742 571 M 587.643 571.028 C 583.522 572.263, 581 574.910, 581 578 C 581 582.308, 583.918 584.161, 590.141 583.806 C 595.191 583.518, 595.602 583.292, 597.269 579.882 C 599.366 575.595, 598.769 573.449, 594.928 571.463 C 591.775 569.832, 591.656 569.825, 587.643 571.028 M 667.869 571.497 C 664.219 573.497, 663.667 575.662, 665.731 579.882 C 667.398 583.292, 667.809 583.518, 672.859 583.806 C 679.395 584.179, 682.259 582.207, 681.799 577.650 C 681.259 572.319, 673.015 568.677, 667.869 571.497 M 544 579 C 541.472 581.528, 541.473 583.213, 544.004 585.504 C 548.134 589.242, 554.177 583.063, 550.435 578.928 C 548.212 576.472, 546.509 576.491, 544 579 M 712.565 578.928 C 710.361 581.364, 711.290 584.719, 714.583 586.220 C 716.541 587.112, 717.367 586.978, 718.996 585.504 C 721.527 583.213, 721.528 581.528, 719 579 C 716.491 576.491, 714.788 576.472, 712.565 578.928" stroke="none" fill="#9bdb73" fill-rule="evenodd"/></svg>