<svg xmlns="http://www.w3.org/2000/svg" width="1301" height="2022" viewBox="0 0 1301 2022" version="1.1"><path d="M 649.174 457.314 C 646.208 460.472, 646.347 465.038, 649.500 468 C 650.875 469.292, 652 471.133, 652 472.091 C 652 473.049, 652.458 473.986, 653.018 474.173 C 653.578 474.359, 654.322 476.984, 654.671 480.006 C 655.020 483.028, 655.799 485.822, 656.403 486.215 C 658.018 487.268, 657.878 506.209, 656.250 506.750 C 655.563 506.979, 655 508.447, 655 510.012 C 655 511.577, 654.325 513.532, 653.500 514.357 C 651.775 516.082, 651.586 517, 652.955 517 C 654.901 517, 660.145 510.658, 662.256 505.750 C 662.906 504.238, 663.745 503, 664.119 503 C 664.494 503, 665.341 500.749, 666.001 497.997 C 666.661 495.245, 667.606 492.744, 668.100 492.438 C 669.689 491.456, 669.182 477.039, 667.500 475.357 C 666.675 474.532, 666 472.226, 666 470.232 C 666 466.530, 662.467 460.195, 658.500 456.786 C 655.684 454.365, 651.735 454.589, 649.174 457.314 M 609.035 458.713 C 608.229 459.042, 606.766 460.253, 605.785 461.405 C 599.611 468.654, 597.617 475.800, 597.743 490.224 C 597.810 497.856, 598.225 499.829, 601.058 505.974 C 602.839 509.839, 604.901 513, 605.640 513 C 606.378 513, 607.545 513.900, 608.232 515 C 609.504 517.037, 613 517.793, 613 516.030 C 613 515.497, 612.027 513.360, 610.837 511.280 C 609.277 508.553, 608.548 505.244, 608.220 499.400 C 607.827 492.402, 608.142 490.223, 610.531 483.400 C 612.052 479.055, 614.580 473.724, 616.148 471.553 C 617.717 469.382, 619 466.619, 619 465.414 C 619 461.015, 613.109 457.054, 609.035 458.713 M 629.778 514.684 C 627.908 515.175, 625.658 521.637, 626.745 523.396 C 627.113 523.991, 627.735 528.084, 628.128 532.490 C 628.520 536.895, 629.528 543.875, 630.368 548 C 631.208 552.125, 631.918 558.538, 631.947 562.250 C 631.976 565.962, 632.417 569, 632.927 569 C 633.436 569, 634.024 569.788, 634.233 570.750 C 634.441 571.712, 634.962 565.976, 635.389 558.003 C 635.816 550.029, 636.592 542.991, 637.114 542.363 C 637.635 541.735, 638.337 536.080, 638.674 529.796 L 639.286 518.370 636.508 516.185 C 633.730 514, 633.003 513.838, 629.778 514.684" stroke="none" fill="#75ac54" fill-rule="evenodd"/><path d="M 710 423.930 C 701.995 425.530, 693.348 432.201, 687.027 441.651 C 684.259 445.791, 681.721 450.262, 681.388 451.589 C 680.306 455.901, 677.189 454.634, 675.856 449.341 C 672.651 436.616, 658.278 431.712, 627 432.674 C 600.039 433.503, 591.521 437.197, 590.234 448.619 C 589.962 451.028, 589.461 452.999, 589.120 452.997 C 588.779 452.996, 587.600 451.633, 586.500 449.968 C 583.998 446.183, 573.266 438.174, 566 434.670 C 558.323 430.968, 550.304 429.716, 537.500 430.219 C 528.712 430.565, 525.646 431.093, 522.250 432.846 C 514.517 436.839, 516.435 437.687, 532.070 437.188 C 545.570 436.757, 546.423 436.850, 553.105 439.472 C 561.296 442.685, 569 449.357, 569 453.238 C 569 455.536, 568.416 455.832, 560.923 457.335 L 552.845 458.955 545.339 454.978 C 541.210 452.791, 533.482 449.854, 528.166 448.451 C 506.405 442.712, 479 443.554, 479 449.962 C 479 451.849, 479.452 451.937, 486.250 451.369 C 500.173 450.206, 518.395 455.584, 525.437 462.934 C 527.041 464.609, 528.162 466.147, 527.927 466.352 C 527.692 466.558, 524.350 468.204, 520.500 470.012 C 516.650 471.820, 511.700 474.522, 509.500 476.016 C 505.604 478.663, 505.382 478.696, 501 477.269 C 495.037 475.328, 465.428 475.045, 459 476.867 C 451.815 478.903, 444.818 484.055, 442.255 489.196 C 439.224 495.275, 438.441 499.622, 440.031 501.538 C 441.145 502.880, 441.583 502.596, 443.406 499.352 C 444.909 496.676, 447.193 494.774, 451.500 492.614 C 457.158 489.775, 458.184 489.602, 469.500 489.573 C 481.839 489.541, 492 491.260, 492 493.380 C 492 494.029, 490.460 496.012, 488.578 497.788 C 486.696 499.563, 484.163 503.149, 482.948 505.758 C 480.891 510.177, 480.086 510.818, 471.120 515.179 C 463.157 519.051, 459.938 521.377, 452.432 528.679 C 439.068 541.680, 433.148 553.858, 435.997 562.490 C 437.291 566.411, 439 567.166, 439 563.816 C 439 553.671, 459.637 535.066, 472.857 533.292 L 476.608 532.789 476.196 539.259 C 475.964 542.906, 476.266 546.628, 476.888 547.791 C 477.863 549.613, 477.147 550.712, 470.736 557.227 C 457.898 570.275, 450.715 589.746, 455.397 598.801 C 458.243 604.305, 459.691 602.903, 460.197 594.150 C 460.724 585.057, 462.451 581.501, 470.402 573.137 C 475.297 567.987, 485.399 562.003, 489.200 562.001 C 491.645 562, 499.568 567.585, 502.034 571.048 C 503.190 572.672, 504.711 574, 505.413 574 C 506.115 574, 507.952 575.086, 509.496 576.412 C 512.621 579.098, 512.682 579.130, 526 585.305 C 531.225 587.728, 537.975 590.264, 541 590.942 C 544.025 591.619, 548.210 592.609, 550.300 593.142 C 554.718 594.268, 683.186 594.621, 684.980 593.513 C 685.623 593.115, 699.133 592.434, 715.003 592 L 743.856 591.210 752.678 586.787 C 766.033 580.090, 775.851 574.378, 782.500 569.438 C 793.559 561.221, 792.415 561.709, 797.872 562.879 C 803.879 564.168, 813.451 568.517, 817.409 571.757 C 820.857 574.580, 825.621 580.935, 828.460 586.500 C 829.582 588.700, 830.950 590.275, 831.500 590 C 832.050 589.725, 832.372 586.802, 832.214 583.500 C 831.828 575.383, 828.448 568.759, 820.582 560.697 C 815.520 555.509, 812.222 553.207, 804.737 549.639 L 795.285 545.132 794.741 536.316 C 794.235 528.103, 792.376 521.969, 789.937 520.461 C 785.435 517.679, 796.185 512.024, 806 512.011 C 818.409 511.993, 830.911 520.740, 833.773 531.441 C 835.633 538.394, 837.537 536.908, 837.346 528.654 C 837.159 520.582, 835.358 517.135, 828.338 511.413 C 820.423 504.960, 813.115 502.869, 796.374 502.265 L 782.249 501.756 774.568 494.344 C 765.898 485.978, 765.610 484.533, 771.829 480.608 C 775.394 478.359, 785.661 475.976, 791.582 476.024 C 793.187 476.037, 797.087 477.112, 800.250 478.412 C 806.282 480.893, 806.734 480.706, 804.828 476.522 C 802.376 471.139, 797.993 469.669, 782.974 469.190 C 770.885 468.804, 768.400 469.016, 761.675 471.013 C 757.488 472.256, 753.311 473.999, 752.392 474.886 C 750.851 476.376, 750.041 476.166, 741.861 472.149 C 736.988 469.756, 733 467.210, 733 466.492 C 733 465.773, 735.185 463.231, 737.854 460.843 C 743.976 455.367, 755.776 450.976, 764.333 450.990 C 770.983 451.001, 771.438 449.769, 765.933 446.655 C 763.114 445.061, 760.711 444.736, 752.500 444.839 C 742.949 444.959, 742.131 445.147, 734.282 449.015 C 728.245 451.990, 724.953 454.383, 721.876 458.033 C 716.998 463.817, 715.575 464.062, 707.030 460.591 C 703.769 459.265, 699.728 457.880, 698.050 457.511 C 695.242 456.894, 695 456.509, 695 452.653 C 695 449.126, 695.702 447.664, 699.452 443.377 C 705.694 436.241, 711.753 433.754, 724.250 433.200 C 732.656 432.827, 734 432.529, 734 431.039 C 734 425.374, 721.418 421.647, 710 423.930 M 649.174 457.314 C 646.208 460.472, 646.347 465.038, 649.500 468 C 650.875 469.292, 652 471.133, 652 472.091 C 652 473.049, 652.458 473.986, 653.018 474.173 C 653.578 474.359, 654.322 476.984, 654.671 480.006 C 655.020 483.028, 655.799 485.822, 656.403 486.215 C 658.018 487.268, 657.878 506.209, 656.250 506.750 C 655.563 506.979, 655 508.447, 655 510.012 C 655 511.577, 654.325 513.532, 653.500 514.357 C 651.775 516.082, 651.586 517, 652.955 517 C 654.901 517, 660.145 510.658, 662.256 505.750 C 662.906 504.238, 663.745 503, 664.119 503 C 664.494 503, 665.341 500.749, 666.001 497.997 C 666.661 495.245, 667.606 492.744, 668.100 492.438 C 669.689 491.456, 669.182 477.039, 667.500 475.357 C 666.675 474.532, 666 472.226, 666 470.232 C 666 466.530, 662.467 460.195, 658.500 456.786 C 655.684 454.365, 651.735 454.589, 649.174 457.314 M 609.035 458.713 C 608.229 459.042, 606.766 460.253, 605.785 461.405 C 599.611 468.654, 597.617 475.800, 597.743 490.224 C 597.810 497.856, 598.225 499.829, 601.058 505.974 C 602.839 509.839, 604.901 513, 605.640 513 C 606.378 513, 607.545 513.900, 608.232 515 C 609.504 517.037, 613 517.793, 613 516.030 C 613 515.497, 612.027 513.360, 610.837 511.280 C 609.277 508.553, 608.548 505.244, 608.220 499.400 C 607.827 492.402, 608.142 490.223, 610.531 483.400 C 612.052 479.055, 614.580 473.724, 616.148 471.553 C 617.717 469.382, 619 466.619, 619 465.414 C 619 461.015, 613.109 457.054, 609.035 458.713 M 629.778 514.684 C 627.908 515.175, 625.658 521.637, 626.745 523.396 C 627.113 523.991, 627.735 528.084, 628.128 532.490 C 628.520 536.895, 629.528 543.875, 630.368 548 C 631.208 552.125, 631.918 558.538, 631.947 562.250 C 631.976 565.962, 632.417 569, 632.927 569 C 633.436 569, 634.024 569.788, 634.233 570.750 C 634.441 571.712, 634.962 565.976, 635.389 558.003 C 635.816 550.029, 636.592 542.991, 637.114 542.363 C 637.635 541.735, 638.337 536.080, 638.674 529.796 L 639.286 518.370 636.508 516.185 C 633.730 514, 633.003 513.838, 629.778 514.684" stroke="none" fill="#9bdb73" fill-rule="evenodd"/></svg>