<svg xmlns="http://www.w3.org/2000/svg" width="1301" height="2022" viewBox="0 0 1301 2022" version="1.1"><path d="M 612 434.061 C 603.003 434.656, 598.314 436.536, 592.750 441.782 C 590.610 443.800, 590 445.293, 590 448.518 C 590 453.833, 588.676 454.501, 575 456.088 C 569.225 456.757, 564.020 457.673, 563.434 458.122 C 562.848 458.572, 559.698 459.239, 556.434 459.606 C 553.170 459.973, 550.050 460.618, 549.500 461.040 C 548.950 461.462, 545.800 462.131, 542.500 462.526 C 533.542 463.600, 512.670 472.741, 505.597 478.688 C 494.390 488.110, 481 505.988, 481 511.529 C 481 512.338, 480.550 513, 480 513 C 479.450 513, 479 514.125, 479 515.500 C 479 516.875, 478.550 518, 478 518 C 477.450 518, 477 519.773, 477 521.941 C 477 524.109, 476.550 526.160, 476 526.500 C 475.443 526.844, 475 531.469, 475 536.935 L 475 546.752 486.250 558.203 C 492.438 564.501, 499.975 571.495, 503 573.745 C 509.298 578.430, 532.669 589.418, 540.889 591.559 C 547.433 593.264, 593.655 593.519, 627 592.035 C 638.275 591.533, 668.875 590.818, 695 590.446 L 742.500 589.770 750 586.824 C 759.314 583.165, 770.878 576.461, 777.638 570.801 C 780.463 568.436, 784.829 564.925, 787.340 563 C 789.911 561.028, 792.562 557.899, 793.410 555.835 C 794.238 553.819, 795.385 551.880, 795.958 551.526 C 797.229 550.740, 797.272 543.657, 796.055 535.243 C 795.426 530.896, 793.372 525.402, 789.325 517.243 C 784.222 506.956, 782.445 504.446, 774.991 497 C 765.628 487.647, 764.331 486.650, 752.578 479.774 C 742.247 473.729, 733.098 469.371, 727.732 467.936 C 725.404 467.314, 722.985 466.383, 722.356 465.868 C 721.727 465.352, 718.901 464.657, 716.077 464.323 C 713.252 463.988, 710.703 463.329, 710.412 462.857 C 710.120 462.386, 708.585 462, 707 462 C 705.415 462, 703.840 461.550, 703.500 461 C 703.160 460.450, 701.585 460, 700 460 C 698.415 460, 696.840 459.550, 696.500 459 C 696.160 458.450, 694.135 458, 692 458 C 689.865 458, 687.840 457.550, 687.500 457 C 687.160 456.450, 684.626 456, 681.870 456 C 676.028 456, 674.565 454.870, 673.729 449.715 C 672.957 444.962, 667.672 439.655, 660.391 436.322 C 655.471 434.069, 653.754 433.869, 637.784 433.692 C 628.278 433.586, 616.675 433.753, 612 434.061" stroke="none" fill="#94dc7c" fill-rule="evenodd"/></svg>