<svg xmlns="http://www.w3.org/2000/svg" width="1301" height="2022" viewBox="0 0 1301 2022" version="1.1"><path d="M 612.340 272.619 C 612.647 274.335, 614.203 277.952, 615.798 280.658 C 617.394 283.364, 619.715 289.835, 620.957 295.039 C 622.200 300.242, 623.797 306.083, 624.507 308.018 C 626.669 313.908, 627.181 322.044, 625.985 331.500 C 625.358 336.450, 624.483 343.425, 624.038 347 C 622.684 357.899, 620.015 371.193, 617.980 377.182 C 615.190 385.394, 614.071 396.319, 615.267 403.676 C 615.819 407.072, 615.995 410.571, 615.657 411.450 C 614.548 414.343, 608.038 411.633, 597.314 403.813 C 592.741 400.479, 592.047 399.495, 591.448 395.502 C 589.708 383.895, 591.663 376.747, 601.162 360 C 606.171 351.167, 608.951 342.123, 609.631 332.443 C 610.177 324.677, 610.010 322.664, 608.644 320.580 C 607.740 319.200, 607 317.655, 607 317.147 C 607 316.639, 604.957 313.087, 602.459 309.254 C 598.708 303.496, 596.974 301.822, 592.492 299.628 C 586.915 296.897, 577.987 295.038, 578.017 296.614 C 578.027 297.101, 581.264 299.075, 585.210 301 C 591.545 304.090, 592.670 305.074, 594.811 309.393 C 598.500 316.836, 597.933 329.380, 593.594 336.315 C 590.740 340.876, 584 354.385, 584 355.544 C 584 356.210, 583.363 357.284, 582.584 357.930 C 581.805 358.576, 579.105 363.816, 576.584 369.573 C 572.286 379.387, 572 380.585, 572.004 388.770 C 572.007 395.708, 572.414 398.167, 573.989 400.750 C 575.079 402.538, 575.607 404, 575.163 404 C 573.675 404, 563.361 398.056, 561.744 396.267 C 559.793 394.109, 552.940 381.741, 548.991 373.250 C 547.392 369.813, 545.778 367, 545.405 367 C 544.406 367, 545.864 384.512, 547.524 392.446 C 548.312 396.213, 549.549 400.016, 550.272 400.898 C 550.995 401.779, 552.191 403.712, 552.931 405.192 C 555.921 411.177, 561.672 415.585, 575.207 422.265 C 585.602 427.394, 590.447 429.205, 596.118 430.079 C 606.067 431.612, 607 432.210, 607 437.049 C 607 440.910, 608.457 444.734, 610.500 446.235 C 611.050 446.639, 619.510 446.976, 629.300 446.985 C 652.485 447.005, 654 446.333, 654 436.029 C 654 428.428, 655.637 427.170, 668.529 424.865 C 674.563 423.786, 681.907 421.804, 684.850 420.461 C 697.300 414.778, 707.215 402.776, 709.027 391.195 C 710.199 383.703, 712.263 377.562, 715.730 371.250 L 718.064 367 715.667 367 C 712.202 367, 708.333 370.453, 707.564 374.232 C 706.300 380.444, 693.211 400, 690.318 400 C 689.941 400, 687.802 400.866, 685.566 401.924 C 681.247 403.968, 673.987 407, 673.411 407 C 673.222 407, 675.008 404.188, 677.381 400.750 C 683.913 391.289, 685 388.483, 685 381.090 C 685 372.098, 683.836 368.696, 678.691 362.659 C 676.274 359.822, 671.784 353.784, 668.714 349.242 C 665.645 344.701, 662.210 339.811, 661.081 338.376 C 658.963 335.683, 657.189 330.414, 654.481 318.766 C 651.368 305.382, 657.354 295.161, 668.372 295.042 C 671.699 295.006, 672.069 294.789, 671 293.500 C 669.046 291.146, 660.939 291.592, 655.491 294.354 C 652.236 296.004, 649.674 298.436, 646.924 302.489 L 643 308.270 643 320.149 C 643 326.682, 643.443 332.809, 643.984 333.764 C 644.526 334.719, 645.866 338.157, 646.963 341.404 C 648.974 347.360, 655.165 358.540, 660.028 365 C 664.013 370.293, 667 377.218, 667 381.161 C 667 383.656, 665.755 386.538, 662.750 390.999 C 660.413 394.469, 657.682 398.571, 656.681 400.114 C 655.681 401.658, 653.318 403.479, 651.431 404.161 C 649.544 404.843, 648 405.719, 648 406.106 C 648 407.121, 639.982 411.601, 636.797 412.366 C 634.307 412.963, 634.039 412.725, 633.405 409.347 C 632.287 403.384, 633.728 386.911, 636.338 375.825 C 637.676 370.146, 639.359 362.848, 640.079 359.606 C 641.999 350.966, 641.695 329.919, 639.543 322.500 C 638.587 319.200, 636.988 313.448, 635.991 309.718 C 633.765 301.388, 626.518 286.524, 622.772 282.604 C 621.247 281.009, 619.999 279.433, 619.999 279.102 C 619.998 278.771, 618.149 276.475, 615.889 274 L 611.782 269.500 612.340 272.619" stroke="none" fill="#c0f43c" fill-rule="evenodd"/></svg>