<svg xmlns="http://www.w3.org/2000/svg" width="1301" height="2022" viewBox="0 0 1301 2022" version="1.1"><path d="M 598.382 322.191 C 597.977 322.846, 598.181 323.560, 598.834 323.778 C 599.488 323.996, 600.502 325.069, 601.087 326.163 C 602.044 327.950, 601.948 328.043, 600.141 327.076 C 596.304 325.022, 590 326.023, 590 328.686 C 590 329.800, 590.726 329.999, 592.976 329.505 C 597.317 328.552, 598.394 329.684, 596.018 332.705 C 593.624 335.748, 593.322 340, 595.500 340 C 596.325 340, 597 339.341, 597 338.535 C 597 336.658, 600.684 334.665, 602.714 335.444 C 604.112 335.980, 604.104 336.228, 602.636 337.850 C 601.736 338.844, 601 340.185, 601 340.829 C 601 342.400, 604.712 342.332, 605.292 340.750 C 605.648 339.778, 606.056 339.806, 607.125 340.875 C 608.194 341.944, 608.222 342.352, 607.250 342.708 C 606.563 342.960, 606 344.082, 606 345.200 C 606 346.745, 606.483 347.107, 608.013 346.707 C 612.333 345.577, 613.208 352.880, 609.997 363.274 C 608.183 369.149, 607.014 370.765, 597.576 380.445 C 585.169 393.173, 582.603 397.767, 583.354 405.911 C 584.323 416.408, 585.080 418.470, 590.378 425.041 C 597.620 434.022, 602.093 436.027, 617 436.979 C 628.524 437.715, 632 438.440, 632 440.107 C 632 441.531, 634.307 441.153, 638.764 439 C 641.855 437.507, 644.950 437, 650.983 437 C 659.554 437, 669.816 434.325, 673.372 431.164 C 677.417 427.568, 683.750 418.319, 684.439 415 C 687.637 399.610, 685.975 395.188, 671.421 380.350 C 660.480 369.193, 658.586 365.836, 657.362 355.424 C 656.641 349.286, 658.034 345.935, 660.987 346.707 C 662.517 347.107, 663 346.745, 663 345.200 C 663 344.082, 662.438 342.960, 661.750 342.708 C 660.778 342.352, 660.806 341.944, 661.875 340.875 C 662.944 339.806, 663.352 339.778, 663.708 340.750 C 664.288 342.332, 668 342.400, 668 340.829 C 668 340.185, 667.264 338.844, 666.364 337.850 C 664.896 336.228, 664.888 335.980, 666.286 335.444 C 668.316 334.665, 672 336.658, 672 338.535 C 672 339.341, 672.675 340, 673.500 340 C 675.678 340, 675.376 335.748, 672.982 332.705 C 670.606 329.684, 671.683 328.552, 676.024 329.505 C 678.274 329.999, 679 329.800, 679 328.686 C 679 326.023, 672.696 325.022, 668.859 327.076 C 667.052 328.043, 666.956 327.950, 667.913 326.163 C 668.498 325.069, 669.545 323.966, 670.239 323.712 C 671.149 323.379, 671.199 322.928, 670.417 322.092 C 668.762 320.322, 666.137 321.852, 663.935 325.872 L 661.946 329.500 662.561 325.250 C 662.999 322.224, 662.822 321, 661.948 321 C 659.775 321, 658.064 324.386, 658.032 328.750 C 658.014 331.087, 657.550 333, 657 333 C 656.450 333, 656 333.761, 656 334.691 C 656 336.166, 655.812 336.134, 654.532 334.441 C 653.724 333.374, 653.049 330.363, 653.032 327.750 C 653.009 324.372, 652.598 323, 651.607 323 C 648.444 323, 648.094 330.350, 651.020 335.309 C 652.846 338.404, 652.879 342, 651.082 342 C 649.743 342, 645.874 337.799, 644.933 335.323 C 643.685 332.041, 641.442 332.938, 641.715 336.609 C 641.862 338.589, 643.206 340.603, 645.981 343 C 648.208 344.925, 650.024 346.837, 650.015 347.250 C 649.985 348.724, 648.050 347.959, 645.591 345.500 C 642.673 342.582, 641 342.298, 641 344.720 C 641 346.341, 646.630 351.993, 648.250 351.998 C 648.663 351.999, 649 352.675, 649 353.500 C 649 355.344, 648.770 355.348, 644.548 353.585 C 642.685 352.806, 640.659 351.231, 640.045 350.085 C 638.833 347.819, 635.986 347.228, 636.022 349.250 C 636.054 351.013, 639.006 354.437, 642.281 356.510 C 643.811 357.479, 644.816 358.517, 644.515 358.819 C 644.213 359.120, 643.434 358.834, 642.783 358.183 C 641.162 356.562, 638 356.690, 638 358.378 C 638 360.583, 640.362 361.951, 645.351 362.635 C 647.908 362.985, 650 363.720, 650 364.267 C 650 365.203, 647.848 364.999, 640.750 363.390 C 638.749 362.937, 638 363.153, 638 364.186 C 638 365.714, 645.891 368.949, 650 369.105 L 652.500 369.199 650 370 C 648.625 370.440, 645.813 370.845, 643.750 370.900 C 641.208 370.968, 640 371.462, 640 372.433 C 640 374.496, 643.385 375.272, 649.012 374.498 C 651.705 374.128, 654.461 374.167, 655.138 374.585 C 657.028 375.754, 653.346 376.848, 647.250 376.930 C 641.829 377.002, 640.563 378.161, 643.934 379.965 C 646.503 381.340, 651.298 381.277, 654.480 379.827 C 656.479 378.916, 657.328 378.931, 658.277 379.894 C 659.243 380.874, 659.092 381.436, 657.559 382.567 C 656.491 383.355, 654.579 384, 653.309 384 C 651.923 384, 651 384.600, 651 385.500 C 651 388.259, 660.064 386.889, 662.074 383.827 C 662.389 383.346, 663.471 383.863, 664.479 384.976 C 665.760 386.393, 665.914 387, 664.991 387 C 662.597 387, 656.090 390.322, 655.507 391.842 C 654.570 394.284, 656.699 395.575, 658.726 393.795 C 659.702 392.938, 661.490 391.935, 662.701 391.566 C 665.787 390.627, 672.318 392.584, 674.591 395.129 C 676.494 397.259, 676.492 397.263, 674 396.402 C 670.568 395.217, 663.587 395.279, 663.104 396.500 C 662.887 397.050, 664.237 397.776, 666.104 398.112 C 674.021 399.540, 678 402.322, 678 406.429 C 678 409.674, 676.725 409.724, 675.024 406.545 C 673.215 403.165, 668.169 401, 662.099 401 C 658.233 401, 657 401.363, 657 402.500 C 657 403.551, 658.060 404, 660.540 404 C 667.488 404, 675 409.777, 675 415.120 C 675 417.247, 674.942 417.258, 673 415.500 C 671.900 414.505, 671 413.163, 671 412.519 C 671 411.875, 669.924 410.338, 668.609 409.103 C 665.690 406.360, 659.418 406.409, 659.626 409.172 C 659.722 410.448, 659.270 410.666, 657.717 410.091 C 655.048 409.104, 650.814 409.943, 651.288 411.365 C 651.493 411.979, 653.302 412.942, 655.308 413.504 C 660.444 414.945, 661.959 416.862, 662.664 422.810 C 663.184 427.203, 663.027 428, 661.639 428 C 660.499 428, 660 427.122, 660 425.115 C 660 421.927, 655.560 418.040, 653.860 419.740 C 652.810 420.790, 653.749 424, 655.107 424 C 655.598 424, 656 425.184, 656 426.631 C 656 429.114, 655.790 429.227, 652.250 428.642 C 650.188 428.301, 647.707 428.017, 646.738 428.011 C 645.236 428.002, 645.073 427.394, 645.632 423.898 C 646.036 421.374, 645.879 419.543, 645.223 419.138 C 644.638 418.776, 643.850 417.251, 643.473 415.749 C 642.965 413.724, 643.203 412.859, 644.394 412.402 C 646.300 411.671, 646.558 409, 644.723 409 C 642.711 409, 639 411.964, 639 413.570 C 639 414.372, 639.450 415.921, 640 417.014 C 640.550 418.106, 641.400 419.813, 641.888 420.807 C 642.468 421.986, 642.306 423.464, 641.424 425.057 L 640.071 427.500 640.035 424.317 C 639.997 420.896, 639.136 420.374, 633.077 420.098 C 629.273 419.925, 628.038 421.174, 628.015 425.219 C 627.994 428.935, 625.353 427.856, 624.771 423.893 C 624.484 421.934, 624.969 420.188, 626.195 418.776 C 627.218 417.596, 628.326 415.551, 628.657 414.231 C 629.396 411.285, 626.917 408.434, 624.441 409.384 C 622.868 409.988, 622.859 410.186, 624.326 411.808 C 625.804 413.441, 625.703 413.833, 622.973 417.032 C 621.349 418.934, 620.220 421.168, 620.463 421.995 C 622.546 429.087, 622.582 429, 617.608 429 C 613.359 429, 613 428.805, 613 426.500 C 613 425.125, 613.402 424, 613.893 424 C 615.251 424, 616.190 420.790, 615.140 419.740 C 613.440 418.040, 609 421.927, 609 425.115 C 609 427.122, 608.501 428, 607.361 428 C 605.973 428, 605.816 427.203, 606.336 422.810 C 607.041 416.862, 608.556 414.945, 613.692 413.504 C 615.698 412.942, 617.507 411.980, 617.711 411.368 C 618.225 409.826, 614.266 408.948, 611.516 409.994 C 609.699 410.685, 609.271 410.522, 609.373 409.178 C 609.467 407.939, 608.542 407.420, 605.838 407.195 C 602.831 406.944, 601.848 407.360, 600.338 409.517 C 599.327 410.962, 597.502 413.350, 596.282 414.822 C 594.082 417.477, 594.063 417.481, 594.032 415.215 C 593.957 409.814, 601.437 404, 608.460 404 C 611.053 404, 612 403.568, 612 402.384 C 612 401.019, 610.993 400.831, 605.551 401.178 C 599.668 401.552, 598.786 401.914, 595.503 405.294 C 593.523 407.332, 591.700 409, 591.452 409 C 590.356 409, 591.138 403.719, 592.425 402.432 C 594.206 400.651, 598.438 398.916, 603 398.095 C 604.925 397.749, 606.275 397.024, 606 396.483 C 605.419 395.341, 598.576 395.350, 595.153 396.497 C 592.974 397.227, 592.899 397.135, 594.100 395.211 C 595.586 392.833, 603.117 390.599, 606.343 391.580 C 607.529 391.941, 609.298 392.938, 610.274 393.795 C 612.301 395.575, 614.430 394.284, 613.493 391.842 C 612.910 390.322, 606.403 387, 604.009 387 C 603.086 387, 603.240 386.393, 604.521 384.976 C 605.529 383.863, 606.611 383.346, 606.926 383.827 C 608.936 386.889, 618 388.259, 618 385.500 C 618 384.600, 617.077 384, 615.691 384 C 614.421 384, 612.509 383.355, 611.441 382.567 C 609.908 381.436, 609.757 380.874, 610.723 379.894 C 611.672 378.931, 612.521 378.916, 614.520 379.827 C 617.702 381.277, 622.497 381.340, 625.066 379.965 C 628.437 378.161, 627.171 377.002, 621.750 376.930 C 615.654 376.848, 611.972 375.754, 613.862 374.585 C 614.539 374.167, 617.295 374.128, 619.988 374.498 C 625.615 375.272, 629 374.496, 629 372.433 C 629 371.645, 628.663 370.980, 628.250 370.956 C 621.412 370.550, 617.769 370.103, 617.275 369.608 C 616.940 369.274, 618.298 369, 620.292 369 C 624.554 369, 630.940 366.091, 630.975 364.133 C 630.993 363.156, 630.218 362.944, 628.250 363.390 C 620.805 365.078, 619 365.222, 619 364.131 C 619 363.489, 620.634 363, 622.777 363 C 626.899 363, 631 360.727, 631 358.443 C 631 356.703, 627.867 356.533, 626.217 358.183 C 625.566 358.834, 624.787 359.120, 624.485 358.819 C 624.184 358.517, 625.189 357.479, 626.719 356.510 C 629.994 354.437, 632.946 351.013, 632.978 349.250 C 633.013 347.265, 630.177 347.800, 628.999 350.002 C 628.410 351.103, 626.314 352.678, 624.342 353.502 C 619.943 355.340, 620 355.340, 620 353.500 C 620 352.675, 620.337 351.999, 620.750 351.998 C 622.370 351.993, 628 346.341, 628 344.720 C 628 342.298, 626.327 342.582, 623.409 345.500 C 620.950 347.959, 619.015 348.724, 618.985 347.250 C 618.976 346.837, 620.792 344.925, 623.019 343 C 625.794 340.603, 627.138 338.589, 627.285 336.609 C 627.558 332.938, 625.315 332.041, 624.067 335.323 C 623.126 337.799, 619.257 342, 617.918 342 C 616.121 342, 616.154 338.404, 617.980 335.309 C 620.906 330.350, 620.556 323, 617.393 323 C 616.402 323, 615.991 324.372, 615.968 327.750 C 615.951 330.363, 615.276 333.374, 614.468 334.441 C 613.188 336.134, 613 336.166, 613 334.691 C 613 333.761, 612.550 333, 612 333 C 611.450 333, 610.986 331.087, 610.968 328.750 C 610.936 324.386, 609.225 321, 607.052 321 C 606.177 321, 606.002 322.222, 606.443 325.250 L 607.063 329.500 605.424 326.500 C 602.783 321.664, 599.826 319.855, 598.382 322.191 M 602.256 412.956 C 601.254 414.031, 599.838 416.558, 599.110 418.571 C 597.910 421.890, 597.970 422.415, 599.754 424.198 C 601.709 426.154, 601.724 426.137, 602.379 421.200 C 602.834 417.769, 603.846 415.426, 605.655 413.618 C 608.148 411.125, 608.173 411, 606.175 411 C 605.022 411, 603.258 411.880, 602.256 412.956 M 663.345 413.618 C 665.154 415.426, 666.166 417.769, 666.621 421.200 C 667.276 426.137, 667.291 426.154, 669.246 424.198 C 671.030 422.415, 671.090 421.890, 669.890 418.571 C 668.200 413.900, 665.495 411, 662.825 411 C 660.827 411, 660.852 411.125, 663.345 413.618 M 632.050 422.969 C 631.312 423.425, 630.985 424.519, 631.323 425.399 C 632.096 427.414, 635.596 427.495, 636.356 425.515 C 637.058 423.685, 633.907 421.822, 632.050 422.969" stroke="none" fill="#b4f242" fill-rule="evenodd"/></svg>