<svg xmlns="http://www.w3.org/2000/svg" width="1301" height="2022" viewBox="0 0 1301 2022" version="1.1"><path d="M 609.643 317.050 C 604.670 317.884, 592.068 323.923, 589.135 326.877 C 585.810 330.226, 580.201 337.594, 578.650 340.652 C 575.797 346.273, 572 364.703, 572 372.929 C 572 381.011, 574.465 392.628, 577.781 400.170 C 578.828 402.552, 580.281 406.075, 581.011 408 C 583.517 414.612, 587.030 419.720, 592.037 424.032 C 598.054 429.214, 603.505 433, 604.947 433 C 605.526 433, 606 433.338, 606 433.752 C 606 434.165, 608.813 435.807, 612.250 437.402 C 615.688 438.996, 619.175 440.863, 620 441.551 C 622.688 443.791, 630.845 448, 632.500 448 C 634.135 448, 642.245 443.830, 645 441.572 C 645.825 440.896, 648.975 439.123, 652 437.631 C 655.025 436.139, 658.389 434.375, 659.475 433.710 C 673.908 424.871, 680.026 418.455, 683.989 408 C 684.719 406.075, 686.172 402.552, 687.219 400.170 C 693.394 386.124, 694.450 371.313, 690.475 354.490 C 687.635 342.473, 686.312 339.432, 681.125 333.012 C 675.685 326.277, 674.859 325.591, 667.393 321.611 C 660.869 318.133, 646.883 314.784, 645.337 316.329 C 644.166 317.500, 645.992 320, 648.018 320 C 655.227 320, 666 331.260, 666 338.795 C 666 344.042, 664.081 345.293, 658.858 343.450 C 654.201 341.807, 646.228 342.343, 644.131 344.441 C 642.718 345.853, 642.757 346.001, 644.536 346.006 C 648.306 346.016, 653.960 348.095, 656.863 350.538 C 658.472 351.892, 660.467 353, 661.296 353 C 664.721 353, 669.575 365.002, 668.237 370.165 C 667.138 374.406, 664.805 374.855, 660.908 371.576 C 657.503 368.711, 651.985 368.108, 650.088 370.394 C 649.146 371.528, 649.722 372.041, 653.172 373.144 C 657.019 374.374, 657.815 375.243, 661.749 382.500 C 665.609 389.622, 666.029 391.033, 665.578 395.351 C 665.238 398.601, 664.316 400.946, 662.785 402.454 C 656.095 409.046, 647.894 408.577, 646.571 401.527 C 645.801 397.423, 644.265 396.906, 643.519 400.500 C 643.234 401.875, 642.786 404.048, 642.524 405.328 C 642.262 406.608, 640.934 408.858, 639.572 410.328 C 636.031 414.149, 628.969 414.149, 625.428 410.328 C 624.066 408.858, 622.738 406.608, 622.476 405.328 C 622.214 404.048, 621.766 401.875, 621.481 400.500 C 620.735 396.906, 619.199 397.423, 618.429 401.527 C 617.106 408.577, 608.905 409.046, 602.215 402.454 C 600.684 400.946, 599.762 398.601, 599.422 395.351 C 598.971 391.033, 599.391 389.622, 603.251 382.500 C 607.185 375.243, 607.981 374.374, 611.828 373.144 C 615.278 372.041, 615.854 371.528, 614.912 370.394 C 613.015 368.108, 607.497 368.711, 604.092 371.576 C 600.195 374.855, 597.862 374.406, 596.763 370.165 C 595.425 365.002, 600.279 353, 603.704 353 C 604.533 353, 606.528 351.892, 608.137 350.538 C 611.040 348.095, 616.694 346.016, 620.464 346.006 C 622.243 346.001, 622.282 345.853, 620.869 344.441 C 618.772 342.343, 610.799 341.807, 606.142 343.450 C 600.919 345.293, 599 344.042, 599 338.795 C 599 331.314, 607.861 321.813, 616.494 320.037 C 618.193 319.687, 619.630 318.681, 619.817 317.710 C 620.188 315.788, 618.010 315.646, 609.643 317.050" stroke="none" fill="#b4f444" fill-rule="evenodd"/></svg>