<svg xmlns="http://www.w3.org/2000/svg" width="1301" height="2022" viewBox="0 0 1301 2022" version="1.1"><path d="M 616.885 354.779 C 615.573 355.757, 611.545 358.009, 607.934 359.782 C 604.323 361.555, 600.059 364.373, 598.459 366.043 L 595.549 369.080 595.641 385.746 C 595.704 397.203, 596.087 402.529, 596.866 402.789 C 597.490 402.997, 598 403.804, 598 404.583 C 598 405.363, 598.392 406, 598.872 406 C 599.352 406, 600.032 407.800, 600.384 410 C 600.736 412.200, 601.409 414, 601.881 414 C 602.353 414, 602.986 415.528, 603.289 417.395 C 603.810 420.601, 605.188 422.857, 609.250 427.150 C 610.212 428.168, 611 429.675, 611 430.500 C 611 431.325, 611.398 432, 611.883 432 C 612.369 432, 612.989 432.850, 613.261 433.889 C 614.040 436.870, 625.639 438.405, 640.838 437.539 C 654.496 436.761, 656 436.449, 656 434.393 C 656 433.627, 656.450 433, 657 433 C 657.550 433, 658 432.311, 658 431.469 C 658 430.626, 658.675 429.678, 659.500 429.362 C 660.325 429.045, 661 428.259, 661 427.614 C 661 426.969, 661.900 425.793, 663 425 C 664.100 424.207, 665 422.983, 665 422.279 C 665 421.576, 665.450 421, 666 421 C 666.550 421, 667 420.057, 667 418.904 C 667 417.752, 667.844 415.614, 668.876 414.154 C 669.907 412.694, 671.068 410.038, 671.455 408.250 C 671.842 406.462, 672.573 405, 673.079 405 C 673.586 405, 674 402.075, 674 398.500 C 674 394.833, 674.436 392, 675 392 C 675.605 392, 676 387.732, 676 381.196 L 676 370.392 672.750 367.357 C 670.962 365.687, 667.813 363.553, 665.750 362.613 C 663.688 361.674, 662 360.477, 662 359.953 C 662 359.429, 661.403 359, 660.674 359 C 659.945 359, 658.292 357.875, 657 356.500 C 655.231 354.617, 653.633 354, 650.526 354 C 648.257 354, 645.860 354.540, 645.200 355.200 C 643.754 356.646, 643.583 365, 645 365 C 645.571 365, 646 368, 646 372 C 646 377.556, 646.310 379, 647.500 379 C 648.325 379, 649 379.450, 649 380 C 649 380.550, 649.675 381, 650.500 381 C 651.325 381, 652 381.441, 652 381.981 C 652 382.520, 653.125 383.244, 654.500 383.589 C 656.991 384.215, 657 384.258, 657 396.108 C 657 403.369, 656.611 408, 656 408 C 655.450 408, 655 409.800, 655 412 C 655 414.200, 654.550 416, 654 416 C 653.450 416, 653 417.350, 653 419 C 653 420.650, 652.550 422, 652 422 C 651.450 422, 651 423.350, 651 425 C 651 426.650, 650.660 428, 650.244 428 C 649.828 428, 648.891 429.350, 648.160 431 L 646.832 434 633.961 434 L 621.091 434 620.434 430.500 C 620.073 428.575, 619.429 427, 619.004 427 C 618.579 427, 617.908 424.413, 617.514 421.250 C 617.120 418.087, 616.361 415.229, 615.829 414.898 C 615.296 414.567, 614.598 407.455, 614.276 399.095 C 613.707 384.287, 613.746 383.879, 615.777 383.348 C 616.924 383.048, 618.104 382.172, 618.399 381.401 C 618.695 380.631, 619.851 380, 620.969 380 C 622.086 380, 623 379.550, 623 379 C 623 378.450, 623.900 378, 625 378 C 626.793 378, 627 377.333, 627 371.559 C 627 368.016, 627.450 364.840, 628 364.500 C 629.405 363.632, 629.250 355.650, 627.800 354.200 C 626.011 352.411, 619.604 352.751, 616.885 354.779" stroke="none" fill="#a0dc74" fill-rule="evenodd"/></svg>